<ttFont>
    <TTGlyph name=".notdef" xMin="68" yMin="-161" xMax="1936" yMax="1247">
      <contour>
        <pt x="1227" y="553" on="1"/>
        <pt x="1376" y="752" on="1"/>
        <pt x="1331" y="791" on="0"/>
        <pt x="1300" y="805" on="1"/>
        <pt x="1149" y="614" on="1"/>
        <pt x="1040" y="701" on="0"/>
        <pt x="950" y="764" on="1"/>
        <pt x="909" y="717" on="0"/>
        <pt x="897" y="684" on="1"/>
        <pt x="1083" y="537" on="1"/>
        <pt x="936" y="346" on="1"/>
        <pt x="938" y="337" on="0"/>
        <pt x="998" y="290" on="0"/>
        <pt x="1006" y="291" on="1"/>
        <pt x="1165" y="471" on="1"/>
        <pt x="1356" y="324" on="1"/>
        <pt x="1364" y="326" on="0"/>
        <pt x="1412" y="386" on="0"/>
        <pt x="1411" y="393" on="1"/>
        <pt x="1396" y="407" on="0"/>
        <pt x="1270" y="515" on="0"/>
      </contour>
      <contour>
        <pt x="924" y="-57" on="1"/>
        <pt x="953" y="-34" on="0"/>
        <pt x="1012" y="-34" on="1"/>
        <pt x="1014" y="-34" on="0"/>
        <pt x="1039" y="-33" on="0"/>
        <pt x="1040" y="-33" on="1"/>
        <pt x="1013" y="-10" on="0"/>
        <pt x="887" y="70" on="0"/>
        <pt x="887" y="94" on="0"/>
        <pt x="908" y="108" on="0"/>
        <pt x="913" y="113" on="1"/>
        <pt x="898" y="128" on="0"/>
        <pt x="898" y="168" on="0"/>
        <pt x="899" y="178" on="1"/>
        <pt x="736" y="267" on="0"/>
        <pt x="624" y="407" on="1"/>
        <pt x="543" y="508" on="0"/>
        <pt x="464" y="641" on="0"/>
        <pt x="461" y="645" on="1"/>
        <pt x="398" y="666" on="0"/>
        <pt x="352" y="682" on="0"/>
        <pt x="284" y="705" on="0"/>
        <pt x="256" y="717" on="0"/>
        <pt x="135" y="765" on="0"/>
        <pt x="69" y="820" on="0"/>
        <pt x="69" y="856" on="0"/>
        <pt x="92" y="856" on="1"/>
        <pt x="616" y="811" on="1"/>
        <pt x="689" y="826" on="0"/>
        <pt x="863" y="859" on="0"/>
        <pt x="914" y="869" on="1"/>
        <pt x="1068" y="900" on="0"/>
        <pt x="1115" y="911" on="1"/>
        <pt x="1270" y="949" on="0"/>
        <pt x="1307" y="1006" on="1"/>
        <pt x="1420" y="1206" on="0"/>
        <pt x="1566" y="1206" on="1"/>
        <pt x="1636" y="1206" on="0"/>
        <pt x="1681" y="1192" on="1"/>
        <pt x="1681" y="1194" on="1"/>
        <pt x="1833" y="1247" on="1"/>
        <pt x="1839" y="1247" on="0"/>
        <pt x="1839" y="1243" on="1"/>
        <pt x="1839" y="1241" on="1"/>
        <pt x="1788" y="1100" on="1"/>
        <pt x="1931" y="1106" on="1"/>
        <pt x="1936" y="1106" on="0"/>
        <pt x="1936" y="1102" on="0"/>
        <pt x="1935" y="1100" on="1"/>
        <pt x="1804" y="965" on="1"/>
        <pt x="1802" y="967" on="1"/>
        <pt x="1797" y="482" on="0"/>
        <pt x="1309" y="150" on="1"/>
        <pt x="1309" y="126" on="0"/>
        <pt x="1286" y="100" on="0"/>
        <pt x="1272" y="100" on="1"/>
        <pt x="1247" y="76" on="1"/>
        <pt x="1379" y="29" on="0"/>
        <pt x="1442" y="-2" on="1"/>
        <pt x="1485" y="-1" on="1"/>
        <pt x="1560" y="-1" on="0"/>
        <pt x="1612" y="-39" on="1"/>
        <pt x="1612" y="-44" on="1"/>
        <pt x="1612" y="-47" on="0"/>
        <pt x="1605" y="-52" on="0"/>
        <pt x="1604" y="-53" on="1"/>
        <pt x="1547" y="-27" on="0"/>
        <pt x="1502" y="-25" on="0"/>
        <pt x="1485" y="-27" on="1"/>
        <pt x="1539" y="-56" on="0"/>
        <pt x="1561" y="-88" on="1"/>
        <pt x="1558" y="-97" on="0"/>
        <pt x="1542" y="-100" on="1"/>
        <pt x="1477" y="-35" on="0"/>
        <pt x="1415" y="-35" on="1"/>
        <pt x="1391" y="-35" on="0"/>
        <pt x="1371" y="-39" on="0"/>
        <pt x="1362" y="-40" on="0"/>
        <pt x="1344" y="-47" on="0"/>
        <pt x="1337" y="-50" on="0"/>
        <pt x="1313" y="-61" on="0"/>
        <pt x="1308" y="-61" on="1"/>
        <pt x="1301" y="-61" on="1"/>
        <pt x="1295" y="-61" on="0"/>
        <pt x="1294" y="-51" on="1"/>
        <pt x="1314" y="-29" on="0"/>
        <pt x="1340" y="-21" on="0"/>
        <pt x="1371" y="-12" on="0"/>
        <pt x="1382" y="-8" on="1"/>
        <pt x="1334" y="18" on="0"/>
        <pt x="1204" y="63" on="0"/>
        <pt x="1204" y="70" on="1"/>
        <pt x="1204" y="82" on="0"/>
        <pt x="1227" y="100" on="1"/>
        <pt x="1212" y="100" on="0"/>
        <pt x="1191" y="128" on="0"/>
        <pt x="1188" y="139" on="1"/>
        <pt x="1133" y="139" on="1"/>
        <pt x="1072" y="139" on="0"/>
        <pt x="1020" y="147" on="1"/>
        <pt x="1002" y="99" on="0"/>
        <pt x="973" y="99" on="1"/>
        <pt x="969" y="99" on="0"/>
        <pt x="965" y="100" on="1"/>
        <pt x="941" y="87" on="0"/>
        <pt x="934" y="80" on="1"/>
        <pt x="1066" y="-4" on="0"/>
        <pt x="1106" y="-37" on="1"/>
        <pt x="1113" y="-39" on="0"/>
        <pt x="1166" y="-47" on="0"/>
        <pt x="1180" y="-51" on="1"/>
        <pt x="1223" y="-63" on="0"/>
        <pt x="1253" y="-104" on="1"/>
        <pt x="1253" y="-112" on="0"/>
        <pt x="1245" y="-117" on="0"/>
        <pt x="1243" y="-119" on="1"/>
        <pt x="1217" y="-95" on="0"/>
        <pt x="1183" y="-78" on="0"/>
        <pt x="1143" y="-72" on="1"/>
        <pt x="1183" y="-97" on="0"/>
        <pt x="1198" y="-152" on="1"/>
        <pt x="1195" y="-160" on="0"/>
        <pt x="1184" y="-160" on="0"/>
        <pt x="1182" y="-160" on="1"/>
        <pt x="1129" y="-76" on="0"/>
        <pt x="1073" y="-63" on="1"/>
        <pt x="1054" y="-60" on="0"/>
        <pt x="984" y="-60" on="0"/>
        <pt x="930" y="-74" on="1"/>
        <pt x="924" y="-65" on="0"/>
      </contour>
    </TTGlyph>
    <TTGlyph name="A" xMin="-160" yMin="-6" xMax="1298" yMax="2001">
      <contour>
        <pt x="211" y="653" on="1"/>
        <pt x="290" y="643" on="0"/>
        <pt x="477" y="635" on="1"/>
        <pt x="650" y="896" on="0"/>
        <pt x="920" y="1404" on="1"/>
        <pt x="1089" y="1722" on="0"/>
        <pt x="1139" y="1952" on="1"/>
        <pt x="1147" y="1973" on="0"/>
        <pt x="1183" y="2001" on="0"/>
        <pt x="1200" y="2001" on="1"/>
        <pt x="1226" y="2001" on="0"/>
        <pt x="1229" y="1970" on="1"/>
        <pt x="1245" y="1954" on="0"/>
        <pt x="1242" y="1914" on="0"/>
        <pt x="1231" y="1903" on="1"/>
        <pt x="1208" y="1822" on="0"/>
        <pt x="1189" y="1645" on="0"/>
        <pt x="1130" y="1167" on="0"/>
        <pt x="1130" y="841" on="0"/>
        <pt x="1155" y="608" on="1"/>
        <pt x="1278" y="595" on="0"/>
        <pt x="1298" y="567" on="0"/>
        <pt x="1298" y="533" on="0"/>
        <pt x="1261" y="498" on="0"/>
        <pt x="1218" y="501" on="0"/>
        <pt x="1186" y="506" on="0"/>
        <pt x="1169" y="508" on="1"/>
        <pt x="1169" y="498" on="1"/>
        <pt x="1169" y="492" on="0"/>
        <pt x="1176" y="442" on="0"/>
        <pt x="1177" y="354" on="0"/>
        <pt x="1184" y="285" on="0"/>
        <pt x="1200" y="211" on="0"/>
        <pt x="1231" y="72" on="0"/>
        <pt x="1231" y="28" on="0"/>
        <pt x="1198" y="-6" on="0"/>
        <pt x="1157" y="-6" on="0"/>
        <pt x="1127" y="53" on="0"/>
        <pt x="1107" y="145" on="0"/>
        <pt x="1094" y="259" on="0"/>
        <pt x="1084" y="370" on="0"/>
        <pt x="1077" y="465" on="0"/>
        <pt x="1073" y="492" on="1"/>
        <pt x="1067" y="520" on="1"/>
        <pt x="931" y="534" on="0"/>
        <pt x="653" y="538" on="0"/>
        <pt x="514" y="541" on="1"/>
        <pt x="250" y="141" on="0"/>
        <pt x="16" y="35" on="1"/>
        <pt x="-62" y="-4" on="0"/>
        <pt x="-106" y="-4" on="1"/>
        <pt x="-160" y="-4" on="0"/>
        <pt x="-160" y="47" on="1"/>
        <pt x="-160" y="73" on="0"/>
        <pt x="-124" y="111" on="0"/>
        <pt x="-85" y="111" on="0"/>
        <pt x="-74" y="94" on="1"/>
        <pt x="-72" y="96" on="1"/>
        <pt x="142" y="179" on="0"/>
        <pt x="332" y="432" on="1"/>
        <pt x="361" y="472" on="0"/>
        <pt x="397" y="518" on="0"/>
        <pt x="414" y="543" on="1"/>
        <pt x="259" y="551" on="0"/>
        <pt x="182" y="559" on="1"/>
        <pt x="154" y="570" on="0"/>
        <pt x="154" y="614" on="0"/>
        <pt x="189" y="650" on="0"/>
      </contour>
      <contour>
        <pt x="1057" y="618" on="1"/>
        <pt x="1040" y="752" on="0"/>
        <pt x="1040" y="1211" on="0"/>
        <pt x="1083" y="1538" on="1"/>
        <pt x="962" y="1287" on="0"/>
        <pt x="667" y="772" on="0"/>
        <pt x="578" y="633" on="1"/>
        <pt x="698" y="631" on="0"/>
        <pt x="939" y="628" on="0"/>
      </contour>
    </TTGlyph>
    <TTGlyph name="AE" xMin="-160" yMin="-18" xMax="1999" yMax="2001">
      <contour>
        <pt x="1898" y="1982" on="1"/>
        <pt x="1999" y="1982" on="0"/>
        <pt x="1999" y="1948" on="1"/>
        <pt x="1999" y="1927" on="0"/>
        <pt x="1970" y="1892" on="0"/>
        <pt x="1950" y="1886" on="1"/>
        <pt x="1812" y="1886" on="1"/>
        <pt x="1382" y="1886" on="0"/>
        <pt x="1223" y="1833" on="1"/>
        <pt x="1215" y="1810" on="0"/>
        <pt x="1200" y="1768" on="0"/>
        <pt x="1161" y="1587" on="0"/>
        <pt x="1079" y="1237" on="0"/>
        <pt x="1038" y="1061" on="1"/>
        <pt x="1097" y="1053" on="0"/>
        <pt x="1183" y="1053" on="1"/>
        <pt x="1309" y="1053" on="1"/>
        <pt x="1552" y="1053" on="0"/>
        <pt x="1616" y="1057" on="1"/>
        <pt x="1651" y="1047" on="0"/>
        <pt x="1651" y="1024" on="1"/>
        <pt x="1651" y="982" on="0"/>
        <pt x="1570" y="956" on="0"/>
        <pt x="1481" y="956" on="1"/>
        <pt x="1309" y="958" on="1"/>
        <pt x="1276" y="958" on="1"/>
        <pt x="1073" y="958" on="0"/>
        <pt x="1018" y="967" on="1"/>
        <pt x="979" y="794" on="0"/>
        <pt x="953" y="650" on="0"/>
        <pt x="948" y="624" on="1"/>
        <pt x="1268" y="608" on="0"/>
        <pt x="1290" y="578" on="1"/>
        <pt x="1298" y="567" on="0"/>
        <pt x="1298" y="533" on="0"/>
        <pt x="1261" y="498" on="0"/>
        <pt x="1235" y="498" on="1"/>
        <pt x="1110" y="522" on="0"/>
        <pt x="934" y="531" on="1"/>
        <pt x="900" y="311" on="0"/>
        <pt x="845" y="140" on="0"/>
        <pt x="821" y="92" on="1"/>
        <pt x="1612" y="76" on="1"/>
        <pt x="1714" y="76" on="0"/>
        <pt x="1753" y="80" on="1"/>
        <pt x="1788" y="71" on="0"/>
        <pt x="1788" y="4" on="0"/>
        <pt x="1710" y="-18" on="0"/>
        <pt x="1638" y="-18" on="1"/>
        <pt x="1624" y="-18" on="1"/>
        <pt x="1470" y="-18" on="0"/>
        <pt x="889" y="4" on="0"/>
        <pt x="829" y="4" on="1"/>
        <pt x="760" y="-2" on="1"/>
        <pt x="725" y="-2" on="0"/>
        <pt x="702" y="27" on="0"/>
        <pt x="702" y="53" on="0"/>
        <pt x="716" y="75" on="0"/>
        <pt x="787" y="236" on="0"/>
        <pt x="839" y="535" on="1"/>
        <pt x="514" y="541" on="1"/>
        <pt x="250" y="141" on="0"/>
        <pt x="16" y="35" on="1"/>
        <pt x="-62" y="-4" on="0"/>
        <pt x="-106" y="-4" on="1"/>
        <pt x="-160" y="-4" on="0"/>
        <pt x="-160" y="47" on="1"/>
        <pt x="-160" y="73" on="0"/>
        <pt x="-124" y="111" on="0"/>
        <pt x="-83" y="111" on="0"/>
        <pt x="-74" y="94" on="1"/>
        <pt x="-72" y="96" on="1"/>
        <pt x="142" y="179" on="0"/>
        <pt x="332" y="432" on="1"/>
        <pt x="361" y="472" on="0"/>
        <pt x="397" y="518" on="0"/>
        <pt x="414" y="543" on="1"/>
        <pt x="259" y="551" on="0"/>
        <pt x="182" y="559" on="1"/>
        <pt x="154" y="570" on="0"/>
        <pt x="154" y="614" on="0"/>
        <pt x="189" y="650" on="0"/>
        <pt x="211" y="653" on="1"/>
        <pt x="290" y="643" on="0"/>
        <pt x="477" y="635" on="1"/>
        <pt x="685" y="949" on="0"/>
        <pt x="972" y="1506" on="1"/>
        <pt x="1045" y="1647" on="0"/>
        <pt x="1095" y="1796" on="1"/>
        <pt x="1081" y="1807" on="0"/>
        <pt x="1081" y="1861" on="0"/>
        <pt x="1123" y="1887" on="1"/>
        <pt x="1128" y="1904" on="0"/>
        <pt x="1135" y="1935" on="0"/>
        <pt x="1147" y="1973" on="0"/>
        <pt x="1183" y="2001" on="0"/>
        <pt x="1200" y="2001" on="1"/>
        <pt x="1231" y="2001" on="0"/>
        <pt x="1231" y="1952" on="1"/>
        <pt x="1230" y="1948" on="1"/>
        <pt x="1236" y="1936" on="0"/>
        <pt x="1237" y="1931" on="1"/>
        <pt x="1437" y="1982" on="0"/>
        <pt x="1842" y="1982" on="1"/>
      </contour>
      <contour>
        <pt x="855" y="628" on="1"/>
        <pt x="860" y="652" on="0"/>
        <pt x="869" y="700" on="0"/>
        <pt x="874" y="725" on="1"/>
        <pt x="934" y="1010" on="1"/>
        <pt x="934" y="1016" on="1"/>
        <pt x="934" y="1028" on="0"/>
        <pt x="942" y="1047" on="1"/>
        <pt x="988" y="1255" on="0"/>
        <pt x="1028" y="1426" on="1"/>
        <pt x="762" y="920" on="0"/>
        <pt x="578" y="633" on="1"/>
      </contour>
    </TTGlyph>
    <TTGlyph name="Aacute" xMin="-160" yMin="-6" xMax="1467" yMax="2587">
      <component glyphName="A" x="0" y="0" flags="0x1204"/>
      <component glyphName="acute" x="412" y="2" flags="0x1004"/>
    </TTGlyph>
    <TTGlyph name="Acircumflex" xMin="-160" yMin="-6" xMax="1452" yMax="2474">
      <component glyphName="A" x="0" y="0" flags="0x1204"/>
      <component glyphName="circumflex" x="471" y="0" flags="0x1004"/>
    </TTGlyph>
    <TTGlyph name="Adieresis" xMin="-160" yMin="-6" xMax="1499" yMax="2370">
      <component glyphName="A" x="0" y="0" flags="0x1204"/>
      <component glyphName="dieresis" x="598" y="0" flags="0x1004"/>
    </TTGlyph>
    <TTGlyph name="Agrave" xMin="-160" yMin="-6" xMax="1298" yMax="2558">
      <component glyphName="A" x="0" y="0" flags="0x1204"/>
      <component glyphName="grave" x="860" y="0" flags="0x1004"/>
    </TTGlyph>
    <TTGlyph name="Aring" xMin="-160" yMin="-6" xMax="1370" yMax="2417">
      <component glyphName="A" x="0" y="0" flags="0x1204"/>
      <component glyphName="ring" x="496" y="0" flags="0x1004"/>
    </TTGlyph>
    <TTGlyph name="Atilde" xMin="-160" yMin="-6" xMax="1499" yMax="2392">
      <component glyphName="A" x="0" y="0" flags="0x1204"/>
      <component glyphName="tilde" x="426" y="0" flags="0x1004"/>
    </TTGlyph>
    <TTGlyph name="B" xMin="-167" yMin="-123" xMax="981" yMax="1976">
      <contour>
        <pt x="6" y="-82" on="1"/>
        <pt x="10" y="-50" on="0"/>
        <pt x="20" y="0" on="1"/>
        <pt x="-9" y="6" on="0"/>
        <pt x="-38" y="12" on="1"/>
        <pt x="-162" y="37" on="0"/>
        <pt x="-166" y="78" on="1"/>
        <pt x="-167" y="83" on="0"/>
        <pt x="-167" y="106" on="0"/>
        <pt x="-144" y="133" on="0"/>
        <pt x="-123" y="133" on="0"/>
        <pt x="-112" y="130" on="1"/>
        <pt x="-98" y="125" on="0"/>
        <pt x="-32" y="94" on="0"/>
        <pt x="41" y="94" on="1"/>
        <pt x="94" y="317" on="1"/>
        <pt x="125" y="475" on="0"/>
        <pt x="202" y="794" on="0"/>
        <pt x="240" y="958" on="1"/>
        <pt x="178" y="961" on="1"/>
        <pt x="147" y="961" on="0"/>
        <pt x="147" y="995" on="1"/>
        <pt x="147" y="1044" on="0"/>
        <pt x="258" y="1044" on="1"/>
        <pt x="303" y="1235" on="0"/>
        <pt x="373" y="1683" on="0"/>
        <pt x="428" y="1858" on="1"/>
        <pt x="391" y="1842" on="0"/>
        <pt x="360" y="1815" on="1"/>
        <pt x="342" y="1778" on="0"/>
        <pt x="307" y="1778" on="1"/>
        <pt x="298" y="1778" on="0"/>
        <pt x="272" y="1795" on="0"/>
        <pt x="272" y="1819" on="1"/>
        <pt x="272" y="1866" on="0"/>
        <pt x="392" y="1939" on="0"/>
        <pt x="469" y="1954" on="1"/>
        <pt x="482" y="1975" on="0"/>
        <pt x="519" y="1975" on="0"/>
        <pt x="532" y="1958" on="1"/>
        <pt x="722" y="1952" on="0"/>
        <pt x="952" y="1703" on="0"/>
        <pt x="952" y="1495" on="1"/>
        <pt x="952" y="1325" on="0"/>
        <pt x="701" y="1037" on="0"/>
        <pt x="545" y="1016" on="1"/>
        <pt x="719" y="1005" on="0"/>
        <pt x="981" y="722" on="0"/>
        <pt x="981" y="570" on="1"/>
        <pt x="981" y="278" on="0"/>
        <pt x="534" y="-16" on="0"/>
        <pt x="152" y="-16" on="1"/>
        <pt x="109" y="-14" on="1"/>
        <pt x="102" y="-43" on="0"/>
        <pt x="102" y="-63" on="1"/>
        <pt x="97" y="-89" on="0"/>
        <pt x="62" y="-123" on="0"/>
        <pt x="46" y="-123" on="1"/>
        <pt x="11" y="-123" on="0"/>
      </contour>
      <contour>
        <pt x="127" y="80" on="1"/>
        <pt x="154" y="76" on="0"/>
        <pt x="207" y="76" on="1"/>
        <pt x="534" y="76" on="0"/>
        <pt x="887" y="338" on="0"/>
        <pt x="887" y="557" on="1"/>
        <pt x="887" y="710" on="0"/>
        <pt x="607" y="950" on="0"/>
        <pt x="436" y="950" on="1"/>
        <pt x="392" y="950" on="0"/>
        <pt x="328" y="954" on="1"/>
        <pt x="231" y="533" on="0"/>
        <pt x="182" y="303" on="0"/>
        <pt x="168" y="250" on="0"/>
        <pt x="160" y="218" on="1"/>
        <pt x="143" y="150" on="1"/>
        <pt x="134" y="114" on="0"/>
      </contour>
      <contour>
        <pt x="852" y="1678" on="0"/>
        <pt x="663" y="1866" on="0"/>
        <pt x="512" y="1870" on="1"/>
        <pt x="462" y="1705" on="0"/>
        <pt x="369" y="1142" on="0"/>
        <pt x="348" y="1047" on="1"/>
        <pt x="559" y="1061" on="0"/>
        <pt x="852" y="1310" on="0"/>
      </contour>
    </TTGlyph>
    <TTGlyph name="B.alt" xMin="-463" yMin="-123" xMax="981" yMax="1976">
      <contour>
        <pt x="147" y="995" on="1"/>
        <pt x="147" y="1044" on="0"/>
        <pt x="258" y="1044" on="1"/>
        <pt x="303" y="1235" on="0"/>
        <pt x="373" y="1683" on="0"/>
        <pt x="428" y="1858" on="1"/>
        <pt x="391" y="1842" on="0"/>
        <pt x="360" y="1815" on="1"/>
        <pt x="342" y="1778" on="0"/>
        <pt x="307" y="1778" on="1"/>
        <pt x="298" y="1778" on="0"/>
        <pt x="272" y="1795" on="0"/>
        <pt x="272" y="1819" on="1"/>
        <pt x="272" y="1866" on="0"/>
        <pt x="392" y="1939" on="0"/>
        <pt x="469" y="1954" on="1"/>
        <pt x="482" y="1975" on="0"/>
        <pt x="519" y="1975" on="0"/>
        <pt x="532" y="1958" on="1"/>
        <pt x="722" y="1952" on="0"/>
        <pt x="952" y="1703" on="0"/>
        <pt x="952" y="1495" on="1"/>
        <pt x="952" y="1325" on="0"/>
        <pt x="701" y="1037" on="0"/>
        <pt x="545" y="1016" on="1"/>
        <pt x="719" y="1005" on="0"/>
        <pt x="981" y="722" on="0"/>
        <pt x="981" y="570" on="1"/>
        <pt x="981" y="278" on="0"/>
        <pt x="534" y="-16" on="0"/>
        <pt x="152" y="-16" on="1"/>
        <pt x="109" y="-14" on="1"/>
        <pt x="102" y="-43" on="0"/>
        <pt x="102" y="-63" on="1"/>
        <pt x="97" y="-89" on="0"/>
        <pt x="62" y="-123" on="0"/>
        <pt x="46" y="-123" on="1"/>
        <pt x="11" y="-123" on="0"/>
        <pt x="6" y="-82" on="1"/>
        <pt x="10" y="-50" on="0"/>
        <pt x="20" y="0" on="1"/>
        <pt x="-164" y="43" on="0"/>
        <pt x="-300" y="150" on="1"/>
        <pt x="-463" y="279" on="0"/>
        <pt x="-463" y="449" on="1"/>
        <pt x="-463" y="552" on="0"/>
        <pt x="-422" y="594" on="1"/>
        <pt x="-407" y="610" on="0"/>
        <pt x="-389" y="610" on="1"/>
        <pt x="-352" y="610" on="0"/>
        <pt x="-352" y="573" on="1"/>
        <pt x="-352" y="546" on="0"/>
        <pt x="-369" y="494" on="0"/>
        <pt x="-369" y="469" on="1"/>
        <pt x="-369" y="329" on="0"/>
        <pt x="-130" y="131" on="0"/>
        <pt x="41" y="94" on="1"/>
        <pt x="94" y="317" on="1"/>
        <pt x="125" y="475" on="0"/>
        <pt x="202" y="794" on="0"/>
        <pt x="240" y="958" on="1"/>
        <pt x="178" y="961" on="1"/>
        <pt x="147" y="961" on="0"/>
      </contour>
      <contour>
        <pt x="127" y="80" on="1"/>
        <pt x="154" y="76" on="0"/>
        <pt x="207" y="76" on="1"/>
        <pt x="534" y="76" on="0"/>
        <pt x="887" y="338" on="0"/>
        <pt x="887" y="557" on="1"/>
        <pt x="887" y="710" on="0"/>
        <pt x="607" y="950" on="0"/>
        <pt x="436" y="950" on="1"/>
        <pt x="392" y="950" on="0"/>
        <pt x="328" y="954" on="1"/>
        <pt x="231" y="533" on="0"/>
        <pt x="182" y="303" on="0"/>
        <pt x="168" y="250" on="0"/>
        <pt x="160" y="218" on="1"/>
        <pt x="143" y="150" on="1"/>
        <pt x="134" y="114" on="0"/>
      </contour>
      <contour>
        <pt x="852" y="1678" on="0"/>
        <pt x="663" y="1866" on="0"/>
        <pt x="512" y="1870" on="1"/>
        <pt x="462" y="1705" on="0"/>
        <pt x="369" y="1142" on="0"/>
        <pt x="348" y="1047" on="1"/>
        <pt x="559" y="1061" on="0"/>
        <pt x="852" y="1310" on="0"/>
      </contour>
    </TTGlyph>
    <TTGlyph name="C" xMin="61" yMin="-31" xMax="1196" yMax="1995">
      <contour>
        <pt x="887" y="256" on="1"/>
        <pt x="922" y="256" on="0"/>
        <pt x="922" y="219" on="1"/>
        <pt x="922" y="191" on="0"/>
        <pt x="891" y="168" on="1"/>
        <pt x="844" y="136" on="0"/>
        <pt x="796" y="100" on="1"/>
        <pt x="622" y="-30" on="0"/>
        <pt x="476" y="-30" on="1"/>
        <pt x="394" y="-30" on="0"/>
        <pt x="320" y="12" on="1"/>
        <pt x="163" y="100" on="0"/>
        <pt x="95" y="329" on="1"/>
        <pt x="61" y="444" on="0"/>
        <pt x="61" y="548" on="1"/>
        <pt x="61" y="719" on="0"/>
        <pt x="170" y="1192" on="0"/>
        <pt x="374" y="1673" on="0"/>
        <pt x="658" y="1995" on="0"/>
        <pt x="978" y="1995" on="0"/>
        <pt x="1196" y="1728" on="0"/>
        <pt x="1196" y="1589" on="1"/>
        <pt x="1193" y="1568" on="0"/>
        <pt x="1157" y="1532" on="0"/>
        <pt x="1121" y="1532" on="0"/>
        <pt x="1112" y="1544" on="1"/>
        <pt x="1099" y="1562" on="0"/>
        <pt x="1094" y="1610" on="1"/>
        <pt x="1078" y="1737" on="0"/>
        <pt x="928" y="1896" on="0"/>
        <pt x="704" y="1896" on="0"/>
        <pt x="577" y="1745" on="1"/>
        <pt x="408" y="1545" on="0"/>
        <pt x="166" y="812" on="0"/>
        <pt x="166" y="387" on="0"/>
        <pt x="238" y="244" on="1"/>
        <pt x="326" y="70" on="0"/>
        <pt x="492" y="70" on="1"/>
        <pt x="614" y="70" on="0"/>
        <pt x="772" y="184" on="1"/>
        <pt x="816" y="216" on="0"/>
        <pt x="870" y="256" on="0"/>
      </contour>
    </TTGlyph>
    <TTGlyph name="Ccedilla" xMin="61" yMin="-590" xMax="1196" yMax="1995">
      <contour>
        <pt x="501" y="-30" on="1"/>
        <pt x="479" y="-31" on="1"/>
        <pt x="305" y="-31" on="0"/>
        <pt x="61" y="309" on="0"/>
        <pt x="61" y="590" on="1"/>
        <pt x="61" y="810" on="0"/>
        <pt x="311" y="1601" on="0"/>
        <pt x="504" y="1821" on="1"/>
        <pt x="658" y="1995" on="0"/>
        <pt x="978" y="1995" on="0"/>
        <pt x="1196" y="1728" on="0"/>
        <pt x="1196" y="1589" on="1"/>
        <pt x="1193" y="1568" on="0"/>
        <pt x="1157" y="1532" on="0"/>
        <pt x="1121" y="1532" on="0"/>
        <pt x="1112" y="1544" on="1"/>
        <pt x="1099" y="1562" on="0"/>
        <pt x="1094" y="1610" on="1"/>
        <pt x="1078" y="1737" on="0"/>
        <pt x="928" y="1896" on="0"/>
        <pt x="704" y="1896" on="0"/>
        <pt x="577" y="1745" on="1"/>
        <pt x="408" y="1545" on="0"/>
        <pt x="166" y="812" on="0"/>
        <pt x="166" y="387" on="0"/>
        <pt x="238" y="244" on="1"/>
        <pt x="326" y="70" on="0"/>
        <pt x="492" y="70" on="1"/>
        <pt x="614" y="70" on="0"/>
        <pt x="772" y="184" on="1"/>
        <pt x="816" y="216" on="0"/>
        <pt x="870" y="256" on="0"/>
        <pt x="887" y="256" on="1"/>
        <pt x="922" y="256" on="0"/>
        <pt x="922" y="219" on="1"/>
        <pt x="922" y="191" on="0"/>
        <pt x="858" y="145" on="0"/>
        <pt x="790" y="96" on="0"/>
        <pt x="676" y="18" on="0"/>
        <pt x="610" y="-6" on="1"/>
        <pt x="608" y="-19" on="0"/>
        <pt x="586" y="-51" on="0"/>
        <pt x="558" y="-113" on="1"/>
        <pt x="642" y="-117" on="0"/>
        <pt x="783" y="-269" on="0"/>
        <pt x="783" y="-435" on="0"/>
        <pt x="645" y="-590" on="0"/>
        <pt x="519" y="-590" on="1"/>
        <pt x="465" y="-590" on="0"/>
        <pt x="416" y="-574" on="1"/>
        <pt x="318" y="-541" on="0"/>
        <pt x="318" y="-504" on="1"/>
        <pt x="318" y="-484" on="0"/>
        <pt x="352" y="-451" on="0"/>
        <pt x="375" y="-451" on="1"/>
        <pt x="390" y="-453" on="1"/>
        <pt x="476" y="-496" on="0"/>
        <pt x="596" y="-496" on="0"/>
        <pt x="687" y="-422" on="0"/>
        <pt x="687" y="-329" on="0"/>
        <pt x="658" y="-287" on="1"/>
        <pt x="600" y="-205" on="0"/>
        <pt x="541" y="-205" on="1"/>
        <pt x="507" y="-205" on="0"/>
        <pt x="486" y="-248" on="1"/>
        <pt x="482" y="-246" on="1"/>
        <pt x="458" y="-272" on="0"/>
        <pt x="439" y="-272" on="1"/>
        <pt x="402" y="-272" on="0"/>
        <pt x="402" y="-207" on="0"/>
        <pt x="429" y="-176" on="1"/>
        <pt x="448" y="-140" on="0"/>
        <pt x="481" y="-65" on="0"/>
      </contour>
    </TTGlyph>
    <TTGlyph name="D" xMin="-147" yMin="-113" xMax="1337" yMax="1980">
      <contour>
        <pt x="43" y="-72" on="1"/>
        <pt x="43" y="-52" on="0"/>
        <pt x="47" y="-14" on="1"/>
        <pt x="18" y="-8" on="0"/>
        <pt x="-12" y="-3" on="1"/>
        <pt x="-142" y="18" on="0"/>
        <pt x="-146" y="58" on="1"/>
        <pt x="-147" y="63" on="0"/>
        <pt x="-147" y="86" on="0"/>
        <pt x="-124" y="113" on="0"/>
        <pt x="-103" y="113" on="0"/>
        <pt x="-92" y="110" on="1"/>
        <pt x="-78" y="105" on="0"/>
        <pt x="-7" y="72" on="0"/>
        <pt x="59" y="72" on="1"/>
        <pt x="287" y="1194" on="0"/>
        <pt x="502" y="1835" on="1"/>
        <pt x="377" y="1793" on="0"/>
        <pt x="276" y="1729" on="1"/>
        <pt x="263" y="1724" on="0"/>
        <pt x="254" y="1724" on="1"/>
        <pt x="219" y="1724" on="0"/>
        <pt x="219" y="1761" on="1"/>
        <pt x="219" y="1791" on="0"/>
        <pt x="244" y="1808" on="1"/>
        <pt x="393" y="1900" on="0"/>
        <pt x="541" y="1942" on="1"/>
        <pt x="560" y="1968" on="0"/>
        <pt x="601" y="1968" on="0"/>
        <pt x="608" y="1958" on="1"/>
        <pt x="704" y="1980" on="0"/>
        <pt x="943" y="1980" on="0"/>
        <pt x="1046" y="1929" on="1"/>
        <pt x="1337" y="1784" on="0"/>
        <pt x="1337" y="1286" on="1"/>
        <pt x="1337" y="711" on="0"/>
        <pt x="1050" y="360" on="1"/>
        <pt x="851" y="118" on="0"/>
        <pt x="524" y="26" on="1"/>
        <pt x="358" y="-20" on="0"/>
        <pt x="156" y="-20" on="1"/>
        <pt x="143" y="-20" on="1"/>
        <pt x="136" y="-87" on="0"/>
        <pt x="111" y="-105" on="1"/>
        <pt x="100" y="-113" on="0"/>
        <pt x="82" y="-113" on="1"/>
        <pt x="43" y="-113" on="0"/>
      </contour>
      <contour>
        <pt x="1241" y="1262" on="1"/>
        <pt x="1241" y="1882" on="0"/>
        <pt x="774" y="1882" on="1"/>
        <pt x="678" y="1882" on="0"/>
        <pt x="600" y="1862" on="1"/>
        <pt x="427" y="1320" on="0"/>
        <pt x="271" y="604" on="1"/>
        <pt x="217" y="357" on="0"/>
        <pt x="158" y="68" on="1"/>
        <pt x="516" y="68" on="0"/>
        <pt x="1004" y="391" on="0"/>
        <pt x="1241" y="933" on="0"/>
      </contour>
    </TTGlyph>
    <TTGlyph name="D.alt" xMin="-489" yMin="-113" xMax="1337" yMax="1980">
      <contour>
        <pt x="-489" y="469" on="1"/>
        <pt x="-484" y="537" on="0"/>
        <pt x="-457" y="537" on="1"/>
        <pt x="-423" y="537" on="0"/>
        <pt x="-412" y="512" on="1"/>
        <pt x="-376" y="421" on="0"/>
        <pt x="-305" y="269" on="0"/>
        <pt x="-254" y="212" on="1"/>
        <pt x="-145" y="90" on="0"/>
        <pt x="59" y="72" on="1"/>
        <pt x="287" y="1194" on="0"/>
        <pt x="502" y="1835" on="1"/>
        <pt x="377" y="1793" on="0"/>
        <pt x="276" y="1729" on="1"/>
        <pt x="263" y="1724" on="0"/>
        <pt x="254" y="1724" on="1"/>
        <pt x="219" y="1724" on="0"/>
        <pt x="219" y="1761" on="1"/>
        <pt x="219" y="1791" on="0"/>
        <pt x="244" y="1808" on="1"/>
        <pt x="393" y="1900" on="0"/>
        <pt x="541" y="1942" on="1"/>
        <pt x="560" y="1968" on="0"/>
        <pt x="601" y="1968" on="0"/>
        <pt x="608" y="1958" on="1"/>
        <pt x="704" y="1980" on="0"/>
        <pt x="943" y="1980" on="0"/>
        <pt x="1046" y="1929" on="1"/>
        <pt x="1337" y="1784" on="0"/>
        <pt x="1337" y="1286" on="1"/>
        <pt x="1337" y="711" on="0"/>
        <pt x="1050" y="360" on="1"/>
        <pt x="851" y="118" on="0"/>
        <pt x="524" y="26" on="1"/>
        <pt x="358" y="-20" on="0"/>
        <pt x="156" y="-20" on="1"/>
        <pt x="143" y="-20" on="1"/>
        <pt x="136" y="-87" on="0"/>
        <pt x="111" y="-105" on="1"/>
        <pt x="100" y="-113" on="0"/>
        <pt x="82" y="-113" on="1"/>
        <pt x="43" y="-113" on="0"/>
        <pt x="43" y="-72" on="1"/>
        <pt x="43" y="-52" on="0"/>
        <pt x="47" y="-14" on="1"/>
        <pt x="-237" y="19" on="0"/>
        <pt x="-390" y="256" on="1"/>
        <pt x="-447" y="344" on="0"/>
      </contour>
      <contour>
        <pt x="1241" y="1262" on="1"/>
        <pt x="1241" y="1882" on="0"/>
        <pt x="774" y="1882" on="1"/>
        <pt x="678" y="1882" on="0"/>
        <pt x="600" y="1862" on="1"/>
        <pt x="395" y="1219" on="0"/>
        <pt x="152" y="68" on="1"/>
        <pt x="158" y="68" on="1"/>
        <pt x="516" y="68" on="0"/>
        <pt x="1004" y="391" on="0"/>
        <pt x="1241" y="933" on="0"/>
      </contour>
    </TTGlyph>
    <TTGlyph name="E" xMin="-31" yMin="-18" xMax="1266" yMax="1982">
      <contour>
        <pt x="504" y="1931" on="1"/>
        <pt x="704" y="1982" on="0"/>
        <pt x="1128" y="1982" on="1"/>
        <pt x="1188" y="1982" on="0"/>
        <pt x="1266" y="1970" on="0"/>
        <pt x="1266" y="1946" on="1"/>
        <pt x="1266" y="1911" on="0"/>
        <pt x="1238" y="1892" on="1"/>
        <pt x="1229" y="1886" on="0"/>
        <pt x="1217" y="1886" on="1"/>
        <pt x="1079" y="1886" on="1"/>
        <pt x="648" y="1886" on="0"/>
        <pt x="489" y="1833" on="1"/>
        <pt x="450" y="1695" on="0"/>
        <pt x="341" y="1159" on="0"/>
        <pt x="317" y="1061" on="1"/>
        <pt x="383" y="1053" on="0"/>
        <pt x="811" y="1053" on="0"/>
        <pt x="883" y="1057" on="1"/>
        <pt x="918" y="1047" on="0"/>
        <pt x="918" y="1024" on="1"/>
        <pt x="918" y="983" on="0"/>
        <pt x="837" y="956" on="0"/>
        <pt x="748" y="956" on="1"/>
        <pt x="297" y="967" on="1"/>
        <pt x="262" y="843" on="0"/>
        <pt x="132" y="240" on="0"/>
        <pt x="88" y="92" on="1"/>
        <pt x="879" y="76" on="1"/>
        <pt x="981" y="76" on="0"/>
        <pt x="1020" y="80" on="1"/>
        <pt x="1055" y="70" on="0"/>
        <pt x="1055" y="46" on="1"/>
        <pt x="1055" y="4" on="0"/>
        <pt x="1009" y="-9" on="1"/>
        <pt x="978" y="-18" on="0"/>
        <pt x="795" y="-18" on="0"/>
        <pt x="560" y="-11" on="0"/>
        <pt x="341" y="-3" on="0"/>
        <pt x="156" y="4" on="0"/>
        <pt x="96" y="4" on="1"/>
        <pt x="27" y="-2" on="1"/>
        <pt x="-8" y="-2" on="0"/>
        <pt x="-31" y="27" on="0"/>
        <pt x="-31" y="53" on="0"/>
        <pt x="-17" y="75" on="0"/>
        <pt x="5" y="124" on="0"/>
        <pt x="19" y="165" on="1"/>
        <pt x="45" y="242" on="0"/>
        <pt x="102" y="488" on="0"/>
        <pt x="261" y="1248" on="0"/>
        <pt x="381" y="1790" on="1"/>
        <pt x="348" y="1793" on="0"/>
        <pt x="348" y="1866" on="0"/>
        <pt x="408" y="1898" on="1"/>
        <pt x="408" y="1962" on="0"/>
        <pt x="469" y="1962" on="1"/>
        <pt x="499" y="1962" on="0"/>
      </contour>
    </TTGlyph>
    <TTGlyph name="Eacute" xMin="-31" yMin="-18" xMax="1266" yMax="2591">
      <component glyphName="E" x="0" y="0" flags="0x1204"/>
      <component glyphName="acute" x="55" y="6" flags="0x1004"/>
    </TTGlyph>
    <TTGlyph name="Ecircumflex" xMin="-31" yMin="-18" xMax="1266" yMax="2478">
      <component glyphName="E" x="0" y="0" flags="0x1204"/>
      <component glyphName="circumflex" x="115" y="4" flags="0x1004"/>
    </TTGlyph>
    <TTGlyph name="Edieresis" xMin="-31" yMin="-18" xMax="1266" yMax="2374">
      <component glyphName="E" x="0" y="0" flags="0x1204"/>
      <component glyphName="dieresis" x="242" y="4" flags="0x1004"/>
    </TTGlyph>
    <TTGlyph name="Egrave" xMin="-31" yMin="-18" xMax="1266" yMax="2560">
      <component glyphName="E" x="0" y="0" flags="0x1204"/>
      <component glyphName="grave" x="504" y="2" flags="0x1004"/>
    </TTGlyph>
    <TTGlyph name="Eth" xMin="-489" yMin="-113" xMax="1337" yMax="1980">
      <contour>
        <pt x="-489" y="469" on="1"/>
        <pt x="-484" y="537" on="0"/>
        <pt x="-457" y="537" on="1"/>
        <pt x="-423" y="537" on="0"/>
        <pt x="-412" y="512" on="1"/>
        <pt x="-376" y="421" on="0"/>
        <pt x="-305" y="269" on="0"/>
        <pt x="-254" y="212" on="1"/>
        <pt x="-145" y="90" on="0"/>
        <pt x="59" y="72" on="1"/>
        <pt x="72" y="154" on="0"/>
        <pt x="201" y="746" on="0"/>
        <pt x="258" y="982" on="1"/>
        <pt x="188" y="975" on="1"/>
        <pt x="74" y="961" on="0"/>
        <pt x="-22" y="961" on="0"/>
        <pt x="-59" y="964" on="0"/>
        <pt x="-92" y="970" on="0"/>
        <pt x="-115" y="978" on="0"/>
        <pt x="-113" y="983" on="1"/>
        <pt x="-123" y="996" on="0"/>
        <pt x="-123" y="1032" on="0"/>
        <pt x="-89" y="1065" on="0"/>
        <pt x="-52" y="1065" on="0"/>
        <pt x="-43" y="1059" on="1"/>
        <pt x="-34" y="1060" on="0"/>
        <pt x="123" y="1060" on="0"/>
        <pt x="233" y="1072" on="0"/>
        <pt x="281" y="1077" on="1"/>
        <pt x="389" y="1518" on="0"/>
        <pt x="502" y="1835" on="1"/>
        <pt x="377" y="1793" on="0"/>
        <pt x="276" y="1729" on="1"/>
        <pt x="263" y="1724" on="0"/>
        <pt x="254" y="1724" on="1"/>
        <pt x="219" y="1724" on="0"/>
        <pt x="219" y="1761" on="1"/>
        <pt x="219" y="1791" on="0"/>
        <pt x="244" y="1808" on="1"/>
        <pt x="393" y="1900" on="0"/>
        <pt x="541" y="1942" on="1"/>
        <pt x="560" y="1968" on="0"/>
        <pt x="601" y="1968" on="0"/>
        <pt x="608" y="1958" on="1"/>
        <pt x="704" y="1980" on="0"/>
        <pt x="943" y="1980" on="0"/>
        <pt x="1046" y="1929" on="1"/>
        <pt x="1337" y="1784" on="0"/>
        <pt x="1337" y="1286" on="1"/>
        <pt x="1337" y="702" on="0"/>
        <pt x="1066" y="360" on="1"/>
        <pt x="873" y="118" on="0"/>
        <pt x="540" y="26" on="1"/>
        <pt x="369" y="-20" on="0"/>
        <pt x="156" y="-20" on="1"/>
        <pt x="143" y="-20" on="1"/>
        <pt x="136" y="-87" on="0"/>
        <pt x="111" y="-105" on="1"/>
        <pt x="100" y="-113" on="0"/>
        <pt x="82" y="-113" on="1"/>
        <pt x="43" y="-113" on="0"/>
        <pt x="43" y="-72" on="1"/>
        <pt x="43" y="-52" on="0"/>
        <pt x="47" y="-14" on="1"/>
        <pt x="-237" y="19" on="0"/>
        <pt x="-390" y="256" on="1"/>
        <pt x="-447" y="344" on="0"/>
      </contour>
      <contour>
        <pt x="1241" y="1262" on="1"/>
        <pt x="1241" y="1882" on="0"/>
        <pt x="774" y="1882" on="1"/>
        <pt x="678" y="1882" on="0"/>
        <pt x="600" y="1862" on="1"/>
        <pt x="478" y="1515" on="0"/>
        <pt x="371" y="1085" on="1"/>
        <pt x="637" y="1108" on="0"/>
        <pt x="924" y="1108" on="1"/>
        <pt x="958" y="1099" on="0"/>
        <pt x="958" y="1073" on="1"/>
        <pt x="958" y="1055" on="0"/>
        <pt x="929" y="1020" on="0"/>
        <pt x="909" y="1014" on="1"/>
        <pt x="627" y="1014" on="0"/>
        <pt x="348" y="990" on="1"/>
        <pt x="260" y="627" on="0"/>
        <pt x="152" y="68" on="1"/>
        <pt x="158" y="68" on="1"/>
        <pt x="506" y="68" on="0"/>
        <pt x="995" y="392" on="0"/>
        <pt x="1241" y="936" on="0"/>
      </contour>
    </TTGlyph>
    <TTGlyph name="Euro" xMin="-47" yMin="-70" xMax="1104" yMax="2017">
      <contour>
        <pt x="723" y="1114" on="1"/>
        <pt x="448" y="1128" on="1"/>
        <pt x="353" y="1128" on="0"/>
        <pt x="289" y="1124" on="1"/>
        <pt x="264" y="1007" on="0"/>
        <pt x="254" y="934" on="1"/>
        <pt x="318" y="940" on="0"/>
        <pt x="421" y="940" on="0"/>
        <pt x="606" y="925" on="0"/>
        <pt x="768" y="888" on="0"/>
        <pt x="768" y="860" on="1"/>
        <pt x="768" y="838" on="0"/>
        <pt x="731" y="803" on="0"/>
        <pt x="705" y="803" on="1"/>
        <pt x="683" y="807" on="0"/>
        <pt x="410" y="848" on="1"/>
        <pt x="369" y="848" on="1"/>
        <pt x="289" y="848" on="0"/>
        <pt x="238" y="840" on="1"/>
        <pt x="211" y="653" on="0"/>
        <pt x="211" y="534" on="1"/>
        <pt x="211" y="303" on="0"/>
        <pt x="373" y="20" on="0"/>
        <pt x="657" y="20" on="0"/>
        <pt x="764" y="113" on="1"/>
        <pt x="798" y="142" on="0"/>
        <pt x="823" y="178" on="1"/>
        <pt x="844" y="195" on="0"/>
        <pt x="864" y="195" on="1"/>
        <pt x="901" y="195" on="0"/>
        <pt x="901" y="129" on="0"/>
        <pt x="848" y="76" on="1"/>
        <pt x="702" y="-70" on="0"/>
        <pt x="567" y="-70" on="1"/>
        <pt x="382" y="-70" on="0"/>
        <pt x="264" y="8" on="0"/>
        <pt x="202" y="91" on="0"/>
        <pt x="166" y="186" on="0"/>
        <pt x="145" y="291" on="0"/>
        <pt x="119" y="391" on="0"/>
        <pt x="119" y="652" on="0"/>
        <pt x="143" y="823" on="1"/>
        <pt x="72" y="806" on="0"/>
        <pt x="-3" y="776" on="0"/>
        <pt x="-14" y="776" on="1"/>
        <pt x="-47" y="776" on="0"/>
        <pt x="-47" y="811" on="1"/>
        <pt x="-47" y="883" on="0"/>
        <pt x="158" y="920" on="1"/>
        <pt x="180" y="1046" on="0"/>
        <pt x="195" y="1116" on="1"/>
        <pt x="64" y="1096" on="0"/>
        <pt x="27" y="1057" on="1"/>
        <pt x="6" y="1044" on="0"/>
        <pt x="-8" y="1044" on="1"/>
        <pt x="-45" y="1044" on="0"/>
        <pt x="-45" y="1081" on="1"/>
        <pt x="-45" y="1180" on="0"/>
        <pt x="217" y="1210" on="1"/>
        <pt x="380" y="1851" on="0"/>
        <pt x="766" y="1995" on="1"/>
        <pt x="830" y="2017" on="0"/>
        <pt x="913" y="2017" on="1"/>
        <pt x="1069" y="2011" on="1"/>
        <pt x="1104" y="2002" on="0"/>
        <pt x="1104" y="1976" on="1"/>
        <pt x="1104" y="1958" on="0"/>
        <pt x="1075" y="1923" on="0"/>
        <pt x="1055" y="1917" on="1"/>
        <pt x="899" y="1925" on="1"/>
        <pt x="738" y="1925" on="0"/>
        <pt x="598" y="1792" on="1"/>
        <pt x="411" y="1613" on="0"/>
        <pt x="311" y="1221" on="1"/>
        <pt x="379" y="1225" on="0"/>
        <pt x="605" y="1225" on="0"/>
        <pt x="782" y="1205" on="0"/>
        <pt x="782" y="1171" on="1"/>
        <pt x="782" y="1151" on="0"/>
        <pt x="746" y="1114" on="0"/>
      </contour>
    </TTGlyph>
    <TTGlyph name="F" xMin="-45" yMin="-53" xMax="1688" yMax="1970">
      <contour>
        <pt x="209" y="1094" on="1"/>
        <pt x="239" y="1090" on="0"/>
        <pt x="262" y="1090" on="1"/>
        <pt x="301" y="1090" on="1"/>
        <pt x="316" y="1090" on="0"/>
        <pt x="332" y="1092" on="1"/>
        <pt x="338" y="1143" on="1"/>
        <pt x="369" y="1404" on="0"/>
        <pt x="434" y="1706" on="1"/>
        <pt x="88" y="1614" on="0"/>
        <pt x="27" y="1544" on="1"/>
        <pt x="7" y="1532" on="0"/>
        <pt x="-8" y="1532" on="1"/>
        <pt x="-45" y="1532" on="0"/>
        <pt x="-45" y="1569" on="1"/>
        <pt x="-45" y="1668" on="0"/>
        <pt x="375" y="1782" on="1"/>
        <pt x="425" y="1795" on="0"/>
        <pt x="457" y="1804" on="1"/>
        <pt x="476" y="1884" on="0"/>
        <pt x="492" y="1939" on="1"/>
        <pt x="513" y="1970" on="0"/>
        <pt x="543" y="1970" on="1"/>
        <pt x="580" y="1970" on="0"/>
        <pt x="580" y="1935" on="1"/>
        <pt x="580" y="1921" on="0"/>
        <pt x="571" y="1907" on="1"/>
        <pt x="555" y="1831" on="1"/>
        <pt x="1032" y="1951" on="0"/>
        <pt x="1653" y="1960" on="1"/>
        <pt x="1688" y="1950" on="0"/>
        <pt x="1688" y="1925" on="1"/>
        <pt x="1688" y="1907" on="0"/>
        <pt x="1658" y="1872" on="0"/>
        <pt x="1638" y="1866" on="1"/>
        <pt x="1017" y="1857" on="0"/>
        <pt x="535" y="1733" on="1"/>
        <pt x="506" y="1589" on="0"/>
        <pt x="448" y="1304" on="0"/>
        <pt x="432" y="1157" on="1"/>
        <pt x="426" y="1102" on="1"/>
        <pt x="539" y="1114" on="1"/>
        <pt x="695" y="1128" on="0"/>
        <pt x="994" y="1135" on="0"/>
        <pt x="1049" y="1137" on="1"/>
        <pt x="1079" y="1125" on="0"/>
        <pt x="1079" y="1083" on="0"/>
        <pt x="1046" y="1048" on="0"/>
        <pt x="1024" y="1044" on="1"/>
        <pt x="944" y="1040" on="0"/>
        <pt x="680" y="1035" on="0"/>
        <pt x="530" y="1024" on="1"/>
        <pt x="414" y="1010" on="1"/>
        <pt x="366" y="647" on="0"/>
        <pt x="268" y="188" on="1"/>
        <pt x="248" y="97" on="0"/>
        <pt x="225" y="-12" on="1"/>
        <pt x="206" y="-53" on="0"/>
        <pt x="168" y="-53" on="1"/>
        <pt x="137" y="-53" on="0"/>
        <pt x="133" y="-12" on="1"/>
        <pt x="247" y="529" on="0"/>
        <pt x="304" y="902" on="0"/>
        <pt x="317" y="999" on="1"/>
        <pt x="300" y="997" on="0"/>
        <pt x="284" y="997" on="1"/>
        <pt x="250" y="997" on="1"/>
        <pt x="206" y="997" on="0"/>
        <pt x="145" y="1011" on="0"/>
        <pt x="145" y="1036" on="1"/>
        <pt x="145" y="1055" on="0"/>
        <pt x="183" y="1092" on="0"/>
      </contour>
    </TTGlyph>
    <TTGlyph name="G" xMin="49" yMin="-918" xMax="1440" yMax="1960">
      <contour>
        <pt x="981" y="117" on="1"/>
        <pt x="801" y="-31" on="0"/>
        <pt x="510" y="-31" on="1"/>
        <pt x="358" y="-31" on="0"/>
        <pt x="246" y="67" on="1"/>
        <pt x="100" y="194" on="0"/>
        <pt x="60" y="435" on="1"/>
        <pt x="49" y="505" on="0"/>
        <pt x="49" y="571" on="1"/>
        <pt x="49" y="804" on="0"/>
        <pt x="171" y="1166" on="1"/>
        <pt x="255" y="1415" on="0"/>
        <pt x="515" y="1828" on="0"/>
        <pt x="682" y="1915" on="1"/>
        <pt x="769" y="1960" on="0"/>
        <pt x="860" y="1960" on="1"/>
        <pt x="1033" y="1960" on="0"/>
        <pt x="1237" y="1752" on="0"/>
        <pt x="1268" y="1577" on="1"/>
        <pt x="1265" y="1555" on="0"/>
        <pt x="1228" y="1520" on="0"/>
        <pt x="1185" y="1520" on="0"/>
        <pt x="1174" y="1548" on="1"/>
        <pt x="1150" y="1615" on="0"/>
        <pt x="1126" y="1672" on="1"/>
        <pt x="1048" y="1864" on="0"/>
        <pt x="860" y="1864" on="1"/>
        <pt x="709" y="1864" on="0"/>
        <pt x="566" y="1720" on="1"/>
        <pt x="382" y="1532" on="0"/>
        <pt x="143" y="832" on="0"/>
        <pt x="143" y="398" on="0"/>
        <pt x="214" y="253" on="1"/>
        <pt x="308" y="61" on="0"/>
        <pt x="524" y="61" on="1"/>
        <pt x="879" y="61" on="0"/>
        <pt x="1007" y="258" on="1"/>
        <pt x="1053" y="329" on="0"/>
        <pt x="1067" y="418" on="1"/>
        <pt x="1064" y="429" on="0"/>
        <pt x="1063" y="451" on="0"/>
        <pt x="1015" y="511" on="0"/>
        <pt x="866" y="658" on="0"/>
        <pt x="803" y="702" on="1"/>
        <pt x="671" y="675" on="0"/>
        <pt x="504" y="653" on="1"/>
        <pt x="463" y="657" on="0"/>
        <pt x="463" y="690" on="1"/>
        <pt x="463" y="716" on="0"/>
        <pt x="487" y="737" on="1"/>
        <pt x="623" y="834" on="0"/>
        <pt x="719" y="834" on="1"/>
        <pt x="777" y="834" on="0"/>
        <pt x="834" y="803" on="1"/>
        <pt x="1080" y="857" on="0"/>
        <pt x="1391" y="956" on="1"/>
        <pt x="1440" y="956" on="0"/>
        <pt x="1440" y="922" on="1"/>
        <pt x="1440" y="912" on="0"/>
        <pt x="1432" y="891" on="1"/>
        <pt x="1170" y="462" on="0"/>
        <pt x="1034" y="-49" on="1"/>
        <pt x="966" y="-306" on="0"/>
        <pt x="885" y="-741" on="0"/>
        <pt x="860" y="-860" on="1"/>
        <pt x="857" y="-885" on="0"/>
        <pt x="819" y="-918" on="0"/>
        <pt x="803" y="-918" on="1"/>
        <pt x="770" y="-918" on="0"/>
        <pt x="766" y="-874" on="1"/>
        <pt x="834" y="-442" on="0"/>
        <pt x="929" y="-63" on="0"/>
      </contour>
      <contour>
        <pt x="932" y="729" on="1"/>
        <pt x="1024" y="641" on="0"/>
        <pt x="1053" y="611" on="0"/>
        <pt x="1107" y="561" on="0"/>
        <pt x="1128" y="532" on="1"/>
        <pt x="1166" y="611" on="0"/>
        <pt x="1253" y="759" on="0"/>
        <pt x="1296" y="834" on="1"/>
        <pt x="1115" y="772" on="0"/>
      </contour>
    </TTGlyph>
    <TTGlyph name="H" xMin="-303" yMin="-70" xMax="1798" yMax="2003">
      <contour>
        <pt x="-211" y="608" on="1"/>
        <pt x="-207" y="590" on="1"/>
        <pt x="-207" y="567" on="0"/>
        <pt x="-240" y="532" on="0"/>
        <pt x="-260" y="532" on="1"/>
        <pt x="-303" y="532" on="0"/>
        <pt x="-303" y="592" on="1"/>
        <pt x="-303" y="713" on="0"/>
        <pt x="-61" y="858" on="1"/>
        <pt x="22" y="907" on="0"/>
        <pt x="125" y="945" on="0"/>
        <pt x="234" y="993" on="0"/>
        <pt x="311" y="1018" on="0"/>
        <pt x="322" y="1022" on="1"/>
        <pt x="365" y="1202" on="0"/>
        <pt x="411" y="1590" on="0"/>
        <pt x="436" y="1819" on="0"/>
        <pt x="451" y="1933" on="1"/>
        <pt x="457" y="1982" on="0"/>
        <pt x="510" y="1982" on="1"/>
        <pt x="532" y="1982" on="0"/>
        <pt x="547" y="1966" on="0"/>
        <pt x="545" y="1948" on="1"/>
        <pt x="521" y="1661" on="0"/>
        <pt x="422" y="1049" on="1"/>
        <pt x="730" y="1128" on="0"/>
        <pt x="1202" y="1149" on="1"/>
        <pt x="1269" y="1657" on="0"/>
        <pt x="1283" y="1714" on="1"/>
        <pt x="1327" y="1892" on="0"/>
        <pt x="1331" y="1954" on="1"/>
        <pt x="1337" y="1974" on="0"/>
        <pt x="1372" y="2003" on="0"/>
        <pt x="1391" y="2003" on="1"/>
        <pt x="1416" y="2003" on="0"/>
        <pt x="1425" y="1968" on="1"/>
        <pt x="1422" y="1913" on="0"/>
        <pt x="1406" y="1844" on="1"/>
        <pt x="1381" y="1736" on="1"/>
        <pt x="1363" y="1658" on="0"/>
        <pt x="1313" y="1279" on="0"/>
        <pt x="1296" y="1151" on="1"/>
        <pt x="1763" y="1165" on="1"/>
        <pt x="1798" y="1156" on="0"/>
        <pt x="1798" y="1130" on="1"/>
        <pt x="1798" y="1112" on="0"/>
        <pt x="1769" y="1077" on="0"/>
        <pt x="1749" y="1071" on="1"/>
        <pt x="1633" y="1066" on="0"/>
        <pt x="1401" y="1062" on="0"/>
        <pt x="1282" y="1059" on="1"/>
        <pt x="1264" y="913" on="0"/>
        <pt x="1194" y="561" on="0"/>
        <pt x="1131" y="214" on="0"/>
        <pt x="1124" y="35" on="1"/>
        <pt x="1121" y="10" on="0"/>
        <pt x="1084" y="-23" on="0"/>
        <pt x="1065" y="-23" on="1"/>
        <pt x="1034" y="-23" on="0"/>
        <pt x="1030" y="20" on="1"/>
        <pt x="1037" y="205" on="0"/>
        <pt x="1101" y="556" on="0"/>
        <pt x="1143" y="767" on="0"/>
        <pt x="1161" y="874" on="1"/>
        <pt x="1190" y="1055" on="1"/>
        <pt x="715" y="1036" on="0"/>
        <pt x="397" y="950" on="1"/>
        <pt x="335" y="699" on="0"/>
        <pt x="194" y="209" on="0"/>
        <pt x="135" y="-29" on="1"/>
        <pt x="114" y="-70" on="0"/>
        <pt x="78" y="-70" on="1"/>
        <pt x="47" y="-70" on="0"/>
        <pt x="43" y="-29" on="1"/>
        <pt x="99" y="201" on="0"/>
        <pt x="235" y="678" on="0"/>
        <pt x="297" y="922" on="1"/>
        <pt x="35" y="835" on="0"/>
        <pt x="-119" y="713" on="1"/>
        <pt x="-127" y="707" on="0"/>
        <pt x="-142" y="696" on="1"/>
        <pt x="-211" y="645" on="0"/>
        <pt x="-211" y="612" on="1"/>
        <pt x="-211" y="610" on="0"/>
      </contour>
    </TTGlyph>
    <TTGlyph name="I" xMin="-115" yMin="-20" xMax="776" yMax="1966">
      <contour>
        <pt x="315" y="1874" on="1"/>
        <pt x="276" y="1874" on="0"/>
        <pt x="276" y="1912" on="1"/>
        <pt x="276" y="1929" on="0"/>
        <pt x="314" y="1964" on="0"/>
        <pt x="340" y="1966" on="1"/>
        <pt x="515" y="1966" on="1"/>
        <pt x="619" y="1966" on="0"/>
        <pt x="745" y="1964" on="1"/>
        <pt x="776" y="1953" on="0"/>
        <pt x="776" y="1911" on="0"/>
        <pt x="744" y="1877" on="0"/>
        <pt x="721" y="1872" on="1"/>
        <pt x="656" y="1872" on="1"/>
        <pt x="628" y="1872" on="0"/>
        <pt x="578" y="1874" on="1"/>
        <pt x="282" y="684" on="0"/>
        <pt x="174" y="92" on="1"/>
        <pt x="363" y="87" on="0"/>
        <pt x="380" y="54" on="1"/>
        <pt x="385" y="46" on="0"/>
        <pt x="385" y="20" on="0"/>
        <pt x="350" y="-17" on="0"/>
        <pt x="326" y="-20" on="1"/>
        <pt x="270" y="-20" on="0"/>
        <pt x="149" y="-2" on="0"/>
        <pt x="83" y="6" on="0"/>
        <pt x="-11" y="6" on="0"/>
        <pt x="-63" y="-10" on="1"/>
        <pt x="-74" y="-10" on="1"/>
        <pt x="-95" y="-10" on="0"/>
        <pt x="-115" y="11" on="0"/>
        <pt x="-115" y="25" on="1"/>
        <pt x="-115" y="94" on="0"/>
        <pt x="78" y="94" on="1"/>
        <pt x="86" y="94" on="1"/>
        <pt x="171" y="550" on="0"/>
        <pt x="431" y="1656" on="0"/>
        <pt x="481" y="1874" on="1"/>
        <pt x="466" y="1873" on="0"/>
        <pt x="456" y="1873" on="1"/>
        <pt x="402" y="1873" on="1"/>
      </contour>
    </TTGlyph>
    <TTGlyph name="Iacute" xMin="-115" yMin="-20" xMax="856" yMax="2591">
      <component glyphName="I" x="0" y="0" flags="0x1204"/>
      <component glyphName="acute" x="-199" y="6" flags="0x1004"/>
    </TTGlyph>
    <TTGlyph name="Icircumflex" xMin="-115" yMin="-20" xMax="842" yMax="2478">
      <component glyphName="I" x="0" y="0" flags="0x1204"/>
      <component glyphName="circumflex" x="-139" y="4" flags="0x1004"/>
    </TTGlyph>
    <TTGlyph name="Idieresis" xMin="-115" yMin="-20" xMax="889" yMax="2374">
      <component glyphName="I" x="0" y="0" flags="0x1204"/>
      <component glyphName="dieresis" x="-12" y="4" flags="0x1004"/>
    </TTGlyph>
    <TTGlyph name="Igrave" xMin="-115" yMin="-20" xMax="776" yMax="2560">
      <component glyphName="I" x="0" y="0" flags="0x1204"/>
      <component glyphName="grave" x="248" y="2" flags="0x1004"/>
    </TTGlyph>
    <TTGlyph name="J" xMin="-133" yMin="-27" xMax="1096" yMax="1989">
      <contour>
        <pt x="983" y="1962" on="1"/>
        <pt x="996" y="1970" on="0"/>
        <pt x="1021" y="1970" on="0"/>
        <pt x="1034" y="1962" on="1"/>
        <pt x="1045" y="1970" on="0"/>
        <pt x="1058" y="1970" on="1"/>
        <pt x="1087" y="1970" on="0"/>
        <pt x="1096" y="1935" on="1"/>
        <pt x="1036" y="1711" on="0"/>
        <pt x="908" y="1040" on="0"/>
        <pt x="870" y="844" on="0"/>
        <pt x="811" y="535" on="0"/>
        <pt x="687" y="198" on="0"/>
        <pt x="578" y="94" on="1"/>
        <pt x="447" y="-27" on="0"/>
        <pt x="38" y="-27" on="0"/>
        <pt x="-74" y="211" on="1"/>
        <pt x="-133" y="336" on="0"/>
        <pt x="-133" y="395" on="0"/>
        <pt x="-100" y="432" on="0"/>
        <pt x="-86" y="432" on="1"/>
        <pt x="-50" y="432" on="0"/>
        <pt x="-44" y="405" on="1"/>
        <pt x="-28" y="335" on="0"/>
        <pt x="54" y="173" on="0"/>
        <pt x="181" y="61" on="0"/>
        <pt x="374" y="61" on="0"/>
        <pt x="536" y="170" on="0"/>
        <pt x="594" y="264" on="1"/>
        <pt x="690" y="421" on="0"/>
        <pt x="762" y="760" on="1"/>
        <pt x="777" y="834" on="0"/>
        <pt x="816" y="1019" on="0"/>
        <pt x="858" y="1222" on="0"/>
        <pt x="902" y="1432" on="0"/>
        <pt x="944" y="1629" on="0"/>
        <pt x="981" y="1803" on="0"/>
        <pt x="995" y="1868" on="1"/>
        <pt x="923" y="1827" on="0"/>
        <pt x="771" y="1827" on="0"/>
        <pt x="543" y="1888" on="0"/>
        <pt x="481" y="1894" on="1"/>
        <pt x="453" y="1907" on="0"/>
        <pt x="453" y="1949" on="0"/>
        <pt x="488" y="1986" on="0"/>
        <pt x="510" y="1989" on="1"/>
        <pt x="562" y="1983" on="0"/>
        <pt x="781" y="1923" on="0"/>
        <pt x="916" y="1923" on="0"/>
      </contour>
    </TTGlyph>
    <TTGlyph name="K" xMin="-14" yMin="-18" xMax="1276" yMax="1999">
      <contour>
        <pt x="1241" y="1980" on="1"/>
        <pt x="1276" y="1980" on="0"/>
        <pt x="1276" y="1946" on="1"/>
        <pt x="1276" y="1925" on="0"/>
        <pt x="1260" y="1905" on="1"/>
        <pt x="1106" y="1721" on="0"/>
        <pt x="483" y="1019" on="0"/>
        <pt x="379" y="897" on="1"/>
        <pt x="407" y="610" on="0"/>
        <pt x="547" y="360" on="1"/>
        <pt x="645" y="186" on="0"/>
        <pt x="782" y="112" on="1"/>
        <pt x="852" y="74" on="0"/>
        <pt x="1000" y="74" on="0"/>
        <pt x="1080" y="104" on="0"/>
        <pt x="1118" y="162" on="1"/>
        <pt x="1138" y="178" on="0"/>
        <pt x="1156" y="178" on="1"/>
        <pt x="1196" y="178" on="0"/>
        <pt x="1196" y="106" on="0"/>
        <pt x="1074" y="0" on="0"/>
        <pt x="970" y="-18" on="0"/>
        <pt x="833" y="-18" on="0"/>
        <pt x="673" y="61" on="0"/>
        <pt x="608" y="128" on="1"/>
        <pt x="489" y="248" on="0"/>
        <pt x="330" y="630" on="0"/>
        <pt x="297" y="821" on="1"/>
        <pt x="275" y="796" on="0"/>
        <pt x="235" y="760" on="0"/>
        <pt x="221" y="737" on="1"/>
        <pt x="117" y="268" on="0"/>
        <pt x="80" y="39" on="1"/>
        <pt x="75" y="14" on="0"/>
        <pt x="39" y="-18" on="0"/>
        <pt x="22" y="-18" on="1"/>
        <pt x="-10" y="-18" on="0"/>
        <pt x="-14" y="25" on="1"/>
        <pt x="78" y="534" on="0"/>
        <pt x="353" y="1716" on="0"/>
        <pt x="406" y="1950" on="1"/>
        <pt x="414" y="1971" on="0"/>
        <pt x="450" y="1999" on="0"/>
        <pt x="464" y="1999" on="1"/>
        <pt x="498" y="1999" on="0"/>
        <pt x="498" y="1962" on="1"/>
        <pt x="498" y="1950" on="1"/>
        <pt x="448" y="1693" on="0"/>
        <pt x="327" y="1170" on="0"/>
        <pt x="268" y="909" on="1"/>
        <pt x="382" y="1038" on="0"/>
        <pt x="1014" y="1742" on="0"/>
        <pt x="1200" y="1964" on="1"/>
        <pt x="1220" y="1980" on="0"/>
      </contour>
    </TTGlyph>
    <TTGlyph name="L" xMin="-12" yMin="-14" xMax="879" yMax="1960">
      <contour>
        <pt x="37" y="2" on="1"/>
        <pt x="27" y="-2" on="0"/>
        <pt x="6" y="-2" on="0"/>
        <pt x="-12" y="25" on="0"/>
        <pt x="-12" y="86" on="0"/>
        <pt x="48" y="180" on="0"/>
        <pt x="70" y="273" on="0"/>
        <pt x="156" y="573" on="0"/>
        <pt x="230" y="977" on="0"/>
        <pt x="376" y="1656" on="0"/>
        <pt x="428" y="1911" on="1"/>
        <pt x="434" y="1931" on="0"/>
        <pt x="470" y="1960" on="0"/>
        <pt x="487" y="1960" on="1"/>
        <pt x="514" y="1960" on="0"/>
        <pt x="522" y="1925" on="1"/>
        <pt x="476" y="1722" on="0"/>
        <pt x="310" y="867" on="0"/>
        <pt x="236" y="561" on="0"/>
        <pt x="175" y="249" on="0"/>
        <pt x="133" y="111" on="1"/>
        <pt x="351" y="74" on="0"/>
        <pt x="487" y="74" on="1"/>
        <pt x="530" y="74" on="1"/>
        <pt x="710" y="82" on="1"/>
        <pt x="748" y="82" on="0"/>
        <pt x="844" y="94" on="1"/>
        <pt x="879" y="85" on="0"/>
        <pt x="879" y="59" on="1"/>
        <pt x="879" y="42" on="0"/>
        <pt x="849" y="6" on="0"/>
        <pt x="829" y="0" on="1"/>
        <pt x="687" y="-14" on="0"/>
        <pt x="555" y="-14" on="1"/>
      </contour>
    </TTGlyph>
    <TTGlyph name="M" xMin="-12" yMin="-25" xMax="1660" yMax="1982">
      <contour>
        <pt x="1567" y="1933" on="1"/>
        <pt x="1594" y="1982" on="0"/>
        <pt x="1659" y="1982" on="0"/>
        <pt x="1659" y="1952" on="1"/>
        <pt x="1659" y="1949" on="0"/>
        <pt x="1659" y="1946" on="1"/>
        <pt x="1598" y="929" on="0"/>
        <pt x="1591" y="76" on="1"/>
        <pt x="1604" y="50" on="0"/>
        <pt x="1590" y="24" on="1"/>
        <pt x="1566" y="-25" on="0"/>
        <pt x="1534" y="-25" on="1"/>
        <pt x="1495" y="-25" on="0"/>
        <pt x="1492" y="44" on="1"/>
        <pt x="1491" y="64" on="0"/>
        <pt x="1491" y="278" on="0"/>
        <pt x="1502" y="672" on="0"/>
        <pt x="1517" y="1069" on="0"/>
        <pt x="1533" y="1464" on="0"/>
        <pt x="1538" y="1657" on="1"/>
        <pt x="1439" y="1436" on="0"/>
        <pt x="950" y="505" on="0"/>
        <pt x="866" y="336" on="1"/>
        <pt x="843" y="293" on="0"/>
        <pt x="785" y="293" on="0"/>
        <pt x="774" y="322" on="1"/>
        <pt x="722" y="562" on="0"/>
        <pt x="510" y="1512" on="0"/>
        <pt x="471" y="1706" on="1"/>
        <pt x="404" y="1366" on="0"/>
        <pt x="114" y="170" on="0"/>
        <pt x="80" y="18" on="1"/>
        <pt x="60" y="-23" on="0"/>
        <pt x="23" y="-23" on="1"/>
        <pt x="-8" y="-23" on="0"/>
        <pt x="-12" y="18" on="1"/>
        <pt x="53" y="375" on="0"/>
        <pt x="365" y="1670" on="0"/>
        <pt x="424" y="1931" on="1"/>
        <pt x="430" y="1951" on="0"/>
        <pt x="465" y="1980" on="0"/>
        <pt x="480" y="1980" on="1"/>
        <pt x="509" y="1980" on="0"/>
        <pt x="518" y="1946" on="1"/>
        <pt x="603" y="1578" on="0"/>
        <pt x="776" y="744" on="0"/>
        <pt x="831" y="510" on="1"/>
        <pt x="968" y="746" on="0"/>
        <pt x="1202" y="1212" on="0"/>
        <pt x="1429" y="1666" on="0"/>
      </contour>
    </TTGlyph>
    <TTGlyph name="N" xMin="-14" yMin="-23" xMax="1378" yMax="1989">
      <contour>
        <pt x="416" y="1985" on="0"/>
        <pt x="462" y="1985" on="0"/>
        <pt x="487" y="1957" on="0"/>
        <pt x="494" y="1920" on="1"/>
        <pt x="528" y="1753" on="0"/>
        <pt x="873" y="435" on="0"/>
        <pt x="952" y="158" on="1"/>
        <pt x="999" y="424" on="0"/>
        <pt x="1225" y="1599" on="0"/>
        <pt x="1286" y="1939" on="1"/>
        <pt x="1293" y="1961" on="0"/>
        <pt x="1338" y="1989" on="0"/>
        <pt x="1376" y="1989" on="0"/>
        <pt x="1378" y="1964" on="0"/>
        <pt x="1378" y="1939" on="1"/>
        <pt x="1251" y="1326" on="0"/>
        <pt x="1053" y="210" on="0"/>
        <pt x="1020" y="27" on="0"/>
        <pt x="1010" y="6" on="0"/>
        <pt x="981" y="-23" on="0"/>
        <pt x="932" y="-23" on="0"/>
        <pt x="904" y="24" on="1"/>
        <pt x="877" y="73" on="0"/>
        <pt x="803" y="371" on="0"/>
        <pt x="530" y="1402" on="0"/>
        <pt x="451" y="1731" on="1"/>
        <pt x="404" y="1516" on="0"/>
        <pt x="167" y="370" on="0"/>
        <pt x="82" y="20" on="1"/>
        <pt x="73" y="-20" on="0"/>
        <pt x="-14" y="-20" on="0"/>
        <pt x="-14" y="17" on="1"/>
        <pt x="-14" y="29" on="0"/>
        <pt x="125" y="602" on="0"/>
        <pt x="399" y="1944" on="0"/>
      </contour>
    </TTGlyph>
    <TTGlyph name="Ntilde" xMin="-14" yMin="-23" xMax="1378" yMax="2396">
      <component glyphName="N" x="0" y="0" flags="0x1204"/>
      <component glyphName="tilde" x="139" y="4" flags="0x1004"/>
    </TTGlyph>
    <TTGlyph name="O" xMin="61" yMin="-45" xMax="1237" yMax="1997">
      <contour>
        <pt x="426" y="-45" on="1"/>
        <pt x="61" y="-45" on="0"/>
        <pt x="61" y="604" on="1"/>
        <pt x="61" y="1043" on="0"/>
        <pt x="230" y="1414" on="1"/>
        <pt x="413" y="1819" on="0"/>
        <pt x="707" y="1819" on="1"/>
        <pt x="821" y="1819" on="0"/>
        <pt x="922" y="1737" on="1"/>
        <pt x="940" y="1717" on="0"/>
        <pt x="940" y="1696" on="1"/>
        <pt x="940" y="1647" on="0"/>
        <pt x="907" y="1647" on="1"/>
        <pt x="899" y="1647" on="0"/>
        <pt x="860" y="1668" on="1"/>
        <pt x="769" y="1718" on="0"/>
        <pt x="675" y="1718" on="1"/>
        <pt x="552" y="1718" on="0"/>
        <pt x="306" y="1397" on="0"/>
        <pt x="154" y="893" on="0"/>
        <pt x="154" y="647" on="1"/>
        <pt x="154" y="172" on="0"/>
        <pt x="330" y="72" on="1"/>
        <pt x="372" y="49" on="0"/>
        <pt x="514" y="49" on="0"/>
        <pt x="592" y="84" on="1"/>
        <pt x="807" y="183" on="0"/>
        <pt x="953" y="502" on="1"/>
        <pt x="1045" y="703" on="0"/>
        <pt x="1141" y="1157" on="0"/>
        <pt x="1141" y="1582" on="0"/>
        <pt x="1062" y="1744" on="1"/>
        <pt x="1005" y="1858" on="0"/>
        <pt x="914" y="1884" on="1"/>
        <pt x="868" y="1896" on="0"/>
        <pt x="785" y="1912" on="0"/>
        <pt x="727" y="1932" on="0"/>
        <pt x="727" y="1952" on="1"/>
        <pt x="727" y="1990" on="0"/>
        <pt x="778" y="1997" on="1"/>
        <pt x="1179" y="1997" on="0"/>
        <pt x="1228" y="1472" on="1"/>
        <pt x="1237" y="1383" on="0"/>
        <pt x="1237" y="1280" on="1"/>
        <pt x="1237" y="1060" on="0"/>
        <pt x="1118" y="591" on="0"/>
        <pt x="899" y="193" on="0"/>
        <pt x="600" y="-45" on="0"/>
      </contour>
    </TTGlyph>
    <TTGlyph name="OE" xMin="61" yMin="-45" xMax="2204" yMax="1997">
      <contour>
        <pt x="2103" y="1982" on="1"/>
        <pt x="2204" y="1982" on="0"/>
        <pt x="2204" y="1948" on="1"/>
        <pt x="2204" y="1927" on="0"/>
        <pt x="2174" y="1892" on="0"/>
        <pt x="2154" y="1886" on="1"/>
        <pt x="2017" y="1886" on="1"/>
        <pt x="1586" y="1886" on="0"/>
        <pt x="1427" y="1833" on="1"/>
        <pt x="1405" y="1771" on="0"/>
        <pt x="1366" y="1587" on="0"/>
        <pt x="1283" y="1237" on="0"/>
        <pt x="1243" y="1061" on="1"/>
        <pt x="1302" y="1053" on="0"/>
        <pt x="1387" y="1053" on="1"/>
        <pt x="1513" y="1053" on="1"/>
        <pt x="1757" y="1053" on="0"/>
        <pt x="1821" y="1057" on="1"/>
        <pt x="1855" y="1048" on="0"/>
        <pt x="1855" y="1024" on="1"/>
        <pt x="1855" y="982" on="0"/>
        <pt x="1773" y="956" on="0"/>
        <pt x="1686" y="956" on="1"/>
        <pt x="1513" y="958" on="1"/>
        <pt x="1481" y="958" on="1"/>
        <pt x="1278" y="958" on="0"/>
        <pt x="1223" y="967" on="1"/>
        <pt x="1163" y="703" on="0"/>
        <pt x="1131" y="479" on="0"/>
        <pt x="1080" y="201" on="0"/>
        <pt x="1026" y="92" on="1"/>
        <pt x="1817" y="76" on="1"/>
        <pt x="1919" y="76" on="0"/>
        <pt x="1958" y="80" on="1"/>
        <pt x="1993" y="70" on="0"/>
        <pt x="1993" y="46" on="1"/>
        <pt x="1993" y="4" on="0"/>
        <pt x="1947" y="-9" on="1"/>
        <pt x="1916" y="-18" on="0"/>
        <pt x="1843" y="-18" on="1"/>
        <pt x="1829" y="-18" on="1"/>
        <pt x="1675" y="-18" on="0"/>
        <pt x="1094" y="4" on="0"/>
        <pt x="1034" y="4" on="1"/>
        <pt x="965" y="-2" on="1"/>
        <pt x="930" y="-2" on="0"/>
        <pt x="907" y="27" on="0"/>
        <pt x="907" y="53" on="0"/>
        <pt x="914" y="64" on="1"/>
        <pt x="969" y="150" on="0"/>
        <pt x="1022" y="417" on="1"/>
        <pt x="847" y="89" on="0"/>
        <pt x="602" y="-10" on="1"/>
        <pt x="518" y="-45" on="0"/>
        <pt x="426" y="-45" on="1"/>
        <pt x="61" y="-45" on="0"/>
        <pt x="61" y="604" on="1"/>
        <pt x="61" y="1043" on="0"/>
        <pt x="230" y="1414" on="1"/>
        <pt x="413" y="1819" on="0"/>
        <pt x="707" y="1819" on="1"/>
        <pt x="821" y="1819" on="0"/>
        <pt x="922" y="1737" on="1"/>
        <pt x="940" y="1717" on="0"/>
        <pt x="940" y="1696" on="1"/>
        <pt x="940" y="1647" on="0"/>
        <pt x="907" y="1647" on="1"/>
        <pt x="899" y="1647" on="0"/>
        <pt x="860" y="1668" on="1"/>
        <pt x="769" y="1718" on="0"/>
        <pt x="675" y="1718" on="1"/>
        <pt x="552" y="1718" on="0"/>
        <pt x="310" y="1397" on="0"/>
        <pt x="162" y="893" on="0"/>
        <pt x="162" y="647" on="1"/>
        <pt x="162" y="49" on="0"/>
        <pt x="426" y="49" on="1"/>
        <pt x="671" y="49" on="0"/>
        <pt x="858" y="342" on="1"/>
        <pt x="1016" y="589" on="0"/>
        <pt x="1095" y="956" on="1"/>
        <pt x="1141" y="1172" on="0"/>
        <pt x="1141" y="1582" on="0"/>
        <pt x="1062" y="1744" on="1"/>
        <pt x="1005" y="1858" on="0"/>
        <pt x="914" y="1884" on="1"/>
        <pt x="868" y="1896" on="0"/>
        <pt x="785" y="1912" on="0"/>
        <pt x="727" y="1932" on="0"/>
        <pt x="727" y="1952" on="1"/>
        <pt x="727" y="1990" on="0"/>
        <pt x="778" y="1997" on="1"/>
        <pt x="1194" y="1997" on="0"/>
        <pt x="1232" y="1427" on="1"/>
        <pt x="1280" y="1631" on="0"/>
        <pt x="1311" y="1755" on="1"/>
        <pt x="1319" y="1790" on="1"/>
        <pt x="1286" y="1793" on="0"/>
        <pt x="1286" y="1866" on="0"/>
        <pt x="1346" y="1898" on="1"/>
        <pt x="1346" y="1903" on="1"/>
        <pt x="1346" y="1923" on="0"/>
        <pt x="1364" y="1944" on="1"/>
        <pt x="1389" y="1962" on="0"/>
        <pt x="1407" y="1962" on="1"/>
        <pt x="1437" y="1962" on="0"/>
        <pt x="1442" y="1931" on="1"/>
        <pt x="1642" y="1982" on="0"/>
        <pt x="2047" y="1982" on="1"/>
      </contour>
    </TTGlyph>
    <TTGlyph name="Oacute" xMin="61" yMin="-45" xMax="1237" yMax="2710">
      <component glyphName="O" x="0" y="0" flags="0x1204"/>
      <component glyphName="acute" x="86" y="125" flags="0x1004"/>
    </TTGlyph>
    <TTGlyph name="Ocircumflex" xMin="61" yMin="-45" xMax="1237" yMax="2597">
      <component glyphName="O" x="0" y="0" flags="0x1204"/>
      <component glyphName="circumflex" x="145" y="123" flags="0x1004"/>
    </TTGlyph>
    <TTGlyph name="Odieresis" xMin="61" yMin="-45" xMax="1237" yMax="2493">
      <component glyphName="O" x="0" y="0" flags="0x1204"/>
      <component glyphName="dieresis" x="272" y="123" flags="0x1004"/>
    </TTGlyph>
    <TTGlyph name="Ograve" xMin="61" yMin="-45" xMax="1237" yMax="2679">
      <component glyphName="O" x="0" y="0" flags="0x1204"/>
      <component glyphName="grave" x="535" y="121" flags="0x1004"/>
    </TTGlyph>
    <TTGlyph name="Oslash" xMin="61" yMin="-111" xMax="1237" yMax="2092">
      <contour>
        <pt x="1043" y="1912" on="1"/>
        <pt x="1083" y="2083" on="0"/>
        <pt x="1153" y="2092" on="1"/>
        <pt x="1163" y="2092" on="1"/>
        <pt x="1193" y="2092" on="0"/>
        <pt x="1193" y="2045" on="0"/>
        <pt x="1163" y="2028" on="1"/>
        <pt x="1140" y="1990" on="0"/>
        <pt x="1119" y="1869" on="0"/>
        <pt x="1109" y="1845" on="0"/>
        <pt x="1109" y="1843" on="1"/>
        <pt x="1237" y="1665" on="0"/>
        <pt x="1237" y="942" on="0"/>
        <pt x="972" y="251" on="0"/>
        <pt x="756" y="79" on="1"/>
        <pt x="600" y="-45" on="0"/>
        <pt x="426" y="-45" on="1"/>
        <pt x="325" y="-45" on="0"/>
        <pt x="252" y="5" on="1"/>
        <pt x="213" y="-82" on="1"/>
        <pt x="198" y="-111" on="0"/>
        <pt x="135" y="-111" on="0"/>
        <pt x="135" y="-86" on="1"/>
        <pt x="135" y="-80" on="0"/>
        <pt x="140" y="-70" on="1"/>
        <pt x="197" y="54" on="1"/>
        <pt x="61" y="207" on="0"/>
        <pt x="61" y="1043" on="0"/>
        <pt x="230" y="1414" on="1"/>
        <pt x="413" y="1819" on="0"/>
        <pt x="707" y="1819" on="1"/>
        <pt x="821" y="1819" on="0"/>
        <pt x="922" y="1737" on="1"/>
        <pt x="940" y="1717" on="0"/>
        <pt x="940" y="1696" on="1"/>
        <pt x="940" y="1647" on="0"/>
        <pt x="907" y="1647" on="1"/>
        <pt x="899" y="1647" on="0"/>
        <pt x="860" y="1668" on="1"/>
        <pt x="769" y="1718" on="0"/>
        <pt x="675" y="1718" on="1"/>
        <pt x="552" y="1718" on="0"/>
        <pt x="310" y="1397" on="0"/>
        <pt x="162" y="893" on="0"/>
        <pt x="162" y="647" on="1"/>
        <pt x="162" y="312" on="0"/>
        <pt x="245" y="163" on="1"/>
        <pt x="268" y="217" on="0"/>
        <pt x="316" y="326" on="0"/>
        <pt x="361" y="430" on="0"/>
        <pt x="402" y="525" on="0"/>
        <pt x="420" y="564" on="1"/>
        <pt x="574" y="901" on="1"/>
        <pt x="725" y="1235" on="0"/>
        <pt x="1002" y="1757" on="0"/>
        <pt x="1018" y="1812" on="1"/>
        <pt x="978" y="1866" on="0"/>
        <pt x="868" y="1896" on="0"/>
        <pt x="785" y="1912" on="0"/>
        <pt x="727" y="1932" on="0"/>
        <pt x="727" y="1952" on="1"/>
        <pt x="727" y="1990" on="0"/>
        <pt x="778" y="1997" on="1"/>
        <pt x="939" y="1997" on="0"/>
      </contour>
      <contour>
        <pt x="295" y="99" on="1"/>
        <pt x="349" y="49" on="0"/>
        <pt x="432" y="49" on="1"/>
        <pt x="592" y="49" on="0"/>
        <pt x="862" y="313" on="0"/>
        <pt x="1045" y="723" on="0"/>
        <pt x="1141" y="1172" on="0"/>
        <pt x="1141" y="1583" on="0"/>
        <pt x="1064" y="1737" on="1"/>
        <pt x="1040" y="1683" on="0"/>
        <pt x="795" y="1199" on="0"/>
        <pt x="677" y="952" on="0"/>
        <pt x="569" y="714" on="0"/>
        <pt x="458" y="465" on="0"/>
        <pt x="347" y="215" on="0"/>
      </contour>
    </TTGlyph>
    <TTGlyph name="Otilde" xMin="61" yMin="-45" xMax="1237" yMax="2515">
      <component glyphName="O" x="0" y="0" flags="0x1204"/>
      <component glyphName="tilde" x="100" y="123" flags="0x1004"/>
    </TTGlyph>
    <TTGlyph name="P" xMin="94" yMin="-10" xMax="1108" yMax="2011">
      <contour>
        <pt x="268" y="809" on="1"/>
        <pt x="94" y="865" on="0"/>
        <pt x="94" y="909" on="1"/>
        <pt x="94" y="934" on="0"/>
        <pt x="128" y="958" on="0"/>
        <pt x="166" y="958" on="0"/>
        <pt x="202" y="948" on="0"/>
        <pt x="238" y="934" on="0"/>
        <pt x="274" y="917" on="0"/>
        <pt x="289" y="911" on="1"/>
        <pt x="494" y="1872" on="1"/>
        <pt x="403" y="1844" on="0"/>
        <pt x="360" y="1767" on="1"/>
        <pt x="342" y="1743" on="0"/>
        <pt x="313" y="1743" on="1"/>
        <pt x="276" y="1743" on="0"/>
        <pt x="276" y="1778" on="1"/>
        <pt x="276" y="1785" on="0"/>
        <pt x="281" y="1800" on="1"/>
        <pt x="353" y="1937" on="0"/>
        <pt x="524" y="1970" on="1"/>
        <pt x="546" y="2011" on="0"/>
        <pt x="605" y="2011" on="0"/>
        <pt x="610" y="1980" on="1"/>
        <pt x="618" y="1980" on="1"/>
        <pt x="847" y="1980" on="0"/>
        <pt x="1108" y="1675" on="0"/>
        <pt x="1108" y="1487" on="1"/>
        <pt x="1108" y="1171" on="0"/>
        <pt x="947" y="980" on="1"/>
        <pt x="773" y="772" on="0"/>
        <pt x="457" y="772" on="1"/>
        <pt x="408" y="772" on="0"/>
        <pt x="354" y="786" on="1"/>
        <pt x="331" y="671" on="0"/>
        <pt x="232" y="213" on="0"/>
        <pt x="203" y="47" on="1"/>
        <pt x="198" y="22" on="0"/>
        <pt x="162" y="-10" on="0"/>
        <pt x="146" y="-10" on="1"/>
        <pt x="113" y="-10" on="0"/>
        <pt x="109" y="33" on="1"/>
        <pt x="143" y="230" on="0"/>
        <pt x="248" y="711" on="0"/>
      </contour>
      <contour>
        <pt x="375" y="881" on="1"/>
        <pt x="423" y="868" on="0"/>
        <pt x="618" y="868" on="0"/>
        <pt x="809" y="960" on="0"/>
        <pt x="878" y="1038" on="1"/>
        <pt x="1022" y="1204" on="0"/>
        <pt x="1022" y="1438" on="1"/>
        <pt x="1022" y="1620" on="0"/>
        <pt x="790" y="1888" on="0"/>
        <pt x="590" y="1888" on="1"/>
      </contour>
    </TTGlyph>
    <TTGlyph name="Q" xMin="61" yMin="-737" xMax="2327" yMax="2015">
      <contour>
        <pt x="2277" y="-549" on="1"/>
        <pt x="2327" y="-549" on="0"/>
        <pt x="2327" y="-580" on="1"/>
        <pt x="2327" y="-597" on="0"/>
        <pt x="2299" y="-633" on="0"/>
        <pt x="2277" y="-641" on="1"/>
        <pt x="2065" y="-681" on="0"/>
        <pt x="1694" y="-737" on="0"/>
        <pt x="1538" y="-737" on="1"/>
        <pt x="1208" y="-737" on="0"/>
        <pt x="920" y="-582" on="1"/>
        <pt x="572" y="-395" on="0"/>
        <pt x="252" y="16" on="1"/>
        <pt x="150" y="100" on="0"/>
        <pt x="61" y="421" on="0"/>
        <pt x="61" y="580" on="1"/>
        <pt x="61" y="907" on="0"/>
        <pt x="202" y="1474" on="0"/>
        <pt x="348" y="1644" on="1"/>
        <pt x="519" y="1843" on="0"/>
        <pt x="766" y="1843" on="1"/>
        <pt x="810" y="1843" on="0"/>
        <pt x="901" y="1819" on="0"/>
        <pt x="909" y="1815" on="1"/>
        <pt x="914" y="1807" on="0"/>
        <pt x="926" y="1800" on="0"/>
        <pt x="926" y="1772" on="0"/>
        <pt x="891" y="1741" on="0"/>
        <pt x="849" y="1741" on="0"/>
        <pt x="757" y="1769" on="0"/>
        <pt x="737" y="1769" on="1"/>
        <pt x="560" y="1769" on="0"/>
        <pt x="424" y="1592" on="1"/>
        <pt x="234" y="1346" on="0"/>
        <pt x="179" y="878" on="1"/>
        <pt x="162" y="734" on="0"/>
        <pt x="162" y="590" on="1"/>
        <pt x="162" y="47" on="0"/>
        <pt x="467" y="47" on="1"/>
        <pt x="616" y="47" on="0"/>
        <pt x="766" y="197" on="1"/>
        <pt x="1051" y="486" on="0"/>
        <pt x="1154" y="989" on="1"/>
        <pt x="1194" y="1189" on="0"/>
        <pt x="1194" y="1583" on="0"/>
        <pt x="1107" y="1742" on="1"/>
        <pt x="1008" y="1923" on="0"/>
        <pt x="844" y="1923" on="1"/>
        <pt x="763" y="1923" on="0"/>
        <pt x="694" y="1903" on="1"/>
        <pt x="653" y="1907" on="0"/>
        <pt x="653" y="1937" on="1"/>
        <pt x="653" y="2015" on="0"/>
        <pt x="1033" y="2015" on="0"/>
        <pt x="1286" y="1646" on="0"/>
        <pt x="1286" y="1454" on="1"/>
        <pt x="1286" y="1077" on="0"/>
        <pt x="1086" y="393" on="0"/>
        <pt x="704" y="-49" on="0"/>
        <pt x="444" y="-49" on="1"/>
        <pt x="438" y="-49" on="0"/>
        <pt x="428" y="-47" on="0"/>
        <pt x="422" y="-47" on="1"/>
        <pt x="943" y="-643" on="0"/>
        <pt x="1548" y="-643" on="1"/>
        <pt x="1714" y="-643" on="0"/>
        <pt x="2073" y="-587" on="0"/>
      </contour>
    </TTGlyph>
    <TTGlyph name="R" xMin="8" yMin="-602" xMax="2187" yMax="2030">
      <contour>
        <pt x="334" y="934" on="1"/>
        <pt x="334" y="995" on="0"/>
        <pt x="368" y="995" on="1"/>
        <pt x="388" y="995" on="0"/>
        <pt x="400" y="983" on="0"/>
        <pt x="433" y="958" on="0"/>
        <pt x="588" y="958" on="0"/>
        <pt x="755" y="1046" on="0"/>
        <pt x="816" y="1120" on="1"/>
        <pt x="944" y="1277" on="0"/>
        <pt x="944" y="1493" on="1"/>
        <pt x="944" y="1661" on="0"/>
        <pt x="781" y="1894" on="0"/>
        <pt x="649" y="1894" on="1"/>
        <pt x="544" y="1894" on="0"/>
        <pt x="489" y="1878" on="1"/>
        <pt x="111" y="31" on="1"/>
        <pt x="100" y="-4" on="0"/>
        <pt x="8" y="-4" on="0"/>
        <pt x="8" y="29" on="1"/>
        <pt x="8" y="38" on="0"/>
        <pt x="14" y="61" on="0"/>
        <pt x="23" y="106" on="1"/>
        <pt x="45" y="219" on="0"/>
        <pt x="300" y="1436" on="0"/>
        <pt x="389" y="1831" on="1"/>
        <pt x="359" y="1812" on="0"/>
        <pt x="317" y="1774" on="1"/>
        <pt x="315" y="1752" on="0"/>
        <pt x="277" y="1720" on="0"/>
        <pt x="252" y="1720" on="1"/>
        <pt x="227" y="1726" on="1"/>
        <pt x="199" y="1739" on="0"/>
        <pt x="199" y="1768" on="1"/>
        <pt x="199" y="1824" on="0"/>
        <pt x="330" y="1919" on="0"/>
        <pt x="428" y="1944" on="1"/>
        <pt x="464" y="2030" on="0"/>
        <pt x="494" y="2030" on="1"/>
        <pt x="518" y="2030" on="0"/>
        <pt x="530" y="1962" on="1"/>
        <pt x="573" y="1968" on="0"/>
        <pt x="612" y="1968" on="1"/>
        <pt x="827" y="1968" on="0"/>
        <pt x="937" y="1816" on="1"/>
        <pt x="1028" y="1690" on="0"/>
        <pt x="1028" y="1483" on="1"/>
        <pt x="1028" y="1217" on="0"/>
        <pt x="715" y="862" on="0"/>
        <pt x="434" y="862" on="1"/>
        <pt x="434" y="520" on="0"/>
        <pt x="550" y="195" on="1"/>
        <pt x="685" y="-188" on="0"/>
        <pt x="960" y="-370" on="1"/>
        <pt x="1170" y="-510" on="0"/>
        <pt x="1740" y="-510" on="0"/>
        <pt x="1976" y="-318" on="1"/>
        <pt x="2047" y="-259" on="0"/>
        <pt x="2124" y="-190" on="1"/>
        <pt x="2132" y="-182" on="0"/>
        <pt x="2150" y="-182" on="1"/>
        <pt x="2187" y="-182" on="0"/>
        <pt x="2187" y="-219" on="1"/>
        <pt x="2187" y="-240" on="0"/>
        <pt x="2171" y="-260" on="1"/>
        <pt x="2019" y="-417" on="0"/>
        <pt x="1874" y="-495" on="1"/>
        <pt x="1676" y="-602" on="0"/>
        <pt x="1177" y="-602" on="0"/>
        <pt x="942" y="-458" on="1"/>
        <pt x="518" y="-196" on="0"/>
        <pt x="383" y="424" on="1"/>
        <pt x="334" y="649" on="0"/>
      </contour>
    </TTGlyph>
    <TTGlyph name="S" xMin="-14" yMin="-23" xMax="1186" yMax="1980">
      <contour>
        <pt x="862" y="1980" on="1"/>
        <pt x="1101" y="1980" on="0"/>
        <pt x="1178" y="1722" on="1"/>
        <pt x="1186" y="1709" on="0"/>
        <pt x="1186" y="1672" on="0"/>
        <pt x="1151" y="1640" on="0"/>
        <pt x="1133" y="1640" on="1"/>
        <pt x="1102" y="1640" on="0"/>
        <pt x="1096" y="1678" on="1"/>
        <pt x="1082" y="1768" on="0"/>
        <pt x="958" y="1894" on="0"/>
        <pt x="766" y="1894" on="0"/>
        <pt x="668" y="1760" on="0"/>
        <pt x="668" y="1578" on="0"/>
        <pt x="717" y="1386" on="0"/>
        <pt x="791" y="1194" on="0"/>
        <pt x="876" y="1002" on="0"/>
        <pt x="913" y="905" on="1"/>
        <pt x="999" y="680" on="0"/>
        <pt x="999" y="321" on="0"/>
        <pt x="900" y="172" on="1"/>
        <pt x="773" y="-23" on="0"/>
        <pt x="500" y="-23" on="1"/>
        <pt x="291" y="-23" on="0"/>
        <pt x="-14" y="185" on="0"/>
        <pt x="-14" y="573" on="0"/>
        <pt x="102" y="714" on="1"/>
        <pt x="144" y="765" on="0"/>
        <pt x="205" y="819" on="1"/>
        <pt x="225" y="836" on="0"/>
        <pt x="243" y="836" on="1"/>
        <pt x="283" y="836" on="0"/>
        <pt x="283" y="803" on="1"/>
        <pt x="283" y="786" on="0"/>
        <pt x="274" y="772" on="1"/>
        <pt x="172" y="678" on="0"/>
        <pt x="139" y="616" on="1"/>
        <pt x="84" y="508" on="0"/>
        <pt x="84" y="308" on="0"/>
        <pt x="154" y="188" on="0"/>
        <pt x="212" y="148" on="1"/>
        <pt x="326" y="68" on="0"/>
        <pt x="691" y="68" on="0"/>
        <pt x="804" y="212" on="1"/>
        <pt x="901" y="335" on="0"/>
        <pt x="901" y="690" on="0"/>
        <pt x="735" y="1076" on="1"/>
        <pt x="569" y="1462" on="0"/>
        <pt x="569" y="1763" on="0"/>
        <pt x="713" y="1980" on="0"/>
      </contour>
    </TTGlyph>
    <TTGlyph name="T" xMin="160" yMin="-78" xMax="1462" yMax="2040">
      <contour>
        <pt x="717" y="1862" on="1"/>
        <pt x="483" y="1868" on="0"/>
        <pt x="306" y="1868" on="0"/>
        <pt x="203" y="1862" on="1"/>
        <pt x="160" y="1866" on="0"/>
        <pt x="160" y="1896" on="1"/>
        <pt x="160" y="1953" on="0"/>
        <pt x="264" y="1960" on="1"/>
        <pt x="293" y="1962" on="0"/>
        <pt x="322" y="1962" on="1"/>
        <pt x="741" y="1954" on="1"/>
        <pt x="770" y="2040" on="0"/>
        <pt x="819" y="2040" on="1"/>
        <pt x="848" y="2040" on="0"/>
        <pt x="854" y="2005" on="1"/>
        <pt x="858" y="1964" on="1"/>
        <pt x="856" y="1954" on="1"/>
        <pt x="913" y="1956" on="0"/>
        <pt x="1002" y="1962" on="0"/>
        <pt x="1079" y="1967" on="0"/>
        <pt x="1233" y="1978" on="0"/>
        <pt x="1326" y="1978" on="1"/>
        <pt x="1400" y="1978" on="1"/>
        <pt x="1413" y="1978" on="0"/>
        <pt x="1427" y="1980" on="1"/>
        <pt x="1462" y="1971" on="0"/>
        <pt x="1462" y="1946" on="1"/>
        <pt x="1462" y="1884" on="0"/>
        <pt x="1362" y="1884" on="1"/>
        <pt x="1232" y="1884" on="0"/>
        <pt x="936" y="1864" on="0"/>
        <pt x="815" y="1862" on="1"/>
        <pt x="781" y="1693" on="0"/>
        <pt x="684" y="1270" on="0"/>
        <pt x="492" y="300" on="0"/>
        <pt x="440" y="-20" on="1"/>
        <pt x="435" y="-45" on="0"/>
        <pt x="400" y="-78" on="0"/>
        <pt x="384" y="-78" on="1"/>
        <pt x="350" y="-78" on="0"/>
        <pt x="346" y="-35" on="1"/>
        <pt x="407" y="471" on="0"/>
        <pt x="616" y="1361" on="1"/>
        <pt x="646" y="1491" on="0"/>
        <pt x="678" y="1611" on="0"/>
        <pt x="688" y="1675" on="0"/>
        <pt x="699" y="1748" on="0"/>
        <pt x="710" y="1825" on="0"/>
      </contour>
    </TTGlyph>
    <TTGlyph name="Thorn" xMin="47" yMin="-35" xMax="1323" yMax="2327">
      <contour>
        <pt x="584" y="2327" on="1"/>
        <pt x="621" y="2327" on="0"/>
        <pt x="621" y="2294" on="1"/>
        <pt x="621" y="2282" on="0"/>
        <pt x="618" y="2275" on="1"/>
        <pt x="612" y="2253" on="1"/>
        <pt x="612" y="2182" on="0"/>
        <pt x="566" y="2007" on="0"/>
        <pt x="537" y="1897" on="0"/>
        <pt x="528" y="1837" on="1"/>
        <pt x="710" y="1995" on="0"/>
        <pt x="860" y="1995" on="1"/>
        <pt x="1166" y="1995" on="0"/>
        <pt x="1278" y="1658" on="1"/>
        <pt x="1323" y="1521" on="0"/>
        <pt x="1323" y="1350" on="1"/>
        <pt x="1323" y="1014" on="0"/>
        <pt x="1057" y="633" on="0"/>
        <pt x="806" y="558" on="1"/>
        <pt x="591" y="492" on="0"/>
        <pt x="244" y="492" on="1"/>
        <pt x="141" y="20" on="1"/>
        <pt x="133" y="-4" on="0"/>
        <pt x="90" y="-35" on="0"/>
        <pt x="72" y="-35" on="1"/>
        <pt x="47" y="-35" on="0"/>
        <pt x="47" y="-8" on="1"/>
        <pt x="47" y="-5" on="0"/>
        <pt x="47" y="1" on="0"/>
        <pt x="49" y="6" on="1"/>
        <pt x="508" y="2210" on="1"/>
        <pt x="516" y="2242" on="0"/>
        <pt x="516" y="2290" on="0"/>
        <pt x="561" y="2327" on="0"/>
      </contour>
      <contour>
        <pt x="262" y="584" on="1"/>
        <pt x="566" y="584" on="0"/>
        <pt x="850" y="655" on="0"/>
        <pt x="940" y="706" on="1"/>
        <pt x="1233" y="870" on="0"/>
        <pt x="1233" y="1331" on="1"/>
        <pt x="1233" y="1738" on="0"/>
        <pt x="1043" y="1854" on="1"/>
        <pt x="971" y="1898" on="0"/>
        <pt x="732" y="1898" on="0"/>
        <pt x="583" y="1802" on="1"/>
        <pt x="539" y="1773" on="0"/>
        <pt x="510" y="1741" on="1"/>
      </contour>
    </TTGlyph>
    <TTGlyph name="U" xMin="100" yMin="-20" xMax="1382" yMax="1968">
      <contour>
        <pt x="1346" y="1968" on="1"/>
        <pt x="1382" y="1968" on="0"/>
        <pt x="1382" y="1933" on="1"/>
        <pt x="1382" y="1912" on="0"/>
        <pt x="1338" y="1807" on="0"/>
        <pt x="1308" y="1699" on="0"/>
        <pt x="1259" y="1489" on="0"/>
        <pt x="1206" y="1248" on="0"/>
        <pt x="1178" y="1120" on="1"/>
        <pt x="1077" y="646" on="0"/>
        <pt x="969" y="322" on="0"/>
        <pt x="926" y="241" on="1"/>
        <pt x="788" y="-20" on="0"/>
        <pt x="476" y="-20" on="1"/>
        <pt x="308" y="-20" on="0"/>
        <pt x="100" y="212" on="0"/>
        <pt x="100" y="373" on="1"/>
        <pt x="100" y="443" on="0"/>
        <pt x="117" y="492" on="1"/>
        <pt x="152" y="690" on="0"/>
        <pt x="213" y="1049" on="0"/>
        <pt x="316" y="1612" on="0"/>
        <pt x="406" y="1937" on="1"/>
        <pt x="427" y="1968" on="0"/>
        <pt x="450" y="1968" on="1"/>
        <pt x="494" y="1968" on="0"/>
        <pt x="494" y="1933" on="1"/>
        <pt x="492" y="1921" on="0"/>
        <pt x="483" y="1896" on="0"/>
        <pt x="479" y="1884" on="1"/>
        <pt x="440" y="1759" on="1"/>
        <pt x="396" y="1546" on="0"/>
        <pt x="261" y="797" on="0"/>
        <pt x="186" y="430" on="0"/>
        <pt x="186" y="352" on="1"/>
        <pt x="186" y="234" on="0"/>
        <pt x="338" y="74" on="0"/>
        <pt x="477" y="74" on="1"/>
        <pt x="695" y="74" on="0"/>
        <pt x="802" y="206" on="1"/>
        <pt x="861" y="278" on="0"/>
        <pt x="888" y="358" on="1"/>
        <pt x="932" y="487" on="1"/>
        <pt x="1000" y="694" on="0"/>
        <pt x="1211" y="1679" on="0"/>
        <pt x="1274" y="1888" on="1"/>
        <pt x="1285" y="1925" on="0"/>
        <pt x="1327" y="1968" on="0"/>
      </contour>
    </TTGlyph>
    <TTGlyph name="Uacute" xMin="100" yMin="-20" xMax="1382" yMax="2591">
      <component glyphName="U" x="0" y="0" flags="0x1204"/>
      <component glyphName="acute" x="123" y="6" flags="0x1004"/>
    </TTGlyph>
    <TTGlyph name="Ucircumflex" xMin="100" yMin="-20" xMax="1382" yMax="2478">
      <component glyphName="U" x="0" y="0" flags="0x1204"/>
      <component glyphName="circumflex" x="182" y="4" flags="0x1004"/>
    </TTGlyph>
    <TTGlyph name="Udieresis" xMin="100" yMin="-20" xMax="1382" yMax="2374">
      <component glyphName="U" x="0" y="0" flags="0x1204"/>
      <component glyphName="dieresis" x="309" y="4" flags="0x1004"/>
    </TTGlyph>
    <TTGlyph name="Ugrave" xMin="100" yMin="-20" xMax="1382" yMax="2560">
      <component glyphName="U" x="0" y="0" flags="0x1204"/>
      <component glyphName="grave" x="571" y="2" flags="0x1004"/>
    </TTGlyph>
    <TTGlyph name="V" xMin="162" yMin="-33" xMax="1210" yMax="2048">
      <contour>
        <pt x="162" y="1927" on="1"/>
        <pt x="168" y="1947" on="0"/>
        <pt x="203" y="1976" on="0"/>
        <pt x="218" y="1976" on="1"/>
        <pt x="247" y="1976" on="0"/>
        <pt x="256" y="1942" on="1"/>
        <pt x="287" y="1620" on="0"/>
        <pt x="478" y="430" on="0"/>
        <pt x="512" y="143" on="1"/>
        <pt x="868" y="705" on="0"/>
        <pt x="1010" y="1125" on="1"/>
        <pt x="1116" y="1439" on="0"/>
        <pt x="1116" y="1694" on="1"/>
        <pt x="1116" y="1766" on="0"/>
        <pt x="1088" y="1934" on="0"/>
        <pt x="1081" y="1985" on="1"/>
        <pt x="1081" y="2011" on="0"/>
        <pt x="1117" y="2048" on="0"/>
        <pt x="1134" y="2048" on="1"/>
        <pt x="1169" y="2048" on="0"/>
        <pt x="1176" y="2013" on="1"/>
        <pt x="1187" y="1939" on="0"/>
        <pt x="1210" y="1793" on="0"/>
        <pt x="1210" y="1681" on="1"/>
        <pt x="1210" y="1447" on="0"/>
        <pt x="998" y="814" on="0"/>
        <pt x="684" y="227" on="0"/>
        <pt x="509" y="0" on="1"/>
        <pt x="484" y="-33" on="0"/>
        <pt x="443" y="-33" on="0"/>
        <pt x="432" y="-4" on="1"/>
        <pt x="415" y="108" on="0"/>
        <pt x="383" y="424" on="0"/>
        <pt x="207" y="1566" on="0"/>
      </contour>
    </TTGlyph>
    <TTGlyph name="W" xMin="129" yMin="-31" xMax="1645" yMax="2529">
      <contour>
        <pt x="928" y="1440" on="1"/>
        <pt x="932" y="1320" on="0"/>
        <pt x="932" y="1276" on="1"/>
        <pt x="932" y="1098" on="1"/>
        <pt x="932" y="604" on="0"/>
        <pt x="986" y="336" on="1"/>
        <pt x="1011" y="215" on="0"/>
        <pt x="1053" y="119" on="1"/>
        <pt x="1363" y="680" on="0"/>
        <pt x="1468" y="1050" on="1"/>
        <pt x="1546" y="1323" on="0"/>
        <pt x="1546" y="1837" on="0"/>
        <pt x="1406" y="2110" on="1"/>
        <pt x="1305" y="2305" on="0"/>
        <pt x="1145" y="2390" on="1"/>
        <pt x="1062" y="2433" on="0"/>
        <pt x="961" y="2433" on="1"/>
        <pt x="931" y="2433" on="0"/>
        <pt x="888" y="2408" on="0"/>
        <pt x="877" y="2402" on="1"/>
        <pt x="846" y="2308" on="1"/>
        <pt x="826" y="2267" on="0"/>
        <pt x="788" y="2267" on="1"/>
        <pt x="758" y="2267" on="0"/>
        <pt x="754" y="2308" on="1"/>
        <pt x="760" y="2327" on="0"/>
        <pt x="768" y="2368" on="0"/>
        <pt x="774" y="2388" on="1"/>
        <pt x="812" y="2529" on="0"/>
        <pt x="1169" y="2529" on="0"/>
        <pt x="1473" y="2238" on="0"/>
        <pt x="1645" y="1806" on="0"/>
        <pt x="1645" y="1638" on="1"/>
        <pt x="1645" y="902" on="0"/>
        <pt x="1145" y="88" on="1"/>
        <pt x="1079" y="-20" on="0"/>
        <pt x="987" y="-20" on="0"/>
        <pt x="928" y="188" on="1"/>
        <pt x="838" y="522" on="0"/>
        <pt x="838" y="1114" on="1"/>
        <pt x="683" y="573" on="0"/>
        <pt x="504" y="213" on="1"/>
        <pt x="472" y="150" on="0"/>
        <pt x="442" y="90" on="1"/>
        <pt x="381" y="-31" on="0"/>
        <pt x="315" y="-31" on="1"/>
        <pt x="297" y="-31" on="0"/>
        <pt x="272" y="4" on="0"/>
        <pt x="272" y="35" on="1"/>
        <pt x="272" y="323" on="0"/>
        <pt x="219" y="815" on="0"/>
        <pt x="182" y="1103" on="0"/>
        <pt x="129" y="1588" on="0"/>
        <pt x="129" y="1864" on="1"/>
        <pt x="129" y="1927" on="0"/>
        <pt x="180" y="1964" on="0"/>
        <pt x="197" y="1964" on="1"/>
        <pt x="227" y="1964" on="0"/>
        <pt x="227" y="1927" on="1"/>
        <pt x="217" y="1800" on="1"/>
        <pt x="217" y="1736" on="0"/>
        <pt x="234" y="1543" on="0"/>
        <pt x="247" y="1258" on="0"/>
        <pt x="359" y="381" on="0"/>
        <pt x="371" y="143" on="1"/>
        <pt x="416" y="240" on="0"/>
        <pt x="493" y="405" on="0"/>
        <pt x="528" y="487" on="1"/>
        <pt x="665" y="809" on="0"/>
        <pt x="834" y="1442" on="1"/>
        <pt x="831" y="1544" on="0"/>
        <pt x="831" y="1816" on="0"/>
        <pt x="870" y="1952" on="0"/>
        <pt x="918" y="1952" on="1"/>
        <pt x="975" y="1952" on="0"/>
        <pt x="975" y="1767" on="1"/>
        <pt x="975" y="1644" on="0"/>
      </contour>
    </TTGlyph>
    <TTGlyph name="X" xMin="-115" yMin="-57" xMax="1413" yMax="2003">
      <contour>
        <pt x="395" y="1880" on="1"/>
        <pt x="367" y="1880" on="0"/>
        <pt x="367" y="1950" on="0"/>
        <pt x="420" y="2003" on="0"/>
        <pt x="434" y="2003" on="1"/>
        <pt x="452" y="2003" on="1"/>
        <pt x="456" y="2003" on="0"/>
        <pt x="474" y="1996" on="0"/>
        <pt x="521" y="1860" on="0"/>
        <pt x="583" y="1637" on="0"/>
        <pt x="659" y="1345" on="0"/>
        <pt x="702" y="1184" on="1"/>
        <pt x="1026" y="1643" on="0"/>
        <pt x="1252" y="1894" on="1"/>
        <pt x="1321" y="1970" on="0"/>
        <pt x="1363" y="1982" on="0"/>
        <pt x="1391" y="1982" on="0"/>
        <pt x="1413" y="1964" on="0"/>
        <pt x="1413" y="1934" on="0"/>
        <pt x="1359" y="1866" on="0"/>
        <pt x="1088" y="1550" on="0"/>
        <pt x="737" y="1055" on="1"/>
        <pt x="952" y="272" on="0"/>
        <pt x="1083" y="14" on="1"/>
        <pt x="1083" y="-15" on="0"/>
        <pt x="1042" y="-57" on="0"/>
        <pt x="996" y="-57" on="0"/>
        <pt x="987" y="-43" on="1"/>
        <pt x="985" y="-43" on="0"/>
        <pt x="985" y="-45" on="1"/>
        <pt x="973" y="3" on="0"/>
        <pt x="953" y="98" on="0"/>
        <pt x="938" y="143" on="1"/>
        <pt x="813" y="422" on="0"/>
        <pt x="662" y="946" on="1"/>
        <pt x="504" y="716" on="0"/>
        <pt x="179" y="243" on="0"/>
        <pt x="-4" y="0" on="1"/>
        <pt x="-21" y="-27" on="0"/>
        <pt x="-50" y="-27" on="1"/>
        <pt x="-115" y="-27" on="0"/>
        <pt x="-115" y="23" on="1"/>
        <pt x="-113" y="33" on="1"/>
        <pt x="98" y="301" on="0"/>
        <pt x="446" y="812" on="1"/>
        <pt x="536" y="944" on="0"/>
        <pt x="627" y="1075" on="1"/>
        <pt x="571" y="1271" on="0"/>
        <pt x="466" y="1655" on="0"/>
        <pt x="406" y="1841" on="1"/>
        <pt x="397" y="1880" on="1"/>
      </contour>
    </TTGlyph>
    <TTGlyph name="Y" xMin="98" yMin="-78" xMax="1141" yMax="1982">
      <contour>
        <pt x="172" y="-61" on="1"/>
        <pt x="165" y="-78" on="0"/>
        <pt x="135" y="-78" on="1"/>
        <pt x="98" y="-78" on="0"/>
        <pt x="98" y="-41" on="1"/>
        <pt x="98" y="8" on="0"/>
        <pt x="170" y="25" on="1"/>
        <pt x="210" y="34" on="0"/>
        <pt x="285" y="51" on="0"/>
        <pt x="324" y="59" on="1"/>
        <pt x="371" y="190" on="0"/>
        <pt x="409" y="425" on="0"/>
        <pt x="429" y="582" on="0"/>
        <pt x="442" y="674" on="1"/>
        <pt x="354" y="788" on="0"/>
        <pt x="216" y="1574" on="1"/>
        <pt x="181" y="1776" on="0"/>
        <pt x="162" y="1917" on="1"/>
        <pt x="162" y="1943" on="0"/>
        <pt x="192" y="1982" on="0"/>
        <pt x="238" y="1982" on="0"/>
        <pt x="260" y="1964" on="1"/>
        <pt x="268" y="1953" on="0"/>
        <pt x="268" y="1920" on="0"/>
        <pt x="258" y="1907" on="1"/>
        <pt x="270" y="1821" on="0"/>
        <pt x="283" y="1725" on="1"/>
        <pt x="372" y="1069" on="0"/>
        <pt x="489" y="778" on="1"/>
        <pt x="535" y="880" on="0"/>
        <pt x="743" y="1423" on="0"/>
        <pt x="936" y="1808" on="0"/>
        <pt x="1065" y="1964" on="1"/>
        <pt x="1078" y="1980" on="0"/>
        <pt x="1100" y="1980" on="1"/>
        <pt x="1141" y="1980" on="0"/>
        <pt x="1141" y="1946" on="1"/>
        <pt x="1141" y="1924" on="0"/>
        <pt x="1124" y="1905" on="1"/>
        <pt x="958" y="1727" on="0"/>
        <pt x="785" y="1286" on="1"/>
        <pt x="738" y="1167" on="0"/>
        <pt x="587" y="767" on="0"/>
        <pt x="551" y="696" on="1"/>
        <pt x="520" y="576" on="0"/>
        <pt x="448" y="190" on="0"/>
        <pt x="418" y="74" on="1"/>
        <pt x="470" y="80" on="0"/>
        <pt x="520" y="80" on="1"/>
        <pt x="719" y="80" on="0"/>
        <pt x="719" y="25" on="1"/>
        <pt x="719" y="3" on="0"/>
        <pt x="678" y="-31" on="0"/>
        <pt x="653" y="-31" on="1"/>
        <pt x="590" y="-14" on="0"/>
        <pt x="391" y="-14" on="0"/>
        <pt x="190" y="-63" on="0"/>
        <pt x="178" y="-63" on="1"/>
        <pt x="172" y="-63" on="1"/>
      </contour>
    </TTGlyph>
    <TTGlyph name="Yacute" xMin="98" yMin="-78" xMax="1141" yMax="2591">
      <component glyphName="Y" x="0" y="0" flags="0x1204"/>
      <component glyphName="acute" x="-137" y="6" flags="0x1004"/>
    </TTGlyph>
    <TTGlyph name="Z" xMin="-152" yMin="-508" xMax="1720" yMax="1993">
      <contour>
        <pt x="1247" y="1952" on="1"/>
        <pt x="1247" y="1932" on="0"/>
        <pt x="1239" y="1919" on="1"/>
        <pt x="689" y="1046" on="0"/>
        <pt x="41" y="150" on="1"/>
        <pt x="65" y="158" on="0"/>
        <pt x="122" y="158" on="1"/>
        <pt x="222" y="158" on="0"/>
        <pt x="595" y="-209" on="0"/>
        <pt x="963" y="-410" on="0"/>
        <pt x="1333" y="-410" on="0"/>
        <pt x="1495" y="-309" on="1"/>
        <pt x="1516" y="-296" on="0"/>
        <pt x="1569" y="-252" on="0"/>
        <pt x="1660" y="-178" on="0"/>
        <pt x="1720" y="-178" on="0"/>
        <pt x="1720" y="-244" on="0"/>
        <pt x="1670" y="-287" on="1"/>
        <pt x="1583" y="-360" on="0"/>
        <pt x="1526" y="-389" on="1"/>
        <pt x="1280" y="-508" on="0"/>
        <pt x="1108" y="-508" on="1"/>
        <pt x="860" y="-508" on="0"/>
        <pt x="557" y="-286" on="1"/>
        <pt x="397" y="-168" on="0"/>
        <pt x="289" y="-51" on="0"/>
        <pt x="250" y="-16" on="1"/>
        <pt x="155" y="68" on="0"/>
        <pt x="68" y="68" on="1"/>
        <pt x="34" y="68" on="0"/>
        <pt x="-55" y="16" on="0"/>
        <pt x="-98" y="-8" on="0"/>
        <pt x="-115" y="-8" on="1"/>
        <pt x="-152" y="-8" on="0"/>
        <pt x="-152" y="29" on="1"/>
        <pt x="-152" y="45" on="0"/>
        <pt x="-139" y="66" on="1"/>
        <pt x="-9" y="256" on="0"/>
        <pt x="301" y="677" on="0"/>
        <pt x="466" y="906" on="1"/>
        <pt x="873" y="1473" on="0"/>
        <pt x="1112" y="1894" on="1"/>
        <pt x="1067" y="1890" on="1"/>
        <pt x="799" y="1870" on="0"/>
        <pt x="506" y="1870" on="1"/>
        <pt x="356" y="1870" on="1"/>
        <pt x="234" y="1870" on="0"/>
        <pt x="166" y="1882" on="1"/>
        <pt x="137" y="1893" on="0"/>
        <pt x="137" y="1951" on="0"/>
        <pt x="174" y="1969" on="1"/>
        <pt x="185" y="1974" on="0"/>
        <pt x="197" y="1974" on="1"/>
        <pt x="535" y="1962" on="1"/>
        <pt x="800" y="1962" on="0"/>
        <pt x="1079" y="1993" on="0"/>
        <pt x="1247" y="1993" on="0"/>
      </contour>
    </TTGlyph>
    <TTGlyph name="a" xMin="33" yMin="-4" xMax="823" yMax="1032">
      <contour>
        <pt x="150" y="0" on="1"/>
        <pt x="33" y="0" on="0"/>
        <pt x="33" y="294" on="0"/>
        <pt x="252" y="721" on="0"/>
        <pt x="548" y="1032" on="0"/>
        <pt x="735" y="1032" on="0"/>
        <pt x="748" y="950" on="1"/>
        <pt x="752" y="925" on="0"/>
        <pt x="754" y="897" on="1"/>
        <pt x="763" y="903" on="0"/>
        <pt x="776" y="903" on="1"/>
        <pt x="823" y="903" on="0"/>
        <pt x="823" y="858" on="1"/>
        <pt x="823" y="850" on="1"/>
        <pt x="823" y="847" on="0"/>
        <pt x="773" y="673" on="0"/>
        <pt x="709" y="267" on="0"/>
        <pt x="709" y="123" on="1"/>
        <pt x="718" y="117" on="0"/>
        <pt x="742" y="102" on="0"/>
        <pt x="778" y="71" on="0"/>
        <pt x="778" y="29" on="0"/>
        <pt x="752" y="-4" on="0"/>
        <pt x="728" y="-4" on="1"/>
        <pt x="679" y="-4" on="0"/>
        <pt x="600" y="96" on="0"/>
        <pt x="600" y="154" on="1"/>
        <pt x="600" y="279" on="0"/>
        <pt x="668" y="584" on="1"/>
        <pt x="583" y="406" on="0"/>
        <pt x="313" y="76" on="0"/>
        <pt x="210" y="0" on="0"/>
      </contour>
      <contour>
        <pt x="135" y="143" on="1"/>
        <pt x="135" y="106" on="0"/>
        <pt x="166" y="106" on="1"/>
        <pt x="188" y="106" on="0"/>
        <pt x="203" y="121" on="1"/>
        <pt x="410" y="299" on="0"/>
        <pt x="574" y="614" on="1"/>
        <pt x="667" y="794" on="0"/>
        <pt x="678" y="848" on="0"/>
        <pt x="678" y="886" on="0"/>
        <pt x="658" y="920" on="0"/>
        <pt x="622" y="920" on="0"/>
        <pt x="587" y="901" on="1"/>
        <pt x="510" y="859" on="0"/>
        <pt x="285" y="585" on="0"/>
        <pt x="135" y="263" on="0"/>
      </contour>
    </TTGlyph>
    <TTGlyph name="aacute" xMin="33" yMin="-4" xMax="940" yMax="1676">
      <component glyphName="a" x="0" y="0" flags="0x1204"/>
      <component glyphName="acute" x="-115" y="-909" flags="0x1004"/>
    </TTGlyph>
    <TTGlyph name="acircumflex" xMin="33" yMin="-4" xMax="926" yMax="1563">
      <component glyphName="a" x="0" y="0" flags="0x1204"/>
      <component glyphName="circumflex" x="-55" y="-911" flags="0x1004"/>
    </TTGlyph>
    <TTGlyph name="acute" xMin="760" yMin="2107" xMax="1055" yMax="2585">
      <contour>
        <pt x="806" y="2107" on="1"/>
        <pt x="760" y="2107" on="0"/>
        <pt x="760" y="2154" on="1"/>
        <pt x="760" y="2169" on="0"/>
        <pt x="803" y="2229" on="0"/>
        <pt x="854" y="2320" on="0"/>
        <pt x="900" y="2415" on="0"/>
        <pt x="944" y="2509" on="0"/>
        <pt x="967" y="2554" on="1"/>
        <pt x="990" y="2585" on="0"/>
        <pt x="1018" y="2585" on="1"/>
        <pt x="1055" y="2585" on="0"/>
        <pt x="1055" y="2550" on="1"/>
        <pt x="1055" y="2534" on="0"/>
        <pt x="1024" y="2476" on="0"/>
        <pt x="980" y="2381" on="0"/>
        <pt x="902" y="2221" on="0"/>
        <pt x="852" y="2157" on="1"/>
        <pt x="849" y="2137" on="0"/>
        <pt x="819" y="2107" on="0"/>
      </contour>
    </TTGlyph>
    <TTGlyph name="adieresis" xMin="33" yMin="-4" xMax="971" yMax="1459">
      <component glyphName="a" x="0" y="0" flags="0x1204"/>
      <component glyphName="dieresis" x="70" y="-911" flags="0x1004"/>
    </TTGlyph>
    <TTGlyph name="ae" xMin="33" yMin="-20" xMax="1094" yMax="1047">
      <contour>
        <pt x="750" y="937" on="1"/>
        <pt x="854" y="1047" on="0"/>
        <pt x="961" y="1047" on="1"/>
        <pt x="1023" y="1047" on="0"/>
        <pt x="1094" y="944" on="0"/>
        <pt x="1094" y="874" on="1"/>
        <pt x="1094" y="744" on="0"/>
        <pt x="957" y="561" on="0"/>
        <pt x="757" y="445" on="0"/>
        <pt x="627" y="393" on="1"/>
        <pt x="623" y="246" on="1"/>
        <pt x="623" y="74" on="0"/>
        <pt x="727" y="74" on="1"/>
        <pt x="784" y="74" on="0"/>
        <pt x="905" y="139" on="0"/>
        <pt x="960" y="168" on="0"/>
        <pt x="975" y="168" on="1"/>
        <pt x="1010" y="168" on="0"/>
        <pt x="1010" y="131" on="1"/>
        <pt x="1010" y="88" on="0"/>
        <pt x="800" y="-20" on="0"/>
        <pt x="660" y="-20" on="0"/>
        <pt x="625" y="3" on="1"/>
        <pt x="524" y="69" on="0"/>
        <pt x="524" y="287" on="1"/>
        <pt x="524" y="315" on="0"/>
        <pt x="526" y="343" on="1"/>
        <pt x="423" y="198" on="0"/>
        <pt x="313" y="83" on="1"/>
        <pt x="233" y="0" on="0"/>
        <pt x="91" y="0" on="0"/>
        <pt x="33" y="75" on="0"/>
        <pt x="33" y="146" on="1"/>
        <pt x="33" y="295" on="0"/>
        <pt x="252" y="721" on="0"/>
        <pt x="548" y="1032" on="0"/>
        <pt x="647" y="1032" on="1"/>
        <pt x="721" y="1032" on="0"/>
        <pt x="741" y="975" on="1"/>
        <pt x="747" y="958" on="0"/>
      </contour>
      <contour>
        <pt x="135" y="143" on="1"/>
        <pt x="135" y="106" on="0"/>
        <pt x="166" y="106" on="1"/>
        <pt x="188" y="106" on="0"/>
        <pt x="203" y="121" on="1"/>
        <pt x="412" y="302" on="0"/>
        <pt x="581" y="629" on="1"/>
        <pt x="621" y="748" on="0"/>
        <pt x="676" y="836" on="1"/>
        <pt x="678" y="850" on="0"/>
        <pt x="678" y="886" on="0"/>
        <pt x="658" y="920" on="0"/>
        <pt x="622" y="920" on="0"/>
        <pt x="587" y="901" on="1"/>
        <pt x="510" y="859" on="0"/>
        <pt x="285" y="585" on="0"/>
        <pt x="135" y="263" on="0"/>
      </contour>
      <contour>
        <pt x="935" y="950" on="1"/>
        <pt x="882" y="950" on="0"/>
        <pt x="818" y="875" on="1"/>
        <pt x="823" y="863" on="0"/>
        <pt x="823" y="844" on="0"/>
        <pt x="821" y="842" on="1"/>
        <pt x="768" y="786" on="0"/>
        <pt x="736" y="749" on="1"/>
        <pt x="660" y="597" on="0"/>
        <pt x="643" y="492" on="1"/>
        <pt x="703" y="524" on="0"/>
        <pt x="829" y="584" on="0"/>
        <pt x="933" y="666" on="0"/>
        <pt x="999" y="782" on="0"/>
        <pt x="999" y="950" on="0"/>
      </contour>
    </TTGlyph>
    <TTGlyph name="agrave" xMin="33" yMin="-4" xMax="823" yMax="1645">
      <component glyphName="a" x="0" y="0" flags="0x1204"/>
      <component glyphName="grave" x="332" y="-913" flags="0x1004"/>
    </TTGlyph>
    <TTGlyph name="ampersand" xMin="96" yMin="-25" xMax="1653" yMax="1987">
      <contour>
        <pt x="514" y="1348" on="1"/>
        <pt x="348" y="1488" on="0"/>
        <pt x="348" y="1680" on="1"/>
        <pt x="348" y="1739" on="0"/>
        <pt x="413" y="1861" on="0"/>
        <pt x="468" y="1902" on="1"/>
        <pt x="578" y="1987" on="0"/>
        <pt x="745" y="1987" on="1"/>
        <pt x="976" y="1987" on="0"/>
        <pt x="1110" y="1868" on="1"/>
        <pt x="1157" y="1827" on="0"/>
        <pt x="1186" y="1769" on="1"/>
        <pt x="1188" y="1757" on="1"/>
        <pt x="1188" y="1721" on="0"/>
        <pt x="1150" y="1703" on="1"/>
        <pt x="1140" y="1698" on="0"/>
        <pt x="1130" y="1698" on="1"/>
        <pt x="1107" y="1698" on="0"/>
        <pt x="1094" y="1731" on="1"/>
        <pt x="1068" y="1802" on="0"/>
        <pt x="890" y="1892" on="0"/>
        <pt x="641" y="1892" on="0"/>
        <pt x="438" y="1772" on="0"/>
        <pt x="438" y="1663" on="1"/>
        <pt x="438" y="1524" on="0"/>
        <pt x="552" y="1431" on="1"/>
        <pt x="593" y="1397" on="0"/>
        <pt x="653" y="1376" on="1"/>
        <pt x="672" y="1376" on="1"/>
        <pt x="770" y="1376" on="0"/>
        <pt x="817" y="1332" on="1"/>
        <pt x="834" y="1316" on="0"/>
        <pt x="834" y="1270" on="0"/>
        <pt x="796" y="1239" on="0"/>
        <pt x="770" y="1239" on="1"/>
        <pt x="646" y="1263" on="0"/>
        <pt x="616" y="1278" on="1"/>
        <pt x="442" y="1258" on="0"/>
        <pt x="193" y="953" on="0"/>
        <pt x="193" y="750" on="1"/>
        <pt x="193" y="460" on="0"/>
        <pt x="517" y="74" on="0"/>
        <pt x="1013" y="74" on="0"/>
        <pt x="1200" y="224" on="1"/>
        <pt x="1322" y="321" on="0"/>
        <pt x="1372" y="464" on="1"/>
        <pt x="1397" y="536" on="0"/>
        <pt x="1397" y="608" on="1"/>
        <pt x="1397" y="742" on="0"/>
        <pt x="1294" y="903" on="0"/>
        <pt x="1184" y="958" on="1"/>
        <pt x="1019" y="886" on="0"/>
        <pt x="955" y="722" on="1"/>
        <pt x="934" y="668" on="0"/>
        <pt x="934" y="544" on="0"/>
        <pt x="971" y="496" on="1"/>
        <pt x="979" y="485" on="0"/>
        <pt x="979" y="446" on="0"/>
        <pt x="946" y="412" on="0"/>
        <pt x="924" y="412" on="1"/>
        <pt x="884" y="412" on="0"/>
        <pt x="860" y="480" on="1"/>
        <pt x="840" y="531" on="0"/>
        <pt x="840" y="591" on="1"/>
        <pt x="840" y="712" on="0"/>
        <pt x="993" y="939" on="0"/>
        <pt x="1108" y="1018" on="1"/>
        <pt x="1149" y="1046" on="0"/>
        <pt x="1338" y="1114" on="0"/>
        <pt x="1387" y="1135" on="1"/>
        <pt x="1561" y="1210" on="0"/>
        <pt x="1561" y="1354" on="1"/>
        <pt x="1542" y="1520" on="1"/>
        <pt x="1548" y="1540" on="0"/>
        <pt x="1583" y="1569" on="0"/>
        <pt x="1598" y="1569" on="1"/>
        <pt x="1653" y="1569" on="0"/>
        <pt x="1653" y="1340" on="1"/>
        <pt x="1653" y="1306" on="0"/>
        <pt x="1609" y="1204" on="0"/>
        <pt x="1564" y="1156" on="1"/>
        <pt x="1463" y="1052" on="0"/>
        <pt x="1286" y="999" on="1"/>
        <pt x="1455" y="905" on="0"/>
        <pt x="1482" y="734" on="1"/>
        <pt x="1491" y="682" on="0"/>
        <pt x="1491" y="608" on="1"/>
        <pt x="1491" y="448" on="0"/>
        <pt x="1280" y="152" on="0"/>
        <pt x="939" y="-25" on="0"/>
        <pt x="778" y="-25" on="1"/>
        <pt x="474" y="-25" on="0"/>
        <pt x="96" y="414" on="0"/>
        <pt x="96" y="739" on="1"/>
        <pt x="96" y="896" on="0"/>
        <pt x="221" y="1140" on="0"/>
        <pt x="278" y="1197" on="1"/>
        <pt x="377" y="1296" on="0"/>
      </contour>
    </TTGlyph>
    <TTGlyph name="aring" xMin="33" yMin="-4" xMax="843" yMax="1506">
      <component glyphName="a" x="0" y="0" flags="0x1204"/>
      <component glyphName="ring" x="-31" y="-911" flags="0x1004"/>
    </TTGlyph>
    <TTGlyph name="asciicircum" xMin="205" yMin="1831" xMax="1198" yMax="2580">
      <contour>
        <pt x="905" y="2554" on="1"/>
        <pt x="905" y="2545" on="0"/>
        <pt x="901" y="2531" on="1"/>
        <pt x="879" y="2490" on="1"/>
        <pt x="877" y="2486" on="0"/>
        <pt x="877" y="2480" on="1"/>
        <pt x="890" y="2435" on="0"/>
        <pt x="920" y="2327" on="0"/>
        <pt x="980" y="2138" on="0"/>
        <pt x="1032" y="2057" on="1"/>
        <pt x="1098" y="1951" on="0"/>
        <pt x="1182" y="1921" on="1"/>
        <pt x="1198" y="1908" on="0"/>
        <pt x="1198" y="1871" on="0"/>
        <pt x="1147" y="1831" on="0"/>
        <pt x="1120" y="1831" on="1"/>
        <pt x="984" y="1882" on="0"/>
        <pt x="900" y="2076" on="1"/>
        <pt x="877" y="2130" on="0"/>
        <pt x="834" y="2234" on="0"/>
        <pt x="789" y="2336" on="0"/>
        <pt x="782" y="2390" on="1"/>
        <pt x="721" y="2324" on="1"/>
        <pt x="673" y="2271" on="0"/>
        <pt x="620" y="2210" on="1"/>
        <pt x="412" y="1971" on="0"/>
        <pt x="254" y="1907" on="1"/>
        <pt x="242" y="1903" on="0"/>
        <pt x="231" y="1903" on="1"/>
        <pt x="205" y="1903" on="0"/>
        <pt x="205" y="1927" on="1"/>
        <pt x="205" y="1973" on="0"/>
        <pt x="264" y="1996" on="1"/>
        <pt x="385" y="2046" on="0"/>
        <pt x="708" y="2423" on="1"/>
        <pt x="746" y="2468" on="0"/>
        <pt x="774" y="2499" on="1"/>
        <pt x="815" y="2544" on="1"/>
        <pt x="815" y="2546" on="0"/>
        <pt x="842" y="2580" on="0"/>
        <pt x="905" y="2580" on="0"/>
      </contour>
    </TTGlyph>
    <TTGlyph name="asciitilde" xMin="61" yMin="371" xMax="1157" yMax="758">
      <contour>
        <pt x="1157" y="684" on="1"/>
        <pt x="1157" y="670" on="0"/>
        <pt x="1149" y="655" on="1"/>
        <pt x="1067" y="506" on="1"/>
        <pt x="1028" y="433" on="0"/>
        <pt x="938" y="428" on="1"/>
        <pt x="844" y="428" on="0"/>
        <pt x="680" y="528" on="1"/>
        <pt x="637" y="554" on="0"/>
        <pt x="509" y="635" on="0"/>
        <pt x="449" y="653" on="0"/>
        <pt x="412" y="653" on="1"/>
        <pt x="326" y="653" on="0"/>
        <pt x="160" y="519" on="0"/>
        <pt x="156" y="428" on="1"/>
        <pt x="153" y="403" on="0"/>
        <pt x="115" y="371" on="0"/>
        <pt x="96" y="371" on="1"/>
        <pt x="65" y="371" on="0"/>
        <pt x="61" y="414" on="1"/>
        <pt x="74" y="539" on="0"/>
        <pt x="295" y="758" on="0"/>
        <pt x="422" y="758" on="1"/>
        <pt x="474" y="758" on="0"/>
        <pt x="559" y="718" on="0"/>
        <pt x="887" y="526" on="0"/>
        <pt x="966" y="526" on="0"/>
        <pt x="1020" y="566" on="0"/>
        <pt x="1042" y="622" on="1"/>
        <pt x="1077" y="719" on="0"/>
        <pt x="1122" y="719" on="1"/>
        <pt x="1157" y="719" on="0"/>
      </contour>
    </TTGlyph>
    <TTGlyph name="asterisk" xMin="131" yMin="1186" xMax="705" yMax="1751">
      <contour>
        <pt x="287" y="1204" on="1"/>
        <pt x="250" y="1204" on="0"/>
        <pt x="250" y="1239" on="1"/>
        <pt x="250" y="1248" on="0"/>
        <pt x="254" y="1262" on="1"/>
        <pt x="356" y="1423" on="1"/>
        <pt x="273" y="1405" on="0"/>
        <pt x="203" y="1356" on="1"/>
        <pt x="179" y="1343" on="0"/>
        <pt x="151" y="1343" on="0"/>
        <pt x="131" y="1365" on="0"/>
        <pt x="131" y="1404" on="0"/>
        <pt x="156" y="1425" on="1"/>
        <pt x="247" y="1484" on="0"/>
        <pt x="332" y="1509" on="1"/>
        <pt x="317" y="1529" on="0"/>
        <pt x="260" y="1648" on="0"/>
        <pt x="240" y="1673" on="1"/>
        <pt x="236" y="1683" on="0"/>
        <pt x="236" y="1717" on="0"/>
        <pt x="267" y="1751" on="0"/>
        <pt x="308" y="1751" on="0"/>
        <pt x="345" y="1708" on="0"/>
        <pt x="381" y="1645" on="0"/>
        <pt x="415" y="1574" on="0"/>
        <pt x="430" y="1546" on="1"/>
        <pt x="430" y="1544" on="1"/>
        <pt x="490" y="1640" on="0"/>
        <pt x="524" y="1708" on="1"/>
        <pt x="545" y="1739" on="0"/>
        <pt x="575" y="1739" on="1"/>
        <pt x="612" y="1739" on="0"/>
        <pt x="612" y="1704" on="1"/>
        <pt x="612" y="1682" on="0"/>
        <pt x="544" y="1567" on="0"/>
        <pt x="524" y="1532" on="1"/>
        <pt x="647" y="1545" on="0"/>
        <pt x="655" y="1546" on="1"/>
        <pt x="705" y="1546" on="0"/>
        <pt x="705" y="1516" on="1"/>
        <pt x="705" y="1499" on="0"/>
        <pt x="677" y="1462" on="0"/>
        <pt x="655" y="1454" on="1"/>
        <pt x="610" y="1448" on="0"/>
        <pt x="533" y="1443" on="0"/>
        <pt x="496" y="1440" on="1"/>
        <pt x="541" y="1368" on="0"/>
        <pt x="635" y="1270" on="1"/>
        <pt x="643" y="1260" on="0"/>
        <pt x="643" y="1220" on="0"/>
        <pt x="610" y="1186" on="0"/>
        <pt x="571" y="1186" on="0"/>
        <pt x="557" y="1200" on="1"/>
        <pt x="467" y="1299" on="0"/>
        <pt x="420" y="1366" on="1"/>
        <pt x="334" y="1229" on="1"/>
        <pt x="317" y="1204" on="0"/>
      </contour>
    </TTGlyph>
    <TTGlyph name="at" xMin="20" yMin="-170" xMax="1720" yMax="1923">
      <contour>
        <pt x="666" y="293" on="1"/>
        <pt x="530" y="293" on="0"/>
        <pt x="530" y="786" on="0"/>
        <pt x="594" y="998" on="1"/>
        <pt x="730" y="1442" on="0"/>
        <pt x="936" y="1442" on="1"/>
        <pt x="966" y="1442" on="0"/>
        <pt x="1016" y="1411" on="0"/>
        <pt x="1045" y="1392" on="0"/>
        <pt x="1062" y="1386" on="1"/>
        <pt x="1096" y="1376" on="0"/>
        <pt x="1096" y="1316" on="0"/>
        <pt x="1058" y="1298" on="1"/>
        <pt x="1046" y="1292" on="0"/>
        <pt x="1014" y="1292" on="0"/>
        <pt x="932" y="1346" on="0"/>
        <pt x="873" y="1346" on="0"/>
        <pt x="805" y="1279" on="0"/>
        <pt x="729" y="1138" on="0"/>
        <pt x="625" y="756" on="0"/>
        <pt x="625" y="399" on="0"/>
        <pt x="680" y="399" on="1"/>
        <pt x="782" y="399" on="0"/>
        <pt x="965" y="872" on="1"/>
        <pt x="976" y="902" on="0"/>
        <pt x="988" y="948" on="1"/>
        <pt x="1036" y="1139" on="0"/>
        <pt x="1106" y="1139" on="1"/>
        <pt x="1153" y="1139" on="0"/>
        <pt x="1153" y="946" on="1"/>
        <pt x="1151" y="748" on="1"/>
        <pt x="1151" y="568" on="0"/>
        <pt x="1191" y="512" on="1"/>
        <pt x="1208" y="489" on="0"/>
        <pt x="1237" y="489" on="1"/>
        <pt x="1365" y="489" on="0"/>
        <pt x="1465" y="578" on="1"/>
        <pt x="1638" y="731" on="0"/>
        <pt x="1638" y="1018" on="1"/>
        <pt x="1638" y="1098" on="0"/>
        <pt x="1595" y="1311" on="0"/>
        <pt x="1554" y="1404" on="1"/>
        <pt x="1472" y="1596" on="0"/>
        <pt x="1173" y="1823" on="0"/>
        <pt x="983" y="1823" on="1"/>
        <pt x="720" y="1823" on="0"/>
        <pt x="331" y="1563" on="0"/>
        <pt x="123" y="1131" on="0"/>
        <pt x="123" y="881" on="1"/>
        <pt x="123" y="229" on="0"/>
        <pt x="510" y="16" on="1"/>
        <pt x="669" y="-72" on="0"/>
        <pt x="874" y="-72" on="1"/>
        <pt x="1137" y="-72" on="0"/>
        <pt x="1332" y="88" on="1"/>
        <pt x="1437" y="174" on="0"/>
        <pt x="1589" y="359" on="0"/>
        <pt x="1638" y="416" on="1"/>
        <pt x="1658" y="432" on="0"/>
        <pt x="1679" y="432" on="1"/>
        <pt x="1714" y="432" on="0"/>
        <pt x="1714" y="397" on="1"/>
        <pt x="1714" y="376" on="0"/>
        <pt x="1698" y="356" on="1"/>
        <pt x="1642" y="292" on="0"/>
        <pt x="1537" y="164" on="0"/>
        <pt x="1481" y="106" on="1"/>
        <pt x="1355" y="-26" on="0"/>
        <pt x="1056" y="-170" on="0"/>
        <pt x="633" y="-170" on="0"/>
        <pt x="454" y="-62" on="1"/>
        <pt x="150" y="121" on="0"/>
        <pt x="54" y="534" on="1"/>
        <pt x="20" y="680" on="0"/>
        <pt x="20" y="836" on="1"/>
        <pt x="20" y="1133" on="0"/>
        <pt x="239" y="1621" on="0"/>
        <pt x="670" y="1923" on="0"/>
        <pt x="973" y="1923" on="1"/>
        <pt x="1312" y="1923" on="0"/>
        <pt x="1720" y="1411" on="0"/>
        <pt x="1720" y="952" on="1"/>
        <pt x="1720" y="788" on="0"/>
        <pt x="1610" y="611" on="1"/>
        <pt x="1529" y="480" on="0"/>
        <pt x="1400" y="423" on="1"/>
        <pt x="1332" y="393" on="0"/>
        <pt x="1256" y="393" on="1"/>
        <pt x="1127" y="393" on="0"/>
        <pt x="1083" y="520" on="1"/>
        <pt x="1055" y="601" on="0"/>
        <pt x="1055" y="764" on="1"/>
        <pt x="1055" y="836" on="1"/>
        <pt x="906" y="418" on="0"/>
        <pt x="744" y="317" on="1"/>
        <pt x="706" y="293" on="0"/>
      </contour>
    </TTGlyph>
    <TTGlyph name="atilde" xMin="33" yMin="-4" xMax="973" yMax="1481">
      <component glyphName="a" x="0" y="0" flags="0x1204"/>
      <component glyphName="tilde" x="-100" y="-911" flags="0x1004"/>
    </TTGlyph>
    <TTGlyph name="b" xMin="152" yMin="-20" xMax="743" yMax="1966">
      <contour>
        <pt x="530" y="1921" on="1"/>
        <pt x="526" y="1907" on="1"/>
        <pt x="473" y="1559" on="0"/>
        <pt x="350" y="1003" on="0"/>
        <pt x="303" y="776" on="1"/>
        <pt x="366" y="889" on="0"/>
        <pt x="409" y="936" on="1"/>
        <pt x="495" y="1030" on="0"/>
        <pt x="657" y="1030" on="0"/>
        <pt x="743" y="906" on="0"/>
        <pt x="743" y="838" on="1"/>
        <pt x="743" y="690" on="0"/>
        <pt x="650" y="283" on="0"/>
        <pt x="569" y="149" on="1"/>
        <pt x="468" y="-20" on="0"/>
        <pt x="338" y="-20" on="1"/>
        <pt x="244" y="-20" on="0"/>
        <pt x="152" y="148" on="0"/>
        <pt x="152" y="368" on="0"/>
        <pt x="183" y="572" on="0"/>
        <pt x="219" y="800" on="0"/>
        <pt x="252" y="989" on="0"/>
        <pt x="282" y="1149" on="0"/>
        <pt x="313" y="1300" on="0"/>
        <pt x="393" y="1687" on="0"/>
        <pt x="436" y="1933" on="1"/>
        <pt x="453" y="1966" on="0"/>
        <pt x="477" y="1966" on="1"/>
        <pt x="530" y="1966" on="0"/>
      </contour>
      <contour>
        <pt x="256" y="258" on="1"/>
        <pt x="256" y="84" on="0"/>
        <pt x="338" y="84" on="1"/>
        <pt x="413" y="84" on="0"/>
        <pt x="486" y="206" on="1"/>
        <pt x="585" y="371" on="0"/>
        <pt x="624" y="615" on="1"/>
        <pt x="635" y="684" on="0"/>
        <pt x="635" y="839" on="0"/>
        <pt x="607" y="930" on="0"/>
        <pt x="563" y="930" on="1"/>
        <pt x="498" y="930" on="0"/>
        <pt x="286" y="624" on="0"/>
        <pt x="256" y="327" on="0"/>
      </contour>
    </TTGlyph>
    <TTGlyph name="backslash" xMin="-236" yMin="-922" xMax="1034" yMax="2089">
      <contour>
        <pt x="997" y="-922" on="1"/>
        <pt x="956" y="-915" on="0"/>
        <pt x="914" y="-865" on="0"/>
        <pt x="882" y="-791" on="0"/>
        <pt x="860" y="-702" on="0"/>
        <pt x="842" y="-617" on="0"/>
        <pt x="827" y="-543" on="0"/>
        <pt x="767" y="-381" on="0"/>
        <pt x="642" y="-113" on="0"/>
        <pt x="366" y="518" on="0"/>
        <pt x="291" y="709" on="1"/>
        <pt x="106" y="1167" on="1"/>
        <pt x="75" y="1243" on="0"/>
        <pt x="-73" y="1632" on="0"/>
        <pt x="-189" y="1935" on="0"/>
        <pt x="-236" y="2047" on="0"/>
        <pt x="-236" y="2054" on="1"/>
        <pt x="-236" y="2089" on="0"/>
        <pt x="-159" y="2089" on="0"/>
        <pt x="-143" y="2050" on="1"/>
        <pt x="-45" y="1805" on="0"/>
        <pt x="441" y="555" on="0"/>
        <pt x="724" y="-76" on="0"/>
        <pt x="934" y="-552" on="0"/>
        <pt x="950" y="-648" on="1"/>
        <pt x="956" y="-679" on="0"/>
        <pt x="973" y="-786" on="0"/>
        <pt x="997" y="-834" on="1"/>
        <pt x="1034" y="-855" on="0"/>
        <pt x="1034" y="-922" on="0"/>
      </contour>
    </TTGlyph>
    <TTGlyph name="bar" xMin="18" yMin="-305" xMax="633" yMax="2454">
      <contour>
        <pt x="45" y="-305" on="1"/>
        <pt x="22" y="-305" on="0"/>
        <pt x="18" y="-276" on="1"/>
        <pt x="18" y="-266" on="0"/>
        <pt x="20" y="-262" on="1"/>
        <pt x="18" y="-262" on="1"/>
        <pt x="18" y="-261" on="1"/>
        <pt x="20" y="-260" on="1"/>
        <pt x="33" y="-161" on="0"/>
        <pt x="122" y="238" on="0"/>
        <pt x="447" y="1982" on="0"/>
        <pt x="535" y="2404" on="1"/>
        <pt x="546" y="2424" on="0"/>
        <pt x="587" y="2454" on="0"/>
        <pt x="604" y="2454" on="1"/>
        <pt x="630" y="2454" on="0"/>
        <pt x="633" y="2419" on="1"/>
        <pt x="553" y="2039" on="0"/>
        <pt x="218" y="246" on="0"/>
        <pt x="131" y="-133" on="0"/>
        <pt x="119" y="-229" on="1"/>
        <pt x="119" y="-236" on="1"/>
        <pt x="119" y="-273" on="0"/>
        <pt x="72" y="-298" on="1"/>
        <pt x="59" y="-305" on="0"/>
      </contour>
    </TTGlyph>
    <TTGlyph name="braceleft" xMin="33" yMin="-608" xMax="690" yMax="1974">
      <contour>
        <pt x="137" y="-608" on="1"/>
        <pt x="33" y="-608" on="0"/>
        <pt x="33" y="-74" on="0"/>
        <pt x="152" y="369" on="1"/>
        <pt x="175" y="461" on="0"/>
        <pt x="190" y="516" on="1"/>
        <pt x="198" y="550" on="1"/>
        <pt x="205" y="579" on="0"/>
        <pt x="210" y="610" on="0"/>
        <pt x="217" y="638" on="0"/>
        <pt x="217" y="642" on="1"/>
        <pt x="217" y="649" on="1"/>
        <pt x="217" y="662" on="0"/>
        <pt x="208" y="662" on="1"/>
        <pt x="143" y="653" on="1"/>
        <pt x="116" y="653" on="0"/>
        <pt x="108" y="668" on="0"/>
        <pt x="104" y="680" on="0"/>
        <pt x="98" y="688" on="1"/>
        <pt x="107" y="729" on="0"/>
        <pt x="164" y="758" on="1"/>
        <pt x="187" y="769" on="0"/>
        <pt x="233" y="791" on="0"/>
        <pt x="275" y="847" on="0"/>
        <pt x="300" y="933" on="0"/>
        <pt x="311" y="1023" on="0"/>
        <pt x="311" y="1067" on="1"/>
        <pt x="311" y="1328" on="0"/>
        <pt x="327" y="1476" on="1"/>
        <pt x="373" y="1903" on="0"/>
        <pt x="628" y="1972" on="1"/>
        <pt x="638" y="1974" on="0"/>
        <pt x="647" y="1974" on="1"/>
        <pt x="690" y="1974" on="0"/>
        <pt x="690" y="1903" on="0"/>
        <pt x="642" y="1884" on="1"/>
        <pt x="629" y="1878" on="0"/>
        <pt x="616" y="1878" on="1"/>
        <pt x="608" y="1878" on="1"/>
        <pt x="538" y="1864" on="0"/>
        <pt x="500" y="1800" on="1"/>
        <pt x="500" y="1798" on="1"/>
        <pt x="443" y="1699" on="0"/>
        <pt x="432" y="1490" on="1"/>
        <pt x="427" y="1399" on="0"/>
        <pt x="420" y="1067" on="0"/>
        <pt x="381" y="890" on="0"/>
        <pt x="333" y="786" on="0"/>
        <pt x="287" y="745" on="1"/>
        <pt x="317" y="727" on="0"/>
        <pt x="317" y="601" on="0"/>
        <pt x="256" y="394" on="1"/>
        <pt x="127" y="-38" on="0"/>
        <pt x="127" y="-303" on="1"/>
        <pt x="127" y="-419" on="0"/>
        <pt x="158" y="-477" on="1"/>
        <pt x="164" y="-488" on="0"/>
        <pt x="187" y="-500" on="0"/>
        <pt x="197" y="-508" on="1"/>
        <pt x="272" y="-487" on="1"/>
        <pt x="315" y="-487" on="0"/>
        <pt x="315" y="-514" on="1"/>
        <pt x="315" y="-550" on="0"/>
        <pt x="192" y="-608" on="0"/>
      </contour>
      <contour>
        <pt x="164" y="674" on="1"/>
        <pt x="166" y="674" on="1"/>
      </contour>
      <contour>
        <pt x="500" y="1800" on="1"/>
        <pt x="500" y="1798" on="1"/>
      </contour>
    </TTGlyph>
    <TTGlyph name="braceright" xMin="-522" yMin="-1024" xMax="618" yMax="1954">
      <contour>
        <pt x="408" y="1858" on="1"/>
        <pt x="319" y="1853" on="1"/>
        <pt x="285" y="1857" on="0"/>
        <pt x="285" y="1878" on="1"/>
        <pt x="285" y="1954" on="0"/>
        <pt x="455" y="1954" on="1"/>
        <pt x="618" y="1954" on="0"/>
        <pt x="618" y="1720" on="1"/>
        <pt x="618" y="1545" on="0"/>
        <pt x="549" y="1315" on="1"/>
        <pt x="519" y="1215" on="0"/>
        <pt x="451" y="1016" on="0"/>
        <pt x="421" y="917" on="1"/>
        <pt x="352" y="689" on="0"/>
        <pt x="352" y="520" on="1"/>
        <pt x="352" y="509" on="0"/>
        <pt x="354" y="488" on="0"/>
        <pt x="354" y="477" on="1"/>
        <pt x="382" y="487" on="0"/>
        <pt x="438" y="487" on="0"/>
        <pt x="438" y="423" on="0"/>
        <pt x="350" y="374" on="0"/>
        <pt x="342" y="367" on="1"/>
        <pt x="284" y="299" on="0"/>
        <pt x="195" y="-431" on="0"/>
        <pt x="162" y="-556" on="1"/>
        <pt x="101" y="-791" on="0"/>
        <pt x="-76" y="-1024" on="0"/>
        <pt x="-358" y="-1024" on="0"/>
        <pt x="-462" y="-956" on="1"/>
        <pt x="-522" y="-917" on="0"/>
        <pt x="-522" y="-865" on="0"/>
        <pt x="-476" y="-823" on="0"/>
        <pt x="-437" y="-823" on="0"/>
        <pt x="-426" y="-831" on="1"/>
        <pt x="-321" y="-934" on="0"/>
        <pt x="-184" y="-934" on="1"/>
        <pt x="-37" y="-934" on="0"/>
        <pt x="16" y="-734" on="1"/>
        <pt x="62" y="-559" on="0"/>
        <pt x="134" y="-103" on="0"/>
        <pt x="154" y="-6" on="1"/>
        <pt x="152" y="-16" on="0"/>
        <pt x="145" y="-33" on="1"/>
        <pt x="151" y="14" on="0"/>
        <pt x="157" y="69" on="1"/>
        <pt x="181" y="287" on="0"/>
        <pt x="264" y="391" on="1"/>
        <pt x="238" y="414" on="0"/>
        <pt x="238" y="549" on="0"/>
        <pt x="267" y="681" on="0"/>
        <pt x="284" y="782" on="0"/>
        <pt x="332" y="941" on="0"/>
        <pt x="387" y="1098" on="0"/>
        <pt x="443" y="1256" on="0"/>
        <pt x="516" y="1522" on="0"/>
        <pt x="516" y="1816" on="0"/>
        <pt x="461" y="1846" on="1"/>
        <pt x="440" y="1858" on="0"/>
      </contour>
    </TTGlyph>
    <TTGlyph name="bracketleft" xMin="-45" yMin="-641" xMax="827" yMax="1978">
      <contour>
        <pt x="766" y="1853" on="1"/>
        <pt x="752" y="1853" on="0"/>
        <pt x="541" y="1872" on="1"/>
        <pt x="298" y="731" on="0"/>
        <pt x="158" y="36" on="0"/>
        <pt x="79" y="-351" on="0"/>
        <pt x="57" y="-543" on="1"/>
        <pt x="70" y="-549" on="0"/>
        <pt x="156" y="-549" on="0"/>
        <pt x="430" y="-481" on="0"/>
        <pt x="485" y="-481" on="0"/>
        <pt x="485" y="-504" on="1"/>
        <pt x="483" y="-521" on="0"/>
        <pt x="450" y="-565" on="0"/>
        <pt x="383" y="-583" on="0"/>
        <pt x="175" y="-641" on="0"/>
        <pt x="33" y="-641" on="0"/>
        <pt x="-36" y="-626" on="0"/>
        <pt x="-45" y="-598" on="1"/>
        <pt x="-23" y="-394" on="0"/>
        <pt x="18" y="-192" on="1"/>
        <pt x="245" y="946" on="0"/>
        <pt x="461" y="1929" on="1"/>
        <pt x="470" y="1949" on="0"/>
        <pt x="512" y="1978" on="0"/>
        <pt x="544" y="1978" on="0"/>
        <pt x="549" y="1968" on="1"/>
        <pt x="614" y="1965" on="0"/>
        <pt x="736" y="1950" on="0"/>
        <pt x="801" y="1948" on="1"/>
        <pt x="827" y="1943" on="0"/>
        <pt x="827" y="1890" on="0"/>
        <pt x="789" y="1864" on="1"/>
        <pt x="778" y="1857" on="0"/>
      </contour>
    </TTGlyph>
    <TTGlyph name="bracketright" xMin="-61" yMin="-356" xMax="563" yMax="1985">
      <contour>
        <pt x="-25" y="-356" on="1"/>
        <pt x="-61" y="-356" on="0"/>
        <pt x="-61" y="-319" on="1"/>
        <pt x="-61" y="-290" on="0"/>
        <pt x="45" y="-181" on="0"/>
        <pt x="77" y="-150" on="1"/>
        <pt x="180" y="-50" on="0"/>
        <pt x="258" y="97" on="1"/>
        <pt x="465" y="484" on="0"/>
        <pt x="465" y="1289" on="0"/>
        <pt x="272" y="1651" on="1"/>
        <pt x="255" y="1683" on="0"/>
        <pt x="166" y="1846" on="0"/>
        <pt x="145" y="1919" on="1"/>
        <pt x="145" y="1944" on="0"/>
        <pt x="179" y="1985" on="0"/>
        <pt x="220" y="1985" on="0"/>
        <pt x="236" y="1962" on="1"/>
        <pt x="258" y="1885" on="0"/>
        <pt x="404" y="1633" on="0"/>
        <pt x="428" y="1564" on="1"/>
        <pt x="500" y="1359" on="0"/>
        <pt x="562" y="1109" on="0"/>
        <pt x="562" y="971" on="1"/>
        <pt x="562" y="966" on="0"/>
        <pt x="562" y="962" on="1"/>
        <pt x="562" y="698" on="0"/>
        <pt x="442" y="220" on="0"/>
        <pt x="229" y="-100" on="0"/>
        <pt x="173" y="-169" on="0"/>
        <pt x="127" y="-219" on="0"/>
        <pt x="61" y="-289" on="0"/>
        <pt x="10" y="-344" on="1"/>
        <pt x="-8" y="-356" on="0"/>
      </contour>
    </TTGlyph>
    <TTGlyph name="brokenbar" xMin="18" yMin="-797" xMax="717" yMax="2058">
      <contour>
        <pt x="350" y="809" on="1"/>
        <pt x="324" y="809" on="0"/>
        <pt x="324" y="840" on="1"/>
        <pt x="324" y="848" on="0"/>
        <pt x="378" y="1019" on="0"/>
        <pt x="512" y="1585" on="0"/>
        <pt x="588" y="1867" on="0"/>
        <pt x="618" y="2009" on="1"/>
        <pt x="647" y="2058" on="0"/>
        <pt x="714" y="2058" on="0"/>
        <pt x="717" y="2023" on="1"/>
        <pt x="685" y="1881" on="0"/>
        <pt x="610" y="1600" on="0"/>
        <pt x="538" y="1309" on="0"/>
        <pt x="469" y="1014" on="0"/>
        <pt x="422" y="866" on="1"/>
        <pt x="414" y="842" on="0"/>
        <pt x="369" y="809" on="0"/>
      </contour>
      <contour>
        <pt x="18" y="-764" on="1"/>
        <pt x="110" y="-276" on="1"/>
        <pt x="171" y="25" on="0"/>
        <pt x="207" y="267" on="0"/>
        <pt x="215" y="278" on="1"/>
        <pt x="242" y="317" on="0"/>
        <pt x="305" y="317" on="0"/>
        <pt x="305" y="283" on="1"/>
        <pt x="281" y="76" on="0"/>
        <pt x="193" y="-355" on="0"/>
        <pt x="140" y="-612" on="0"/>
        <pt x="119" y="-739" on="1"/>
        <pt x="109" y="-764" on="0"/>
        <pt x="66" y="-797" on="0"/>
        <pt x="47" y="-797" on="1"/>
        <pt x="18" y="-797" on="0"/>
      </contour>
    </TTGlyph>
    <TTGlyph name="bullet" xMin="215" yMin="475" xMax="705" yMax="961">
      <contour>
        <pt x="391" y="475" on="1"/>
        <pt x="263" y="475" on="0"/>
        <pt x="226" y="650" on="1"/>
        <pt x="215" y="708" on="0"/>
        <pt x="215" y="760" on="1"/>
        <pt x="215" y="849" on="0"/>
        <pt x="369" y="961" on="0"/>
        <pt x="553" y="961" on="0"/>
        <pt x="605" y="926" on="1"/>
        <pt x="705" y="859" on="0"/>
        <pt x="705" y="665" on="0"/>
        <pt x="501" y="475" on="0"/>
      </contour>
    </TTGlyph>
    <TTGlyph name="c" xMin="61" yMin="-25" xMax="694" yMax="1047">
      <contour>
        <pt x="162" y="258" on="1"/>
        <pt x="162" y="76" on="0"/>
        <pt x="295" y="76" on="1"/>
        <pt x="361" y="76" on="0"/>
        <pt x="419" y="140" on="1"/>
        <pt x="441" y="165" on="0"/>
        <pt x="479" y="205" on="0"/>
        <pt x="499" y="205" on="1"/>
        <pt x="539" y="205" on="0"/>
        <pt x="539" y="170" on="1"/>
        <pt x="539" y="106" on="0"/>
        <pt x="375" y="-25" on="0"/>
        <pt x="168" y="-25" on="0"/>
        <pt x="61" y="128" on="0"/>
        <pt x="61" y="224" on="1"/>
        <pt x="61" y="403" on="0"/>
        <pt x="194" y="787" on="0"/>
        <pt x="411" y="1047" on="0"/>
        <pt x="532" y="1047" on="1"/>
        <pt x="620" y="1047" on="0"/>
        <pt x="648" y="984" on="1"/>
        <pt x="655" y="967" on="0"/>
        <pt x="674" y="914" on="0"/>
        <pt x="686" y="907" on="1"/>
        <pt x="694" y="894" on="0"/>
        <pt x="694" y="857" on="0"/>
        <pt x="660" y="825" on="0"/>
        <pt x="639" y="825" on="1"/>
        <pt x="596" y="825" on="0"/>
        <pt x="572" y="952" on="0"/>
        <pt x="517" y="952" on="1"/>
        <pt x="440" y="952" on="0"/>
        <pt x="275" y="718" on="0"/>
        <pt x="162" y="384" on="0"/>
      </contour>
    </TTGlyph>
    <TTGlyph name="caron" xMin="383" yMin="2068" xMax="1044" yMax="2583">
      <contour>
        <pt x="592" y="2150" on="1"/>
        <pt x="517" y="2292" on="0"/>
        <pt x="438" y="2333" on="1"/>
        <pt x="414" y="2345" on="0"/>
        <pt x="383" y="2363" on="0"/>
        <pt x="383" y="2403" on="0"/>
        <pt x="419" y="2435" on="0"/>
        <pt x="446" y="2435" on="1"/>
        <pt x="500" y="2435" on="0"/>
        <pt x="627" y="2289" on="0"/>
        <pt x="676" y="2204" on="1"/>
        <pt x="783" y="2382" on="0"/>
        <pt x="969" y="2566" on="1"/>
        <pt x="989" y="2583" on="0"/>
        <pt x="1007" y="2583" on="1"/>
        <pt x="1044" y="2583" on="0"/>
        <pt x="1044" y="2548" on="1"/>
        <pt x="1044" y="2527" on="0"/>
        <pt x="1028" y="2507" on="1"/>
        <pt x="826" y="2300" on="0"/>
        <pt x="731" y="2134" on="1"/>
        <pt x="714" y="2103" on="0"/>
        <pt x="683" y="2068" on="0"/>
        <pt x="637" y="2068" on="0"/>
        <pt x="612" y="2113" on="0"/>
      </contour>
    </TTGlyph>
    <TTGlyph name="ccedilla" xMin="61" yMin="-590" xMax="694" yMax="1047">
      <contour>
        <pt x="236" y="-272" on="1"/>
        <pt x="199" y="-272" on="0"/>
        <pt x="199" y="-207" on="0"/>
        <pt x="226" y="-176" on="1"/>
        <pt x="246" y="-138" on="0"/>
        <pt x="281" y="-58" on="0"/>
        <pt x="303" y="-22" on="1"/>
        <pt x="282" y="-25" on="0"/>
        <pt x="246" y="-25" on="1"/>
        <pt x="169" y="-25" on="0"/>
        <pt x="61" y="128" on="0"/>
        <pt x="61" y="224" on="1"/>
        <pt x="61" y="403" on="0"/>
        <pt x="194" y="787" on="0"/>
        <pt x="411" y="1047" on="0"/>
        <pt x="532" y="1047" on="1"/>
        <pt x="620" y="1047" on="0"/>
        <pt x="648" y="984" on="1"/>
        <pt x="655" y="967" on="0"/>
        <pt x="674" y="914" on="0"/>
        <pt x="686" y="907" on="1"/>
        <pt x="694" y="894" on="0"/>
        <pt x="694" y="857" on="0"/>
        <pt x="660" y="825" on="0"/>
        <pt x="639" y="825" on="1"/>
        <pt x="596" y="825" on="0"/>
        <pt x="572" y="952" on="0"/>
        <pt x="517" y="952" on="1"/>
        <pt x="440" y="952" on="0"/>
        <pt x="275" y="718" on="0"/>
        <pt x="162" y="384" on="0"/>
        <pt x="162" y="258" on="1"/>
        <pt x="162" y="76" on="0"/>
        <pt x="295" y="76" on="1"/>
        <pt x="361" y="76" on="0"/>
        <pt x="419" y="140" on="1"/>
        <pt x="441" y="165" on="0"/>
        <pt x="479" y="205" on="0"/>
        <pt x="499" y="205" on="1"/>
        <pt x="539" y="205" on="0"/>
        <pt x="539" y="170" on="1"/>
        <pt x="539" y="107" on="0"/>
        <pt x="462" y="45" on="1"/>
        <pt x="438" y="25" on="0"/>
        <pt x="407" y="9" on="1"/>
        <pt x="408" y="2" on="1"/>
        <pt x="408" y="-14" on="0"/>
        <pt x="383" y="-52" on="0"/>
        <pt x="355" y="-113" on="1"/>
        <pt x="439" y="-117" on="0"/>
        <pt x="580" y="-269" on="0"/>
        <pt x="580" y="-435" on="0"/>
        <pt x="442" y="-590" on="0"/>
        <pt x="316" y="-590" on="1"/>
        <pt x="262" y="-590" on="0"/>
        <pt x="212" y="-574" on="1"/>
        <pt x="115" y="-541" on="0"/>
        <pt x="115" y="-504" on="1"/>
        <pt x="115" y="-484" on="0"/>
        <pt x="149" y="-451" on="0"/>
        <pt x="172" y="-451" on="1"/>
        <pt x="187" y="-453" on="1"/>
        <pt x="273" y="-496" on="0"/>
        <pt x="393" y="-496" on="0"/>
        <pt x="484" y="-422" on="0"/>
        <pt x="484" y="-329" on="0"/>
        <pt x="454" y="-287" on="1"/>
        <pt x="397" y="-205" on="0"/>
        <pt x="338" y="-205" on="1"/>
        <pt x="304" y="-205" on="0"/>
        <pt x="283" y="-248" on="1"/>
        <pt x="279" y="-246" on="1"/>
        <pt x="255" y="-272" on="0"/>
      </contour>
    </TTGlyph>
    <TTGlyph name="cedilla" xMin="381" yMin="-590" xMax="846" yMax="35">
      <contour>
        <pt x="502" y="-272" on="1"/>
        <pt x="465" y="-272" on="0"/>
        <pt x="465" y="-207" on="0"/>
        <pt x="492" y="-176" on="1"/>
        <pt x="518" y="-127" on="0"/>
        <pt x="564" y="-25" on="0"/>
        <pt x="596" y="18" on="1"/>
        <pt x="615" y="35" on="0"/>
        <pt x="637" y="35" on="1"/>
        <pt x="674" y="35" on="0"/>
        <pt x="674" y="2" on="1"/>
        <pt x="674" y="-14" on="0"/>
        <pt x="649" y="-52" on="0"/>
        <pt x="621" y="-113" on="1"/>
        <pt x="705" y="-117" on="0"/>
        <pt x="846" y="-269" on="0"/>
        <pt x="846" y="-435" on="0"/>
        <pt x="708" y="-590" on="0"/>
        <pt x="582" y="-590" on="1"/>
        <pt x="528" y="-590" on="0"/>
        <pt x="478" y="-574" on="1"/>
        <pt x="381" y="-541" on="0"/>
        <pt x="381" y="-504" on="1"/>
        <pt x="381" y="-484" on="0"/>
        <pt x="415" y="-451" on="0"/>
        <pt x="438" y="-451" on="1"/>
        <pt x="453" y="-453" on="1"/>
        <pt x="539" y="-496" on="0"/>
        <pt x="659" y="-496" on="0"/>
        <pt x="750" y="-422" on="0"/>
        <pt x="750" y="-329" on="0"/>
        <pt x="720" y="-287" on="1"/>
        <pt x="663" y="-205" on="0"/>
        <pt x="604" y="-205" on="1"/>
        <pt x="570" y="-205" on="0"/>
        <pt x="549" y="-248" on="1"/>
        <pt x="545" y="-246" on="1"/>
        <pt x="521" y="-272" on="0"/>
      </contour>
    </TTGlyph>
    <TTGlyph name="cent" xMin="61" yMin="-236" xMax="694" yMax="1241">
      <contour>
        <pt x="184" y="-236" on="1"/>
        <pt x="150" y="-236" on="0"/>
        <pt x="150" y="-203" on="1"/>
        <pt x="150" y="-176" on="0"/>
        <pt x="207" y="-61" on="0"/>
        <pt x="219" y="-20" on="1"/>
        <pt x="147" y="-5" on="0"/>
        <pt x="61" y="142" on="0"/>
        <pt x="61" y="228" on="1"/>
        <pt x="61" y="389" on="0"/>
        <pt x="176" y="745" on="0"/>
        <pt x="367" y="1009" on="0"/>
        <pt x="479" y="1038" on="1"/>
        <pt x="526" y="1146" on="0"/>
        <pt x="536" y="1180" on="1"/>
        <pt x="553" y="1235" on="0"/>
        <pt x="602" y="1241" on="1"/>
        <pt x="614" y="1241" on="0"/>
        <pt x="633" y="1223" on="0"/>
        <pt x="633" y="1204" on="1"/>
        <pt x="633" y="1140" on="0"/>
        <pt x="578" y="1040" on="1"/>
        <pt x="630" y="1028" on="0"/>
        <pt x="653" y="972" on="1"/>
        <pt x="662" y="950" on="0"/>
        <pt x="674" y="913" on="0"/>
        <pt x="686" y="907" on="1"/>
        <pt x="694" y="894" on="0"/>
        <pt x="694" y="857" on="0"/>
        <pt x="660" y="825" on="0"/>
        <pt x="639" y="825" on="1"/>
        <pt x="596" y="825" on="0"/>
        <pt x="572" y="952" on="0"/>
        <pt x="514" y="952" on="1"/>
        <pt x="430" y="952" on="0"/>
        <pt x="260" y="717" on="0"/>
        <pt x="152" y="384" on="0"/>
        <pt x="152" y="163" on="0"/>
        <pt x="204" y="109" on="1"/>
        <pt x="223" y="90" on="0"/>
        <pt x="250" y="82" on="1"/>
        <pt x="270" y="102" on="0"/>
        <pt x="313" y="102" on="0"/>
        <pt x="324" y="78" on="1"/>
        <pt x="389" y="87" on="0"/>
        <pt x="435" y="148" on="1"/>
        <pt x="452" y="170" on="0"/>
        <pt x="481" y="205" on="0"/>
        <pt x="500" y="205" on="1"/>
        <pt x="539" y="205" on="0"/>
        <pt x="539" y="119" on="0"/>
        <pt x="401" y="-3" on="0"/>
        <pt x="311" y="-18" on="1"/>
        <pt x="275" y="-155" on="0"/>
        <pt x="220" y="-216" on="1"/>
        <pt x="202" y="-236" on="0"/>
      </contour>
    </TTGlyph>
    <TTGlyph name="circumflex" xMin="494" yMin="2068" xMax="981" yMax="2474">
      <contour>
        <pt x="821" y="2435" on="1"/>
        <pt x="819" y="2410" on="1"/>
        <pt x="819" y="2363" on="0"/>
        <pt x="915" y="2190" on="0"/>
        <pt x="973" y="2150" on="1"/>
        <pt x="981" y="2137" on="0"/>
        <pt x="981" y="2100" on="0"/>
        <pt x="947" y="2068" on="0"/>
        <pt x="924" y="2068" on="1"/>
        <pt x="881" y="2068" on="0"/>
        <pt x="767" y="2222" on="0"/>
        <pt x="737" y="2308" on="1"/>
        <pt x="729" y="2296" on="0"/>
        <pt x="723" y="2284" on="1"/>
        <pt x="694" y="2226" on="0"/>
        <pt x="565" y="2083" on="1"/>
        <pt x="547" y="2071" on="0"/>
        <pt x="530" y="2071" on="1"/>
        <pt x="494" y="2071" on="0"/>
        <pt x="494" y="2136" on="0"/>
        <pt x="639" y="2301" on="0"/>
        <pt x="685" y="2383" on="0"/>
        <pt x="703" y="2410" on="1"/>
        <pt x="747" y="2474" on="0"/>
        <pt x="821" y="2474" on="0"/>
      </contour>
    </TTGlyph>
    <TTGlyph name="colon" xMin="-18" yMin="-39" xMax="391" yMax="926">
      <contour>
        <pt x="326" y="711" on="0"/>
        <pt x="276" y="688" on="0"/>
        <pt x="220" y="688" on="0"/>
        <pt x="166" y="738" on="0"/>
        <pt x="166" y="833" on="0"/>
        <pt x="232" y="926" on="0"/>
        <pt x="313" y="926" on="0"/>
        <pt x="391" y="861" on="0"/>
        <pt x="391" y="795" on="0"/>
        <pt x="366" y="748" on="0"/>
      </contour>
      <contour>
        <pt x="76" y="-39" on="1"/>
        <pt x="54" y="-36" on="0"/>
        <pt x="47" y="-31" on="1"/>
        <pt x="45" y="-31" on="1"/>
        <pt x="26" y="-31" on="0"/>
        <pt x="-18" y="57" on="0"/>
        <pt x="-18" y="137" on="0"/>
        <pt x="36" y="180" on="0"/>
        <pt x="119" y="180" on="0"/>
        <pt x="205" y="119" on="0"/>
        <pt x="205" y="45" on="0"/>
        <pt x="182" y="18" on="1"/>
        <pt x="135" y="-34" on="0"/>
      </contour>
    </TTGlyph>
    <TTGlyph name="comma" xMin="-78" yMin="-381" xMax="190" yMax="131">
      <contour>
        <pt x="-41" y="-381" on="1"/>
        <pt x="-78" y="-381" on="0"/>
        <pt x="-78" y="-344" on="1"/>
        <pt x="-78" y="-329" on="0"/>
        <pt x="-66" y="-309" on="1"/>
        <pt x="-20" y="-257" on="0"/>
        <pt x="81" y="-57" on="0"/>
        <pt x="90" y="-35" on="1"/>
        <pt x="90" y="-28" on="0"/>
        <pt x="76" y="-21" on="0"/>
        <pt x="76" y="-10" on="1"/>
        <pt x="58" y="-18" on="0"/>
        <pt x="41" y="-18" on="1"/>
        <pt x="0" y="-18" on="0"/>
        <pt x="0" y="25" on="1"/>
        <pt x="0" y="61" on="0"/>
        <pt x="55" y="131" on="0"/>
        <pt x="103" y="131" on="1"/>
        <pt x="190" y="131" on="0"/>
        <pt x="190" y="20" on="1"/>
        <pt x="190" y="-62" on="0"/>
        <pt x="55" y="-297" on="0"/>
        <pt x="-6" y="-369" on="1"/>
        <pt x="-24" y="-381" on="0"/>
      </contour>
    </TTGlyph>
    <TTGlyph name="copyright" xMin="158" yMin="977" xMax="1171" yMax="1966">
      <contour>
        <pt x="848" y="1853" on="1"/>
        <pt x="760" y="1866" on="1"/>
        <pt x="631" y="1866" on="0"/>
        <pt x="488" y="1788" on="1"/>
        <pt x="292" y="1682" on="0"/>
        <pt x="260" y="1530" on="1"/>
        <pt x="250" y="1486" on="0"/>
        <pt x="250" y="1359" on="0"/>
        <pt x="304" y="1225" on="0"/>
        <pt x="352" y="1176" on="1"/>
        <pt x="453" y="1073" on="0"/>
        <pt x="784" y="1073" on="0"/>
        <pt x="933" y="1214" on="1"/>
        <pt x="1023" y="1299" on="0"/>
        <pt x="1062" y="1411" on="1"/>
        <pt x="1081" y="1466" on="0"/>
        <pt x="1081" y="1576" on="0"/>
        <pt x="1063" y="1644" on="0"/>
        <pt x="1028" y="1697" on="0"/>
        <pt x="976" y="1750" on="0"/>
        <pt x="942" y="1790" on="1"/>
        <pt x="938" y="1800" on="0"/>
        <pt x="938" y="1833" on="0"/>
        <pt x="970" y="1868" on="0"/>
        <pt x="1015" y="1868" on="0"/>
        <pt x="1125" y="1753" on="0"/>
        <pt x="1143" y="1712" on="1"/>
        <pt x="1171" y="1636" on="0"/>
        <pt x="1171" y="1562" on="1"/>
        <pt x="1171" y="1414" on="0"/>
        <pt x="1024" y="1146" on="0"/>
        <pt x="763" y="977" on="0"/>
        <pt x="600" y="977" on="1"/>
        <pt x="393" y="977" on="0"/>
        <pt x="158" y="1231" on="0"/>
        <pt x="158" y="1580" on="0"/>
        <pt x="352" y="1827" on="0"/>
        <pt x="653" y="1964" on="0"/>
        <pt x="811" y="1966" on="1"/>
        <pt x="831" y="1966" on="0"/>
        <pt x="869" y="1950" on="0"/>
        <pt x="889" y="1944" on="1"/>
        <pt x="911" y="1929" on="0"/>
        <pt x="911" y="1888" on="0"/>
        <pt x="872" y="1853" on="0"/>
      </contour>
      <contour>
        <pt x="725" y="1268" on="1"/>
        <pt x="725" y="1206" on="0"/>
        <pt x="525" y="1206" on="0"/>
        <pt x="416" y="1352" on="0"/>
        <pt x="416" y="1416" on="1"/>
        <pt x="416" y="1538" on="0"/>
        <pt x="624" y="1743" on="0"/>
        <pt x="741" y="1743" on="1"/>
        <pt x="814" y="1743" on="0"/>
        <pt x="864" y="1704" on="1"/>
        <pt x="872" y="1691" on="0"/>
        <pt x="872" y="1654" on="0"/>
        <pt x="838" y="1622" on="0"/>
        <pt x="821" y="1622" on="1"/>
        <pt x="804" y="1622" on="0"/>
        <pt x="740" y="1651" on="0"/>
        <pt x="685" y="1651" on="0"/>
        <pt x="609" y="1609" on="0"/>
        <pt x="578" y="1576" on="1"/>
        <pt x="510" y="1504" on="0"/>
        <pt x="510" y="1344" on="0"/>
        <pt x="606" y="1314" on="1"/>
        <pt x="641" y="1304" on="0"/>
        <pt x="690" y="1303" on="1"/>
        <pt x="725" y="1294" on="0"/>
      </contour>
    </TTGlyph>
    <TTGlyph name="currency" xMin="90" yMin="410" xMax="899" yMax="1276">
      <contour>
        <pt x="213" y="692" on="1"/>
        <pt x="160" y="769" on="0"/>
        <pt x="160" y="932" on="0"/>
        <pt x="217" y="1024" on="1"/>
        <pt x="164" y="1054" on="0"/>
        <pt x="102" y="1127" on="0"/>
        <pt x="90" y="1150" on="0"/>
        <pt x="90" y="1184" on="0"/>
        <pt x="123" y="1221" on="0"/>
        <pt x="164" y="1221" on="0"/>
        <pt x="185" y="1184" on="0"/>
        <pt x="212" y="1159" on="0"/>
        <pt x="242" y="1137" on="0"/>
        <pt x="273" y="1115" on="0"/>
        <pt x="285" y="1104" on="1"/>
        <pt x="372" y="1182" on="0"/>
        <pt x="477" y="1182" on="1"/>
        <pt x="524" y="1182" on="0"/>
        <pt x="584" y="1147" on="0"/>
        <pt x="607" y="1132" on="0"/>
        <pt x="643" y="1120" on="1"/>
        <pt x="663" y="1157" on="0"/>
        <pt x="827" y="1276" on="0"/>
        <pt x="899" y="1276" on="0"/>
        <pt x="899" y="1239" on="1"/>
        <pt x="899" y="1208" on="0"/>
        <pt x="828" y="1160" on="1"/>
        <pt x="798" y="1141" on="0"/>
        <pt x="734" y="1101" on="0"/>
        <pt x="700" y="1074" on="0"/>
        <pt x="692" y="1071" on="1"/>
        <pt x="735" y="1018" on="0"/>
        <pt x="735" y="943" on="1"/>
        <pt x="735" y="818" on="0"/>
        <pt x="678" y="717" on="1"/>
        <pt x="675" y="699" on="0"/>
        <pt x="666" y="690" on="1"/>
        <pt x="680" y="647" on="0"/>
        <pt x="792" y="531" on="0"/>
        <pt x="838" y="481" on="0"/>
        <pt x="838" y="444" on="0"/>
        <pt x="804" y="410" on="0"/>
        <pt x="759" y="410" on="0"/>
        <pt x="621" y="543" on="0"/>
        <pt x="586" y="614" on="1"/>
        <pt x="527" y="573" on="0"/>
        <pt x="359" y="573" on="0"/>
        <pt x="285" y="623" on="1"/>
        <pt x="236" y="533" on="0"/>
        <pt x="170" y="471" on="0"/>
        <pt x="158" y="471" on="1"/>
        <pt x="121" y="471" on="0"/>
        <pt x="121" y="547" on="0"/>
        <pt x="195" y="671" on="0"/>
      </contour>
      <contour>
        <pt x="565" y="1026" on="1"/>
        <pt x="540" y="1034" on="0"/>
        <pt x="537" y="1053" on="1"/>
        <pt x="514" y="1067" on="0"/>
        <pt x="478" y="1090" on="0"/>
        <pt x="447" y="1090" on="1"/>
        <pt x="380" y="1090" on="0"/>
        <pt x="256" y="952" on="0"/>
        <pt x="256" y="874" on="1"/>
        <pt x="256" y="796" on="0"/>
        <pt x="361" y="674" on="0"/>
        <pt x="532" y="674" on="0"/>
        <pt x="653" y="822" on="0"/>
        <pt x="653" y="998" on="0"/>
      </contour>
    </TTGlyph>
    <TTGlyph name="d" xMin="61" yMin="-37" xMax="981" yMax="1964">
      <contour>
        <pt x="676" y="942" on="1"/>
        <pt x="774" y="1372" on="1"/>
        <pt x="784" y="1418" on="0"/>
        <pt x="861" y="1801" on="0"/>
        <pt x="879" y="1876" on="1"/>
        <pt x="883" y="1901" on="1"/>
        <pt x="883" y="1927" on="0"/>
        <pt x="918" y="1964" on="0"/>
        <pt x="937" y="1964" on="1"/>
        <pt x="981" y="1964" on="0"/>
        <pt x="981" y="1917" on="1"/>
        <pt x="981" y="1908" on="1"/>
        <pt x="981" y="1859" on="0"/>
        <pt x="840" y="1211" on="0"/>
        <pt x="798" y="947" on="0"/>
        <pt x="681" y="473" on="0"/>
        <pt x="651" y="307" on="0"/>
        <pt x="623" y="192" on="0"/>
        <pt x="623" y="78" on="0"/>
        <pt x="641" y="20" on="1"/>
        <pt x="638" y="-4" on="0"/>
        <pt x="600" y="-37" on="0"/>
        <pt x="584" y="-37" on="1"/>
        <pt x="558" y="-37" on="0"/>
        <pt x="520" y="86" on="0"/>
        <pt x="520" y="169" on="0"/>
        <pt x="532" y="225" on="1"/>
        <pt x="491" y="101" on="0"/>
        <pt x="361" y="-18" on="0"/>
        <pt x="150" y="-18" on="0"/>
        <pt x="61" y="155" on="0"/>
        <pt x="61" y="238" on="1"/>
        <pt x="61" y="544" on="0"/>
        <pt x="177" y="756" on="1"/>
        <pt x="231" y="854" on="0"/>
        <pt x="314" y="948" on="0"/>
        <pt x="444" y="1034" on="0"/>
        <pt x="634" y="1034" on="0"/>
      </contour>
      <contour>
        <pt x="618" y="702" on="0"/>
        <pt x="627" y="747" on="0"/>
        <pt x="627" y="850" on="0"/>
        <pt x="567" y="948" on="0"/>
        <pt x="512" y="948" on="1"/>
        <pt x="414" y="948" on="0"/>
        <pt x="251" y="701" on="0"/>
        <pt x="154" y="372" on="0"/>
        <pt x="154" y="146" on="0"/>
        <pt x="218" y="98" on="1"/>
        <pt x="239" y="82" on="0"/>
        <pt x="274" y="82" on="1"/>
        <pt x="345" y="82" on="0"/>
        <pt x="507" y="324" on="0"/>
        <pt x="587" y="539" on="0"/>
      </contour>
    </TTGlyph>
    <TTGlyph name="degree" xMin="236" yMin="1694" xMax="692" yMax="2118">
      <contour>
        <pt x="535" y="2064" on="1"/>
        <pt x="692" y="2025" on="0"/>
        <pt x="692" y="1928" on="1"/>
        <pt x="692" y="1837" on="0"/>
        <pt x="528" y="1694" on="0"/>
        <pt x="326" y="1694" on="0"/>
        <pt x="236" y="1788" on="0"/>
        <pt x="236" y="1848" on="1"/>
        <pt x="236" y="1959" on="0"/>
        <pt x="352" y="2118" on="0"/>
        <pt x="513" y="2118" on="0"/>
      </contour>
      <contour>
        <pt x="598" y="1943" on="0"/>
        <pt x="459" y="2021" on="0"/>
        <pt x="375" y="2021" on="0"/>
        <pt x="336" y="1951" on="0"/>
        <pt x="336" y="1851" on="0"/>
        <pt x="383" y="1784" on="0"/>
        <pt x="489" y="1784" on="0"/>
        <pt x="598" y="1852" on="0"/>
      </contour>
    </TTGlyph>
    <TTGlyph name="dieresis" xMin="334" yMin="2159" xMax="901" yMax="2370">
      <contour>
        <pt x="782" y="2174" on="1"/>
        <pt x="733" y="2191" on="0"/>
        <pt x="733" y="2290" on="0"/>
        <pt x="760" y="2316" on="1"/>
        <pt x="809" y="2363" on="0"/>
        <pt x="837" y="2363" on="1"/>
        <pt x="901" y="2363" on="0"/>
        <pt x="901" y="2300" on="1"/>
        <pt x="901" y="2256" on="0"/>
        <pt x="837" y="2171" on="0"/>
        <pt x="799" y="2171" on="1"/>
        <pt x="792" y="2171" on="0"/>
      </contour>
      <contour>
        <pt x="475" y="2347" on="1"/>
        <pt x="475" y="2349" on="1"/>
        <pt x="508" y="2310" on="0"/>
        <pt x="508" y="2247" on="0"/>
        <pt x="418" y="2159" on="0"/>
        <pt x="364" y="2159" on="0"/>
        <pt x="334" y="2226" on="0"/>
        <pt x="334" y="2282" on="0"/>
        <pt x="349" y="2322" on="0"/>
        <pt x="374" y="2352" on="0"/>
        <pt x="406" y="2370" on="0"/>
        <pt x="452" y="2370" on="0"/>
      </contour>
    </TTGlyph>
    <TTGlyph name="divide" xMin="61" yMin="205" xMax="844" yMax="1169">
      <contour>
        <pt x="782" y="600" on="1"/>
        <pt x="98" y="612" on="1"/>
        <pt x="61" y="616" on="0"/>
        <pt x="61" y="639" on="1"/>
        <pt x="61" y="673" on="0"/>
        <pt x="106" y="697" on="1"/>
        <pt x="119" y="704" on="0"/>
        <pt x="133" y="707" on="1"/>
        <pt x="306" y="705" on="0"/>
        <pt x="646" y="696" on="0"/>
        <pt x="817" y="694" on="1"/>
        <pt x="844" y="689" on="0"/>
        <pt x="844" y="647" on="0"/>
        <pt x="805" y="608" on="0"/>
      </contour>
      <contour>
        <pt x="462" y="932" on="1"/>
        <pt x="381" y="932" on="0"/>
        <pt x="381" y="998" on="1"/>
        <pt x="381" y="1056" on="0"/>
        <pt x="475" y="1169" on="0"/>
        <pt x="555" y="1169" on="0"/>
        <pt x="618" y="1115" on="0"/>
        <pt x="618" y="1051" on="0"/>
        <pt x="585" y="999" on="0"/>
        <pt x="502" y="932" on="0"/>
      </contour>
      <contour>
        <pt x="256" y="213" on="1"/>
        <pt x="217" y="213" on="0"/>
        <pt x="217" y="328" on="1"/>
        <pt x="217" y="365" on="0"/>
        <pt x="285" y="424" on="0"/>
        <pt x="367" y="424" on="0"/>
        <pt x="404" y="398" on="1"/>
        <pt x="440" y="371" on="0"/>
        <pt x="440" y="307" on="0"/>
        <pt x="414" y="276" on="1"/>
        <pt x="360" y="212" on="0"/>
        <pt x="285" y="205" on="1"/>
        <pt x="263" y="208" on="0"/>
        <pt x="258" y="213" on="1"/>
      </contour>
    </TTGlyph>
    <TTGlyph name="dollar" xMin="-14" yMin="-154" xMax="1186" yMax="2148">
      <contour>
        <pt x="862" y="1980" on="1"/>
        <pt x="878" y="1980" on="0"/>
        <pt x="926" y="1974" on="1"/>
        <pt x="948" y="2037" on="0"/>
        <pt x="958" y="2099" on="1"/>
        <pt x="966" y="2121" on="0"/>
        <pt x="1003" y="2148" on="0"/>
        <pt x="1018" y="2148" on="1"/>
        <pt x="1051" y="2148" on="0"/>
        <pt x="1051" y="2111" on="1"/>
        <pt x="1051" y="2050" on="0"/>
        <pt x="1014" y="1946" on="1"/>
        <pt x="1128" y="1882" on="0"/>
        <pt x="1178" y="1722" on="1"/>
        <pt x="1186" y="1709" on="0"/>
        <pt x="1186" y="1672" on="0"/>
        <pt x="1151" y="1640" on="0"/>
        <pt x="1133" y="1640" on="1"/>
        <pt x="1102" y="1640" on="0"/>
        <pt x="1088" y="1730" on="0"/>
        <pt x="1032" y="1831" on="0"/>
        <pt x="979" y="1862" on="1"/>
        <pt x="955" y="1803" on="0"/>
        <pt x="883" y="1531" on="0"/>
        <pt x="791" y="1198" on="1"/>
        <pt x="826" y="1114" on="0"/>
        <pt x="863" y="1029" on="1"/>
        <pt x="999" y="717" on="0"/>
        <pt x="999" y="321" on="0"/>
        <pt x="900" y="172" on="1"/>
        <pt x="773" y="-23" on="0"/>
        <pt x="500" y="-23" on="1"/>
        <pt x="472" y="-23" on="0"/>
        <pt x="430" y="-18" on="1"/>
        <pt x="406" y="-113" on="1"/>
        <pt x="383" y="-154" on="0"/>
        <pt x="317" y="-154" on="0"/>
        <pt x="313" y="-113" on="1"/>
        <pt x="342" y="-6" on="1"/>
        <pt x="96" y="45" on="0"/>
        <pt x="14" y="234" on="1"/>
        <pt x="-14" y="299" on="0"/>
        <pt x="-14" y="373" on="1"/>
        <pt x="-14" y="512" on="0"/>
        <pt x="85" y="713" on="0"/>
        <pt x="205" y="819" on="1"/>
        <pt x="225" y="836" on="0"/>
        <pt x="243" y="836" on="1"/>
        <pt x="283" y="836" on="0"/>
        <pt x="283" y="803" on="1"/>
        <pt x="283" y="786" on="0"/>
        <pt x="274" y="772" on="1"/>
        <pt x="172" y="678" on="0"/>
        <pt x="139" y="616" on="1"/>
        <pt x="84" y="508" on="0"/>
        <pt x="84" y="268" on="0"/>
        <pt x="242" y="108" on="0"/>
        <pt x="367" y="80" on="1"/>
        <pt x="692" y="1180" on="1"/>
        <pt x="569" y="1475" on="0"/>
        <pt x="569" y="1763" on="0"/>
        <pt x="713" y="1980" on="0"/>
      </contour>
      <contour>
        <pt x="804" y="212" on="1"/>
        <pt x="901" y="334" on="0"/>
        <pt x="901" y="524" on="1"/>
        <pt x="901" y="615" on="0"/>
        <pt x="821" y="867" on="0"/>
        <pt x="745" y="1049" on="1"/>
        <pt x="674" y="801" on="0"/>
        <pt x="528" y="315" on="0"/>
        <pt x="457" y="68" on="1"/>
        <pt x="494" y="68" on="1"/>
        <pt x="691" y="68" on="0"/>
      </contour>
      <contour>
        <pt x="895" y="1890" on="1"/>
        <pt x="873" y="1894" on="0"/>
        <pt x="839" y="1894" on="1"/>
        <pt x="766" y="1894" on="0"/>
        <pt x="668" y="1760" on="0"/>
        <pt x="668" y="1674" on="1"/>
        <pt x="668" y="1531" on="0"/>
        <pt x="735" y="1335" on="1"/>
        <pt x="802" y="1570" on="0"/>
        <pt x="860" y="1803" on="0"/>
      </contour>
    </TTGlyph>
    <TTGlyph name="dotlessi" xMin="63" yMin="-20" xMax="342" yMax="1063">
      <contour>
        <pt x="242" y="909" on="1"/>
        <pt x="242" y="929" on="1"/>
        <pt x="242" y="943" on="0"/>
        <pt x="227" y="997" on="1"/>
        <pt x="227" y="1022" on="0"/>
        <pt x="261" y="1063" on="0"/>
        <pt x="310" y="1063" on="0"/>
        <pt x="342" y="1001" on="0"/>
        <pt x="342" y="927" on="0"/>
        <pt x="154" y="117" on="0"/>
        <pt x="154" y="74" on="0"/>
        <pt x="174" y="74" on="1"/>
        <pt x="187" y="74" on="0"/>
        <pt x="235" y="125" on="0"/>
        <pt x="252" y="125" on="1"/>
        <pt x="285" y="125" on="0"/>
        <pt x="285" y="42" on="0"/>
        <pt x="161" y="-20" on="0"/>
        <pt x="133" y="-20" on="1"/>
        <pt x="63" y="-20" on="0"/>
        <pt x="63" y="92" on="1"/>
        <pt x="63" y="115" on="0"/>
        <pt x="82" y="172" on="0"/>
        <pt x="103" y="273" on="0"/>
        <pt x="142" y="447" on="0"/>
        <pt x="183" y="633" on="0"/>
        <pt x="242" y="898" on="0"/>
      </contour>
    </TTGlyph>
    <TTGlyph name="e" xMin="68" yMin="-20" xMax="637" yMax="1047">
      <contour>
        <pt x="518" y="168" on="1"/>
        <pt x="553" y="168" on="0"/>
        <pt x="553" y="131" on="1"/>
        <pt x="553" y="88" on="0"/>
        <pt x="343" y="-20" on="0"/>
        <pt x="203" y="-20" on="0"/>
        <pt x="133" y="26" on="0"/>
        <pt x="111" y="67" on="1"/>
        <pt x="68" y="147" on="0"/>
        <pt x="68" y="260" on="1"/>
        <pt x="68" y="460" on="0"/>
        <pt x="188" y="814" on="0"/>
        <pt x="388" y="1047" on="0"/>
        <pt x="504" y="1047" on="1"/>
        <pt x="566" y="1047" on="0"/>
        <pt x="637" y="944" on="0"/>
        <pt x="637" y="874" on="1"/>
        <pt x="637" y="743" on="0"/>
        <pt x="500" y="561" on="0"/>
        <pt x="300" y="445" on="0"/>
        <pt x="170" y="393" on="1"/>
        <pt x="166" y="246" on="1"/>
        <pt x="166" y="74" on="0"/>
        <pt x="270" y="74" on="1"/>
        <pt x="326" y="74" on="0"/>
        <pt x="449" y="139" on="0"/>
        <pt x="503" y="168" on="0"/>
      </contour>
      <contour>
        <pt x="543" y="870" on="1"/>
        <pt x="543" y="950" on="0"/>
        <pt x="476" y="950" on="1"/>
        <pt x="416" y="950" on="0"/>
        <pt x="254" y="734" on="0"/>
        <pt x="201" y="557" on="1"/>
        <pt x="188" y="514" on="0"/>
        <pt x="186" y="492" on="1"/>
        <pt x="226" y="514" on="0"/>
        <pt x="310" y="554" on="0"/>
        <pt x="350" y="576" on="1"/>
        <pt x="442" y="627" on="0"/>
        <pt x="543" y="764" on="0"/>
      </contour>
    </TTGlyph>
    <TTGlyph name="eacute" xMin="68" yMin="-20" xMax="809" yMax="1676">
      <component glyphName="e" x="0" y="0" flags="0x1204"/>
      <component glyphName="acute" x="-246" y="-909" flags="0x1004"/>
    </TTGlyph>
    <TTGlyph name="ecircumflex" xMin="68" yMin="-20" xMax="795" yMax="1563">
      <component glyphName="e" x="0" y="0" flags="0x1204"/>
      <component glyphName="circumflex" x="-186" y="-911" flags="0x1004"/>
    </TTGlyph>
    <TTGlyph name="edieresis" xMin="68" yMin="-20" xMax="842" yMax="1459">
      <component glyphName="e" x="0" y="0" flags="0x1204"/>
      <component glyphName="dieresis" x="-59" y="-911" flags="0x1004"/>
    </TTGlyph>
    <TTGlyph name="egrave" xMin="68" yMin="-20" xMax="637" yMax="1645">
      <component glyphName="e" x="0" y="0" flags="0x1204"/>
      <component glyphName="grave" x="201" y="-913" flags="0x1004"/>
    </TTGlyph>
    <TTGlyph name="eight" xMin="45" yMin="-41" xMax="963" yMax="1978">
      <contour>
        <pt x="45" y="408" on="1"/>
        <pt x="45" y="661" on="0"/>
        <pt x="348" y="941" on="1"/>
        <pt x="434" y="1021" on="0"/>
        <pt x="524" y="1104" on="1"/>
        <pt x="452" y="1183" on="0"/>
        <pt x="406" y="1280" on="1"/>
        <pt x="322" y="1458" on="0"/>
        <pt x="322" y="1554" on="1"/>
        <pt x="322" y="1748" on="0"/>
        <pt x="522" y="1978" on="0"/>
        <pt x="694" y="1978" on="1"/>
        <pt x="835" y="1978" on="0"/>
        <pt x="908" y="1830" on="1"/>
        <pt x="963" y="1718" on="0"/>
        <pt x="963" y="1525" on="0"/>
        <pt x="922" y="1407" on="0"/>
        <pt x="888" y="1356" on="1"/>
        <pt x="830" y="1268" on="0"/>
        <pt x="637" y="1092" on="1"/>
        <pt x="675" y="1023" on="0"/>
        <pt x="721" y="944" on="1"/>
        <pt x="901" y="637" on="0"/>
        <pt x="901" y="244" on="0"/>
        <pt x="669" y="-41" on="0"/>
        <pt x="471" y="-41" on="1"/>
        <pt x="314" y="-41" on="0"/>
        <pt x="45" y="202" on="0"/>
      </contour>
      <contour>
        <pt x="727" y="746" on="1"/>
        <pt x="689" y="830" on="0"/>
        <pt x="569" y="1030" on="1"/>
        <pt x="495" y="965" on="0"/>
        <pt x="419" y="896" on="1"/>
        <pt x="143" y="645" on="0"/>
        <pt x="143" y="451" on="1"/>
        <pt x="143" y="278" on="0"/>
        <pt x="315" y="63" on="0"/>
        <pt x="592" y="63" on="0"/>
        <pt x="801" y="276" on="0"/>
        <pt x="801" y="580" on="0"/>
      </contour>
      <contour>
        <pt x="682" y="1884" on="1"/>
        <pt x="410" y="1884" on="0"/>
        <pt x="410" y="1577" on="1"/>
        <pt x="410" y="1492" on="0"/>
        <pt x="528" y="1241" on="0"/>
        <pt x="582" y="1184" on="1"/>
        <pt x="592" y="1167" on="1"/>
        <pt x="659" y="1233" on="1"/>
        <pt x="695" y="1273" on="0"/>
        <pt x="770" y="1344" on="0"/>
        <pt x="801" y="1382" on="1"/>
        <pt x="872" y="1469" on="0"/>
        <pt x="872" y="1566" on="1"/>
        <pt x="872" y="1729" on="0"/>
        <pt x="806" y="1816" on="1"/>
        <pt x="756" y="1884" on="0"/>
      </contour>
    </TTGlyph>
    <TTGlyph name="emdash" xMin="-4" yMin="629" xMax="1470" yMax="762">
      <contour>
        <pt x="1389" y="629" on="1"/>
        <pt x="1116" y="635" on="1"/>
        <pt x="945" y="635" on="0"/>
        <pt x="275" y="664" on="0"/>
        <pt x="102" y="664" on="1"/>
        <pt x="39" y="664" on="1"/>
        <pt x="-4" y="668" on="0"/>
        <pt x="-4" y="698" on="1"/>
        <pt x="-4" y="755" on="0"/>
        <pt x="88" y="760" on="1"/>
        <pt x="113" y="762" on="0"/>
        <pt x="297" y="762" on="0"/>
        <pt x="933" y="729" on="0"/>
        <pt x="1110" y="729" on="1"/>
        <pt x="1274" y="731" on="1"/>
        <pt x="1419" y="731" on="0"/>
        <pt x="1434" y="719" on="1"/>
        <pt x="1470" y="719" on="0"/>
        <pt x="1470" y="684" on="1"/>
        <pt x="1470" y="629" on="0"/>
      </contour>
    </TTGlyph>
    <TTGlyph name="endash" xMin="172" yMin="600" xMax="1253" yMax="748">
      <contour>
        <pt x="321" y="600" on="1"/>
        <pt x="174" y="600" on="0"/>
        <pt x="182" y="623" on="1"/>
        <pt x="172" y="633" on="0"/>
        <pt x="172" y="671" on="0"/>
        <pt x="206" y="705" on="0"/>
        <pt x="238" y="705" on="0"/>
        <pt x="252" y="698" on="1"/>
        <pt x="260" y="699" on="0"/>
        <pt x="416" y="699" on="0"/>
        <pt x="498" y="709" on="1"/>
        <pt x="856" y="748" on="0"/>
        <pt x="1219" y="748" on="1"/>
        <pt x="1253" y="739" on="0"/>
        <pt x="1253" y="713" on="1"/>
        <pt x="1253" y="694" on="0"/>
        <pt x="1224" y="660" on="0"/>
        <pt x="1204" y="653" on="1"/>
        <pt x="836" y="653" on="0"/>
        <pt x="369" y="600" on="0"/>
      </contour>
    </TTGlyph>
    <TTGlyph name="equal" xMin="98" yMin="414" xMax="840" yMax="821">
      <contour>
        <pt x="705" y="709" on="1"/>
        <pt x="439" y="723" on="0"/>
        <pt x="367" y="723" on="1"/>
        <pt x="195" y="723" on="0"/>
        <pt x="170" y="694" on="1"/>
        <pt x="152" y="682" on="0"/>
        <pt x="135" y="682" on="1"/>
        <pt x="98" y="682" on="0"/>
        <pt x="98" y="719" on="1"/>
        <pt x="98" y="821" on="0"/>
        <pt x="754" y="821" on="0"/>
        <pt x="754" y="768" on="1"/>
        <pt x="754" y="749" on="0"/>
        <pt x="725" y="715" on="0"/>
      </contour>
      <contour>
        <pt x="791" y="469" on="1"/>
        <pt x="492" y="481" on="1"/>
        <pt x="280" y="481" on="0"/>
        <pt x="176" y="418" on="1"/>
        <pt x="164" y="414" on="0"/>
        <pt x="154" y="414" on="1"/>
        <pt x="119" y="414" on="0"/>
        <pt x="119" y="451" on="1"/>
        <pt x="119" y="496" on="0"/>
        <pt x="194" y="528" on="1"/>
        <pt x="302" y="573" on="0"/>
        <pt x="504" y="573" on="1"/>
        <pt x="581" y="573" on="0"/>
        <pt x="734" y="565" on="0"/>
        <pt x="805" y="563" on="1"/>
        <pt x="840" y="553" on="0"/>
        <pt x="840" y="528" on="1"/>
        <pt x="840" y="510" on="0"/>
        <pt x="811" y="475" on="0"/>
      </contour>
    </TTGlyph>
    <TTGlyph name="eth" xMin="72" yMin="-18" xMax="942" yMax="1884">
      <contour>
        <pt x="572" y="934" on="1"/>
        <pt x="550" y="948" on="0"/>
        <pt x="468" y="948" on="0"/>
        <pt x="376" y="875" on="0"/>
        <pt x="261" y="701" on="0"/>
        <pt x="164" y="372" on="0"/>
        <pt x="164" y="146" on="0"/>
        <pt x="228" y="98" on="1"/>
        <pt x="249" y="82" on="0"/>
        <pt x="284" y="82" on="1"/>
        <pt x="356" y="82" on="0"/>
        <pt x="513" y="315" on="0"/>
        <pt x="637" y="636" on="0"/>
        <pt x="637" y="892" on="0"/>
      </contour>
      <contour>
        <pt x="905" y="1677" on="1"/>
        <pt x="942" y="1677" on="0"/>
        <pt x="942" y="1593" on="0"/>
        <pt x="899" y="1575" on="1"/>
        <pt x="788" y="1524" on="1"/>
        <pt x="842" y="1399" on="0"/>
        <pt x="842" y="1239" on="1"/>
        <pt x="842" y="1180" on="0"/>
        <pt x="802" y="992" on="0"/>
        <pt x="784" y="891" on="0"/>
        <pt x="725" y="616" on="0"/>
        <pt x="598" y="257" on="0"/>
        <pt x="388" y="-18" on="0"/>
        <pt x="249" y="-18" on="1"/>
        <pt x="157" y="-18" on="0"/>
        <pt x="110" y="79" on="1"/>
        <pt x="72" y="156" on="0"/>
        <pt x="72" y="238" on="1"/>
        <pt x="72" y="547" on="0"/>
        <pt x="186" y="755" on="1"/>
        <pt x="241" y="854" on="0"/>
        <pt x="324" y="948" on="0"/>
        <pt x="454" y="1034" on="0"/>
        <pt x="644" y="1034" on="0"/>
        <pt x="686" y="942" on="1"/>
        <pt x="723" y="1085" on="1"/>
        <pt x="746" y="1178" on="0"/>
        <pt x="746" y="1379" on="0"/>
        <pt x="702" y="1479" on="1"/>
        <pt x="510" y="1378" on="1"/>
        <pt x="498" y="1376" on="1"/>
        <pt x="461" y="1376" on="0"/>
        <pt x="461" y="1453" on="0"/>
        <pt x="487" y="1475" on="1"/>
        <pt x="591" y="1513" on="0"/>
        <pt x="662" y="1552" on="1"/>
        <pt x="556" y="1710" on="0"/>
        <pt x="340" y="1796" on="1"/>
        <pt x="307" y="1809" on="0"/>
        <pt x="307" y="1865" on="0"/>
        <pt x="343" y="1884" on="0"/>
        <pt x="372" y="1884" on="0"/>
        <pt x="404" y="1866" on="0"/>
        <pt x="533" y="1802" on="0"/>
        <pt x="689" y="1682" on="0"/>
        <pt x="743" y="1604" on="1"/>
        <pt x="782" y="1625" on="0"/>
        <pt x="899" y="1677" on="0"/>
      </contour>
    </TTGlyph>
    <TTGlyph name="exclam" xMin="109" yMin="-100" xMax="592" yMax="2253">
      <contour>
        <pt x="557" y="2253" on="1"/>
        <pt x="583" y="2253" on="0"/>
        <pt x="592" y="2218" on="1"/>
        <pt x="589" y="2136" on="0"/>
        <pt x="543" y="1864" on="0"/>
        <pt x="495" y="1447" on="0"/>
        <pt x="359" y="727" on="0"/>
        <pt x="274" y="369" on="1"/>
        <pt x="255" y="328" on="0"/>
        <pt x="217" y="328" on="1"/>
        <pt x="186" y="328" on="0"/>
        <pt x="182" y="369" on="1"/>
        <pt x="368" y="1161" on="0"/>
        <pt x="442" y="1798" on="1"/>
        <pt x="455" y="1901" on="0"/>
        <pt x="493" y="2101" on="0"/>
        <pt x="498" y="2204" on="1"/>
        <pt x="504" y="2224" on="0"/>
        <pt x="538" y="2253" on="0"/>
      </contour>
      <contour>
        <pt x="150" y="-47" on="1"/>
        <pt x="109" y="-32" on="0"/>
        <pt x="109" y="57" on="0"/>
        <pt x="182" y="117" on="0"/>
        <pt x="251" y="117" on="0"/>
        <pt x="287" y="71" on="0"/>
        <pt x="287" y="0" on="0"/>
        <pt x="230" y="-100" on="0"/>
        <pt x="184" y="-100" on="1"/>
        <pt x="167" y="-100" on="0"/>
        <pt x="147" y="-79" on="0"/>
        <pt x="147" y="-54" on="0"/>
      </contour>
    </TTGlyph>
    <TTGlyph name="exclamdown" xMin="-158" yMin="-1327" xMax="324" yMax="1024">
      <contour>
        <pt x="-123" y="-1327" on="1"/>
        <pt x="-149" y="-1327" on="0"/>
        <pt x="-158" y="-1292" on="1"/>
        <pt x="-153" y="-1189" on="0"/>
        <pt x="-115" y="-990" on="0"/>
        <pt x="-102" y="-887" on="1"/>
        <pt x="-30" y="-242" on="0"/>
        <pt x="160" y="557" on="1"/>
        <pt x="168" y="576" on="0"/>
        <pt x="202" y="598" on="0"/>
        <pt x="216" y="598" on="1"/>
        <pt x="248" y="598" on="0"/>
        <pt x="252" y="557" on="1"/>
        <pt x="66" y="-235" on="0"/>
        <pt x="-8" y="-872" on="1"/>
        <pt x="-21" y="-976" on="0"/>
        <pt x="-58" y="-1176" on="0"/>
        <pt x="-63" y="-1278" on="1"/>
        <pt x="-70" y="-1298" on="0"/>
        <pt x="-104" y="-1327" on="0"/>
      </contour>
      <contour>
        <pt x="283" y="975" on="1"/>
        <pt x="324" y="959" on="0"/>
        <pt x="324" y="869" on="0"/>
        <pt x="251" y="809" on="0"/>
        <pt x="183" y="809" on="0"/>
        <pt x="147" y="855" on="0"/>
        <pt x="147" y="888" on="1"/>
        <pt x="147" y="960" on="0"/>
        <pt x="215" y="1014" on="1"/>
        <pt x="230" y="1024" on="0"/>
        <pt x="248" y="1024" on="1"/>
        <pt x="285" y="1024" on="0"/>
        <pt x="285" y="989" on="1"/>
        <pt x="285" y="982" on="1"/>
        <pt x="285" y="978" on="0"/>
      </contour>
    </TTGlyph>
    <TTGlyph name="f" xMin="-831" yMin="-842" xMax="977" yMax="1749">
      <contour>
        <pt x="206" y="936" on="1"/>
        <pt x="70" y="930" on="1"/>
        <pt x="29" y="933" on="0"/>
        <pt x="29" y="967" on="1"/>
        <pt x="29" y="1020" on="0"/>
        <pt x="145" y="1023" on="1"/>
        <pt x="182" y="1024" on="0"/>
        <pt x="227" y="1024" on="1"/>
        <pt x="281" y="1024" on="1"/>
        <pt x="337" y="1255" on="0"/>
        <pt x="371" y="1350" on="1"/>
        <pt x="440" y="1544" on="0"/>
        <pt x="637" y="1749" on="0"/>
        <pt x="977" y="1749" on="0"/>
        <pt x="977" y="1688" on="1"/>
        <pt x="977" y="1655" on="0"/>
        <pt x="936" y="1628" on="1"/>
        <pt x="796" y="1638" on="0"/>
        <pt x="772" y="1638" on="1"/>
        <pt x="623" y="1638" on="0"/>
        <pt x="420" y="1285" on="0"/>
        <pt x="381" y="1024" on="1"/>
        <pt x="447" y="1022" on="0"/>
        <pt x="468" y="1022" on="1"/>
        <pt x="513" y="1023" on="1"/>
        <pt x="594" y="1024" on="1"/>
        <pt x="616" y="1024" on="1"/>
        <pt x="626" y="1024" on="0"/>
        <pt x="641" y="1022" on="1"/>
        <pt x="698" y="1022" on="0"/>
        <pt x="698" y="983" on="1"/>
        <pt x="698" y="933" on="0"/>
        <pt x="600" y="929" on="1"/>
        <pt x="573" y="928" on="0"/>
        <pt x="542" y="928" on="1"/>
        <pt x="468" y="928" on="1"/>
        <pt x="426" y="928" on="0"/>
        <pt x="360" y="930" on="1"/>
        <pt x="321" y="715" on="0"/>
        <pt x="272" y="384" on="0"/>
        <pt x="249" y="247" on="0"/>
        <pt x="224" y="50" on="0"/>
        <pt x="197" y="-120" on="1"/>
        <pt x="126" y="-558" on="0"/>
        <pt x="-88" y="-734" on="1"/>
        <pt x="-221" y="-842" on="0"/>
        <pt x="-440" y="-842" on="1"/>
        <pt x="-595" y="-842" on="0"/>
        <pt x="-724" y="-768" on="1"/>
        <pt x="-775" y="-738" on="0"/>
        <pt x="-831" y="-680" on="0"/>
        <pt x="-831" y="-646" on="0"/>
        <pt x="-795" y="-618" on="0"/>
        <pt x="-772" y="-618" on="1"/>
        <pt x="-760" y="-621" on="1"/>
        <pt x="-646" y="-703" on="0"/>
        <pt x="-528" y="-743" on="0"/>
        <pt x="-336" y="-743" on="0"/>
        <pt x="-185" y="-679" on="0"/>
        <pt x="-72" y="-569" on="0"/>
        <pt x="10" y="-420" on="0"/>
        <pt x="67" y="-251" on="0"/>
        <pt x="106" y="-70" on="0"/>
        <pt x="135" y="106" on="0"/>
        <pt x="158" y="268" on="0"/>
        <pt x="172" y="334" on="1"/>
        <pt x="194" y="483" on="0"/>
        <pt x="234" y="787" on="0"/>
        <pt x="260" y="934" on="1"/>
        <pt x="228" y="936" on="0"/>
      </contour>
    </TTGlyph>
    <TTGlyph name="five" xMin="-8" yMin="-846" xMax="1360" yMax="1051">
      <contour>
        <pt x="229" y="78" on="1"/>
        <pt x="193" y="78" on="0"/>
        <pt x="193" y="115" on="1"/>
        <pt x="193" y="128" on="0"/>
        <pt x="197" y="135" on="1"/>
        <pt x="356" y="358" on="0"/>
        <pt x="410" y="477" on="1"/>
        <pt x="516" y="713" on="0"/>
        <pt x="516" y="971" on="1"/>
        <pt x="523" y="994" on="0"/>
        <pt x="543" y="1008" on="1"/>
        <pt x="563" y="1032" on="0"/>
        <pt x="611" y="1032" on="0"/>
        <pt x="640" y="1004" on="0"/>
        <pt x="655" y="991" on="1"/>
        <pt x="741" y="948" on="0"/>
        <pt x="999" y="948" on="1"/>
        <pt x="1160" y="948" on="0"/>
        <pt x="1276" y="1028" on="1"/>
        <pt x="1310" y="1051" on="0"/>
        <pt x="1325" y="1051" on="1"/>
        <pt x="1360" y="1051" on="0"/>
        <pt x="1360" y="1014" on="1"/>
        <pt x="1360" y="961" on="0"/>
        <pt x="1228" y="904" on="1"/>
        <pt x="1140" y="865" on="0"/>
        <pt x="1031" y="860" on="0"/>
        <pt x="1001" y="860" on="1"/>
        <pt x="709" y="860" on="0"/>
        <pt x="608" y="901" on="1"/>
        <pt x="591" y="571" on="0"/>
        <pt x="393" y="268" on="1"/>
        <pt x="505" y="322" on="0"/>
        <pt x="922" y="322" on="0"/>
        <pt x="1268" y="21" on="0"/>
        <pt x="1268" y="-478" on="0"/>
        <pt x="1113" y="-650" on="1"/>
        <pt x="935" y="-846" on="0"/>
        <pt x="612" y="-846" on="1"/>
        <pt x="374" y="-846" on="0"/>
        <pt x="196" y="-718" on="1"/>
        <pt x="-8" y="-571" on="0"/>
        <pt x="-8" y="-319" on="1"/>
        <pt x="-8" y="-215" on="0"/>
        <pt x="49" y="-215" on="1"/>
        <pt x="70" y="-215" on="0"/>
        <pt x="84" y="-238" on="1"/>
        <pt x="84" y="-266" on="1"/>
        <pt x="84" y="-498" on="0"/>
        <pt x="384" y="-748" on="0"/>
        <pt x="610" y="-748" on="1"/>
        <pt x="993" y="-748" on="0"/>
        <pt x="1120" y="-462" on="1"/>
        <pt x="1165" y="-360" on="0"/>
        <pt x="1165" y="-243" on="1"/>
        <pt x="1165" y="-34" on="0"/>
        <pt x="894" y="231" on="0"/>
        <pt x="698" y="231" on="1"/>
        <pt x="566" y="231" on="0"/>
        <pt x="391" y="171" on="0"/>
        <pt x="266" y="90" on="1"/>
        <pt x="248" y="78" on="0"/>
      </contour>
    </TTGlyph>
    <TTGlyph name="foundryicon" xMin="121" yMin="-563" xMax="3466" yMax="1462">
      <contour>
        <pt x="795" y="184" on="1"/>
        <pt x="731" y="4" on="0"/>
        <pt x="547" y="4" on="1"/>
        <pt x="411" y="4" on="0"/>
        <pt x="214" y="177" on="0"/>
        <pt x="121" y="453" on="0"/>
        <pt x="121" y="594" on="1"/>
        <pt x="121" y="1196" on="0"/>
        <pt x="424" y="1462" on="1"/>
        <pt x="560" y="1432" on="0"/>
        <pt x="615" y="1391" on="1"/>
        <pt x="733" y="1304" on="0"/>
        <pt x="733" y="1135" on="1"/>
        <pt x="733" y="1002" on="0"/>
        <pt x="604" y="889" on="1"/>
        <pt x="596" y="883" on="0"/>
        <pt x="589" y="875" on="0"/>
        <pt x="581" y="876" on="0"/>
        <pt x="581" y="889" on="0"/>
        <pt x="588" y="917" on="0"/>
        <pt x="588" y="1025" on="0"/>
        <pt x="548" y="1188" on="0"/>
        <pt x="524" y="1219" on="1"/>
        <pt x="469" y="1166" on="0"/>
        <pt x="389" y="809" on="0"/>
        <pt x="389" y="428" on="0"/>
        <pt x="469" y="138" on="0"/>
        <pt x="553" y="78" on="1"/>
        <pt x="672" y="117" on="0"/>
        <pt x="756" y="299" on="1"/>
        <pt x="719" y="420" on="0"/>
        <pt x="719" y="759" on="0"/>
        <pt x="758" y="831" on="1"/>
        <pt x="798" y="823" on="1"/>
        <pt x="900" y="803" on="0"/>
        <pt x="952" y="756" on="1"/>
        <pt x="946" y="652" on="0"/>
        <pt x="946" y="546" on="1"/>
        <pt x="946" y="304" on="0"/>
        <pt x="999" y="135" on="1"/>
        <pt x="1065" y="152" on="0"/>
        <pt x="1065" y="429" on="1"/>
        <pt x="1065" y="586" on="0"/>
        <pt x="1020" y="869" on="0"/>
        <pt x="1014" y="909" on="1"/>
        <pt x="1031" y="910" on="1"/>
        <pt x="1115" y="910" on="0"/>
        <pt x="1207" y="850" on="1"/>
        <pt x="1234" y="833" on="0"/>
        <pt x="1253" y="813" on="1"/>
        <pt x="1276" y="612" on="0"/>
        <pt x="1276" y="456" on="1"/>
        <pt x="1276" y="-164" on="0"/>
        <pt x="1072" y="-427" on="1"/>
        <pt x="967" y="-563" on="0"/>
        <pt x="661" y="-563" on="0"/>
        <pt x="637" y="-434" on="1"/>
        <pt x="629" y="-391" on="0"/>
        <pt x="629" y="-259" on="0"/>
        <pt x="659" y="-154" on="1"/>
        <pt x="787" y="-154" on="0"/>
        <pt x="862" y="-229" on="1"/>
        <pt x="848" y="-333" on="0"/>
        <pt x="848" y="-449" on="0"/>
        <pt x="858" y="-489" on="1"/>
        <pt x="970" y="-417" on="0"/>
        <pt x="1013" y="-268" on="1"/>
        <pt x="1033" y="-198" on="0"/>
        <pt x="1043" y="-113" on="1"/>
        <pt x="1065" y="74" on="1"/>
        <pt x="1042" y="37" on="0"/>
        <pt x="1004" y="37" on="1"/>
        <pt x="866" y="37" on="0"/>
      </contour>
      <contour>
        <pt x="1892" y="795" on="1"/>
        <pt x="1874" y="694" on="0"/>
        <pt x="1874" y="519" on="0"/>
        <pt x="1884" y="463" on="1"/>
        <pt x="1851" y="453" on="0"/>
        <pt x="1818" y="453" on="1"/>
        <pt x="1707" y="453" on="0"/>
        <pt x="1688" y="586" on="1"/>
        <pt x="1679" y="564" on="0"/>
        <pt x="1602" y="442" on="0"/>
        <pt x="1591" y="399" on="1"/>
        <pt x="1591" y="225" on="0"/>
        <pt x="1550" y="92" on="0"/>
        <pt x="1485" y="24" on="0"/>
        <pt x="1428" y="24" on="1"/>
        <pt x="1414" y="24" on="0"/>
        <pt x="1399" y="27" on="1"/>
        <pt x="1393" y="118" on="0"/>
        <pt x="1387" y="228" on="1"/>
        <pt x="1363" y="659" on="0"/>
        <pt x="1286" y="850" on="1"/>
        <pt x="1418" y="844" on="0"/>
        <pt x="1468" y="815" on="1"/>
        <pt x="1488" y="803" on="0"/>
        <pt x="1505" y="784" on="1"/>
        <pt x="1561" y="682" on="0"/>
        <pt x="1571" y="543" on="1"/>
        <pt x="1645" y="683" on="0"/>
        <pt x="1667" y="748" on="1"/>
        <pt x="1667" y="817" on="0"/>
        <pt x="1698" y="879" on="1"/>
        <pt x="1852" y="865" on="0"/>
      </contour>
      <contour>
        <pt x="2646" y="256" on="1"/>
        <pt x="2614" y="395" on="0"/>
        <pt x="2614" y="634" on="0"/>
        <pt x="2617" y="670" on="1"/>
        <pt x="2563" y="603" on="0"/>
        <pt x="2538" y="400" on="1"/>
        <pt x="2530" y="340" on="0"/>
        <pt x="2530" y="185" on="0"/>
        <pt x="2552" y="113" on="1"/>
        <pt x="2607" y="155" on="0"/>
        <pt x="2634" y="214" on="1"/>
        <pt x="2644" y="235" on="0"/>
      </contour>
      <contour>
        <pt x="3154" y="535" on="1"/>
        <pt x="3229" y="641" on="0"/>
        <pt x="3252" y="880" on="1"/>
        <pt x="3258" y="948" on="0"/>
        <pt x="3258" y="1097" on="0"/>
        <pt x="3246" y="1159" on="1"/>
        <pt x="3169" y="842" on="0"/>
      </contour>
      <contour>
        <pt x="2177" y="690" on="1"/>
        <pt x="2122" y="523" on="0"/>
        <pt x="2122" y="315" on="1"/>
        <pt x="2186" y="323" on="0"/>
        <pt x="2206" y="466" on="1"/>
        <pt x="2212" y="505" on="0"/>
        <pt x="2212" y="623" on="0"/>
      </contour>
      <contour>
        <pt x="2245" y="1345" on="0"/>
        <pt x="2313" y="1395" on="0"/>
        <pt x="2386" y="1395" on="0"/>
        <pt x="2406" y="1382" on="1"/>
        <pt x="2441" y="1395" on="1"/>
        <pt x="2443" y="1395" on="0"/>
        <pt x="2443" y="1394" on="0"/>
        <pt x="2444" y="1394" on="1"/>
        <pt x="2445" y="1394" on="1"/>
        <pt x="2444" y="1393" on="0"/>
        <pt x="2443" y="1393" on="1"/>
        <pt x="2435" y="1354" on="1"/>
        <pt x="2470" y="1354" on="1"/>
        <pt x="2471" y="1352" on="1"/>
        <pt x="2470" y="1352" on="1"/>
        <pt x="2441" y="1317" on="1"/>
        <pt x="2426" y="1286" on="0"/>
        <pt x="2394" y="1206" on="0"/>
        <pt x="2330" y="1062" on="0"/>
        <pt x="2211" y="926" on="0"/>
        <pt x="2124" y="911" on="1"/>
        <pt x="2175" y="809" on="0"/>
        <pt x="2179" y="805" on="1"/>
        <pt x="2298" y="747" on="0"/>
        <pt x="2298" y="571" on="1"/>
        <pt x="2298" y="458" on="0"/>
        <pt x="2232" y="322" on="0"/>
        <pt x="2168" y="255" on="0"/>
        <pt x="2126" y="242" on="1"/>
        <pt x="2137" y="197" on="0"/>
        <pt x="2164" y="121" on="0"/>
        <pt x="2193" y="102" on="1"/>
        <pt x="2281" y="137" on="0"/>
        <pt x="2345" y="297" on="1"/>
        <pt x="2345" y="406" on="1"/>
        <pt x="2354" y="656" on="0"/>
        <pt x="2478" y="791" on="1"/>
        <pt x="2551" y="791" on="0"/>
        <pt x="2623" y="764" on="1"/>
        <pt x="2626" y="771" on="0"/>
        <pt x="2658" y="899" on="0"/>
        <pt x="2669" y="909" on="1"/>
        <pt x="2678" y="912" on="0"/>
        <pt x="2722" y="912" on="0"/>
        <pt x="2822" y="871" on="0"/>
        <pt x="2849" y="846" on="1"/>
        <pt x="2820" y="641" on="0"/>
        <pt x="2820" y="232" on="0"/>
        <pt x="2859" y="96" on="1"/>
        <pt x="2861" y="95" on="0"/>
        <pt x="2879" y="95" on="0"/>
        <pt x="2908" y="123" on="0"/>
        <pt x="2933" y="161" on="0"/>
        <pt x="2954" y="200" on="0"/>
        <pt x="2961" y="211" on="1"/>
        <pt x="2955" y="240" on="1"/>
        <pt x="2918" y="417" on="0"/>
        <pt x="2918" y="576" on="1"/>
        <pt x="2918" y="1114" on="0"/>
        <pt x="3086" y="1419" on="1"/>
        <pt x="3262" y="1390" on="0"/>
        <pt x="3391" y="1216" on="0"/>
        <pt x="3391" y="834" on="0"/>
        <pt x="3265" y="487" on="0"/>
        <pt x="3158" y="438" on="1"/>
        <pt x="3158" y="222" on="0"/>
        <pt x="3244" y="96" on="1"/>
        <pt x="3374" y="195" on="0"/>
        <pt x="3434" y="442" on="1"/>
        <pt x="3444" y="447" on="0"/>
        <pt x="3465" y="447" on="0"/>
        <pt x="3465" y="430" on="1"/>
        <pt x="3464" y="385" on="1"/>
        <pt x="3464" y="313" on="0"/>
        <pt x="3419" y="137" on="0"/>
        <pt x="3305" y="16" on="0"/>
        <pt x="3211" y="16" on="1"/>
        <pt x="3063" y="16" on="0"/>
        <pt x="2990" y="141" on="1"/>
        <pt x="2969" y="58" on="0"/>
        <pt x="2904" y="26" on="1"/>
        <pt x="2882" y="16" on="0"/>
        <pt x="2804" y="16" on="0"/>
        <pt x="2714" y="95" on="0"/>
        <pt x="2693" y="143" on="1"/>
        <pt x="2683" y="102" on="0"/>
        <pt x="2598" y="41" on="0"/>
        <pt x="2556" y="37" on="1"/>
        <pt x="2476" y="37" on="0"/>
        <pt x="2387" y="108" on="0"/>
        <pt x="2372" y="164" on="1"/>
        <pt x="2300" y="47" on="0"/>
        <pt x="2187" y="37" on="1"/>
        <pt x="2047" y="37" on="0"/>
        <pt x="1912" y="231" on="0"/>
        <pt x="1912" y="579" on="0"/>
        <pt x="1962" y="744" on="1"/>
        <pt x="1978" y="796" on="0"/>
        <pt x="1999" y="831" on="1"/>
        <pt x="2017" y="833" on="0"/>
        <pt x="2035" y="833" on="1"/>
        <pt x="2053" y="833" on="0"/>
        <pt x="2071" y="831" on="1"/>
        <pt x="2050" y="871" on="0"/>
        <pt x="2038" y="913" on="1"/>
        <pt x="1904" y="943" on="0"/>
        <pt x="1747" y="1130" on="1"/>
        <pt x="1728" y="1146" on="0"/>
        <pt x="1553" y="1180" on="0"/>
        <pt x="1522" y="1208" on="1"/>
        <pt x="1515" y="1214" on="0"/>
        <pt x="1515" y="1229" on="0"/>
        <pt x="1526" y="1229" on="1"/>
        <pt x="1531" y="1218" on="0"/>
        <pt x="1800" y="1202" on="0"/>
        <pt x="1810" y="1202" on="1"/>
        <pt x="1884" y="1216" on="0"/>
        <pt x="2207" y="1275" on="0"/>
        <pt x="2232" y="1300" on="1"/>
      </contour>
      <contour>
        <pt x="2148" y="817" on="1"/>
        <pt x="2120" y="855" on="0"/>
        <pt x="2097" y="909" on="1"/>
        <pt x="2066" y="909" on="1"/>
        <pt x="2091" y="829" on="1"/>
        <pt x="2106" y="826" on="0"/>
        <pt x="2134" y="822" on="0"/>
      </contour>
    </TTGlyph>
    <TTGlyph name="four" xMin="37" yMin="-840" xMax="981" yMax="1026">
      <contour>
        <pt x="643" y="-29" on="1"/>
        <pt x="127" y="-35" on="0"/>
        <pt x="37" y="-35" on="0"/>
        <pt x="37" y="2" on="1"/>
        <pt x="37" y="21" on="0"/>
        <pt x="49" y="39" on="1"/>
        <pt x="137" y="143" on="0"/>
        <pt x="282" y="302" on="0"/>
        <pt x="483" y="524" on="0"/>
        <pt x="678" y="785" on="0"/>
        <pt x="797" y="993" on="1"/>
        <pt x="820" y="1026" on="0"/>
        <pt x="885" y="1026" on="0"/>
        <pt x="885" y="977" on="1"/>
        <pt x="854" y="921" on="0"/>
        <pt x="831" y="887" on="1"/>
        <pt x="848" y="878" on="0"/>
        <pt x="848" y="858" on="1"/>
        <pt x="844" y="819" on="1"/>
        <pt x="832" y="518" on="0"/>
        <pt x="745" y="63" on="1"/>
        <pt x="906" y="77" on="0"/>
        <pt x="932" y="80" on="1"/>
        <pt x="981" y="80" on="0"/>
        <pt x="981" y="18" on="0"/>
        <pt x="912" y="-29" on="0"/>
        <pt x="850" y="-29" on="1"/>
        <pt x="727" y="-29" on="1"/>
        <pt x="648" y="-461" on="0"/>
        <pt x="633" y="-666" on="1"/>
        <pt x="631" y="-685" on="0"/>
        <pt x="628" y="-714" on="1"/>
        <pt x="615" y="-840" on="0"/>
        <pt x="539" y="-840" on="1"/>
        <pt x="504" y="-840" on="0"/>
        <pt x="504" y="-803" on="1"/>
        <pt x="504" y="-790" on="0"/>
        <pt x="520" y="-772" on="0"/>
        <pt x="522" y="-737" on="0"/>
        <pt x="523" y="-687" on="0"/>
        <pt x="610" y="-223" on="0"/>
      </contour>
      <contour>
        <pt x="284" y="55" on="1"/>
        <pt x="402" y="55" on="1"/>
        <pt x="570" y="55" on="0"/>
        <pt x="657" y="59" on="1"/>
        <pt x="720" y="459" on="0"/>
        <pt x="760" y="774" on="1"/>
        <pt x="631" y="578" on="0"/>
        <pt x="257" y="159" on="0"/>
        <pt x="172" y="57" on="1"/>
        <pt x="228" y="55" on="0"/>
      </contour>
    </TTGlyph>
    <TTGlyph name="foursuperior" xMin="195" yMin="940" xMax="745" yMax="1909">
      <contour>
        <pt x="195" y="1403" on="1"/>
        <pt x="195" y="1431" on="0"/>
        <pt x="254" y="1514" on="1"/>
        <pt x="426" y="1760" on="0"/>
        <pt x="516" y="1901" on="1"/>
        <pt x="529" y="1909" on="0"/>
        <pt x="545" y="1909" on="1"/>
        <pt x="580" y="1909" on="0"/>
        <pt x="580" y="1872" on="1"/>
        <pt x="580" y="1852" on="0"/>
        <pt x="525" y="1781" on="0"/>
        <pt x="347" y="1509" on="0"/>
        <pt x="307" y="1454" on="1"/>
        <pt x="360" y="1463" on="0"/>
        <pt x="474" y="1476" on="0"/>
        <pt x="522" y="1485" on="1"/>
        <pt x="562" y="1539" on="0"/>
        <pt x="648" y="1780" on="1"/>
        <pt x="661" y="1815" on="0"/>
        <pt x="675" y="1859" on="0"/>
        <pt x="689" y="1878" on="0"/>
        <pt x="705" y="1878" on="1"/>
        <pt x="745" y="1878" on="0"/>
        <pt x="745" y="1849" on="1"/>
        <pt x="707" y="1696" on="0"/>
        <pt x="567" y="1345" on="0"/>
        <pt x="478" y="1130" on="0"/>
        <pt x="428" y="997" on="1"/>
        <pt x="406" y="940" on="0"/>
        <pt x="369" y="940" on="1"/>
        <pt x="338" y="940" on="0"/>
        <pt x="334" y="983" on="1"/>
        <pt x="360" y="1065" on="0"/>
        <pt x="481" y="1344" on="0"/>
        <pt x="500" y="1405" on="1"/>
        <pt x="471" y="1400" on="0"/>
        <pt x="407" y="1386" on="0"/>
        <pt x="297" y="1366" on="0"/>
        <pt x="195" y="1366" on="0"/>
      </contour>
    </TTGlyph>
    <TTGlyph name="fraction" xMin="-373" yMin="-162" xMax="741" yMax="2103">
      <contour>
        <pt x="-373" y="-129" on="1"/>
        <pt x="-373" y="-115" on="0"/>
        <pt x="-338" y="-40" on="0"/>
        <pt x="-233" y="204" on="0"/>
        <pt x="-184" y="305" on="1"/>
        <pt x="684" y="2103" on="1"/>
        <pt x="686" y="2103" on="1"/>
        <pt x="741" y="2103" on="0"/>
        <pt x="741" y="2071" on="1"/>
        <pt x="741" y="2052" on="0"/>
        <pt x="725" y="2036" on="1"/>
        <pt x="725" y="2034" on="0"/>
        <pt x="726" y="2034" on="1"/>
        <pt x="727" y="2034" on="1"/>
        <pt x="715" y="2004" on="0"/>
        <pt x="598" y="1707" on="0"/>
        <pt x="528" y="1565" on="1"/>
        <pt x="135" y="774" on="0"/>
        <pt x="-86" y="287" on="1"/>
        <pt x="-274" y="-127" on="1"/>
        <pt x="-292" y="-162" on="0"/>
        <pt x="-373" y="-162" on="0"/>
      </contour>
    </TTGlyph>
    <TTGlyph name="g" xMin="-94" yMin="-840" xMax="752" yMax="1042">
      <contour>
        <pt x="715" y="1016" on="1"/>
        <pt x="748" y="1016" on="0"/>
        <pt x="748" y="949" on="0"/>
        <pt x="724" y="885" on="0"/>
        <pt x="697" y="784" on="0"/>
        <pt x="647" y="576" on="0"/>
        <pt x="599" y="363" on="0"/>
        <pt x="554" y="151" on="0"/>
        <pt x="532" y="53" on="1"/>
        <pt x="570" y="79" on="0"/>
        <pt x="645" y="147" on="0"/>
        <pt x="696" y="188" on="0"/>
        <pt x="714" y="188" on="1"/>
        <pt x="752" y="188" on="0"/>
        <pt x="752" y="154" on="1"/>
        <pt x="752" y="127" on="0"/>
        <pt x="735" y="113" on="1"/>
        <pt x="608" y="16" on="0"/>
        <pt x="520" y="-47" on="1"/>
        <pt x="461" y="-348" on="1"/>
        <pt x="401" y="-653" on="0"/>
        <pt x="308" y="-758" on="1"/>
        <pt x="234" y="-840" on="0"/>
        <pt x="39" y="-840" on="0"/>
        <pt x="-94" y="-707" on="0"/>
        <pt x="-94" y="-596" on="1"/>
        <pt x="-94" y="-436" on="0"/>
        <pt x="71" y="-292" on="1"/>
        <pt x="138" y="-234" on="0"/>
        <pt x="365" y="-68" on="0"/>
        <pt x="430" y="-14" on="1"/>
        <pt x="439" y="31" on="0"/>
        <pt x="464" y="138" on="0"/>
        <pt x="484" y="226" on="0"/>
        <pt x="504" y="312" on="0"/>
        <pt x="521" y="390" on="0"/>
        <pt x="528" y="418" on="1"/>
        <pt x="473" y="241" on="0"/>
        <pt x="414" y="150" on="1"/>
        <pt x="305" y="-16" on="0"/>
        <pt x="154" y="-16" on="0"/>
        <pt x="61" y="98" on="0"/>
        <pt x="61" y="193" on="1"/>
        <pt x="61" y="368" on="0"/>
        <pt x="193" y="759" on="0"/>
        <pt x="425" y="1042" on="0"/>
        <pt x="563" y="1042" on="1"/>
        <pt x="633" y="1042" on="0"/>
        <pt x="688" y="1010" on="1"/>
        <pt x="700" y="1016" on="0"/>
      </contour>
      <contour>
        <pt x="154" y="373" on="0"/>
        <pt x="154" y="82" on="0"/>
        <pt x="230" y="82" on="1"/>
        <pt x="297" y="82" on="0"/>
        <pt x="472" y="340" on="0"/>
        <pt x="577" y="699" on="0"/>
        <pt x="631" y="898" on="0"/>
        <pt x="641" y="934" on="1"/>
        <pt x="609" y="961" on="0"/>
        <pt x="562" y="961" on="1"/>
        <pt x="471" y="961" on="0"/>
        <pt x="281" y="723" on="0"/>
      </contour>
      <contour>
        <pt x="414" y="-125" on="1"/>
        <pt x="339" y="-187" on="0"/>
        <pt x="192" y="-298" on="0"/>
        <pt x="134" y="-353" on="1"/>
        <pt x="6" y="-476" on="0"/>
        <pt x="6" y="-695" on="0"/>
        <pt x="54" y="-724" on="1"/>
        <pt x="75" y="-737" on="0"/>
        <pt x="118" y="-737" on="1"/>
        <pt x="206" y="-737" on="0"/>
        <pt x="327" y="-546" on="0"/>
        <pt x="383" y="-287" on="1"/>
      </contour>
    </TTGlyph>
</ttFont>
